<svg xmlns="http://www.w3.org/2000/svg" xmlns:svg="http://www.w3.org/2000/svg" id="svg10" width="48" height="48" version="1.1" viewBox="0 0 48 48"><g id="g824" transform="matrix(0.3894695,0,0,0.3894695,4,0)"><polygon id="polygon4" fill="#bbb" points="11 113 88 113 88 80 99 80 99 124 0 124 0 80 11 80" transform="translate(0,-0.192)" style="fill-rule:evenodd;fill:#000"/><path id="path6" fill="#f58025" fill-rule="nonzero" d="m 22.987891,76.538 54.025,11.355 2.271,-10.8 -54.025,-11.36 z m 7.149,-25.869 50.046,23.308 4.662,-10.009 -50.047,-23.308 z m 13.848,-24.553 42.428,35.331 7.066,-8.485 -42.428,-35.33 z M 71.371891,0 l -8.86,6.59 32.948,44.3 8.859999,-6.589 z M 22,101.808 h 55 v -11 H 22 Z" style="fill:#000"/></g></svg>