<svg xmlns="http://www.w3.org/2000/svg" width="48" height="48" fill="none" viewBox="0 0 48 48"><g clip-path="url(#clip0_1952_16940)"><path fill="#E24CFF" d="M10 22C15.5228 22 20 17.5228 20 12C20 6.47715 15.5228 2 10 2C4.47715 2 0 6.47715 0 12C0 17.5228 4.47715 22 10 22Z"/><mask id="mask0_1952_16940" width="48" height="48" x="0" y="0" maskUnits="userSpaceOnUse" style="mask-type:luminance"><path fill="#fff" d="M48 0H0V48H48V0Z"/></mask><g mask="url(#mask0_1952_16940)"><path stroke="#343437" stroke-linecap="round" stroke-linejoin="round" stroke-width="2" d="M32 24.314V18H25.686"/><path stroke="#343437" stroke-linecap="round" stroke-linejoin="round" stroke-width="2" d="M38 12L40 10"/><path stroke="#343437" stroke-linecap="round" stroke-linejoin="round" stroke-width="2" d="M24 10H10C7.79 10 6 11.79 6 14V38C6 40.21 7.79 42 10 42H36C38.21 42 40 40.21 40 38V28"/><path stroke="#343437" stroke-linecap="round" stroke-linejoin="round" stroke-width="2" d="M40 18H42.82"/><path stroke="#343437" stroke-linecap="round" stroke-linejoin="round" stroke-width="2" d="M32 9.99969V7.17969"/><path stroke="#343437" stroke-linecap="round" stroke-linejoin="round" stroke-width="2" d="M6 27.24C22 30.834 29.5 20.5 29.5 20.5"/></g></g><defs><clipPath id="clip0_1952_16940"><rect width="48" height="48" fill="#fff"/></clipPath></defs></svg>