<svg xmlns="http://www.w3.org/2000/svg" width="48" height="48" fill="none" viewBox="0 0 48 48"><g clip-path="url(#clip0_1952_16970)"><path fill="#9A52FF" d="M11 20C16.5228 20 21 15.5228 21 10C21 4.47715 16.5228 0 11 0C5.47715 0 1 4.47715 1 10C1 15.5228 5.47715 20 11 20Z"/><mask id="mask0_1952_16970" width="48" height="48" x="0" y="0" maskUnits="userSpaceOnUse" style="mask-type:luminance"><path fill="#fff" d="M48 0H0V48H48V0Z"/></mask><g mask="url(#mask0_1952_16970)"><path stroke="#343437" stroke-linecap="round" stroke-linejoin="round" stroke-width="2" d="M6 30H16"/><path stroke="#343437" stroke-linecap="round" stroke-linejoin="round" stroke-width="2" d="M16 36H10"/><path stroke="#343437" stroke-linecap="round" stroke-linejoin="round" stroke-width="2" d="M16 42H14"/><path stroke="#343437" stroke-linecap="round" stroke-linejoin="round" stroke-width="2" d="M23.436 15.9688V25.2707L30.748 29.7287"/><path stroke="#343437" stroke-linecap="round" stroke-linejoin="round" stroke-width="2" d="M6.11792 22C7.11392 13.002 14.7359 6 23.9999 6C33.9419 6 41.9999 14.058 41.9999 24C41.9999 33.942 33.9419 42 23.9999 42"/></g></g><defs><clipPath id="clip0_1952_16970"><rect width="48" height="48" fill="#fff"/></clipPath></defs></svg>