<svg xmlns="http://www.w3.org/2000/svg" xmlns:xlink="http://www.w3.org/1999/xlink" width="810" height="330" fill="#000" fill-opacity="1" stroke="#000" stroke-dasharray="none" stroke-dashoffset="0" stroke-linecap="square" stroke-linejoin="miter" stroke-miterlimit="10" stroke-opacity="1" stroke-width="1" color-interpolation="auto" color-rendering="auto" font-family="'Dialog'" font-size="12" font-style="normal" font-weight="normal" image-rendering="auto" shape-rendering="auto" text-rendering="auto" viewBox="0 10 810 330"><g><defs id="defs1"><clipPath id="clipPath1" clipPathUnits="userSpaceOnUse"><path d="M0 0 L2147483647 0 L2147483647 2147483647 L0 2147483647 L0 0 Z"/></clipPath><clipPath id="clipPath2" clipPathUnits="userSpaceOnUse"><path d="M0 0 L0 70 L110 70 L110 0 Z"/></clipPath><clipPath id="clipPath3" clipPathUnits="userSpaceOnUse"><path d="M0 0 L0 290 L250 290 L250 0 Z"/></clipPath></defs><g fill="#FFF" fill-opacity="0" stroke="#FFF" stroke-opacity="0"><path stroke="none" d="M0.5 0.5 L88.998 0.5 L88.998 21.6094 L109 21.6094 L109 69 L0.5 69 Z" clip-path="url(#clipPath2)" transform="translate(670,240)"/></g><g><path fill="none" d="M0.5 0.5 L88.998 0.5 L88.998 21.6094 L109 21.6094 L109 69 L0.5 69 Z" clip-path="url(#clipPath2)" transform="translate(670,240)"/><path fill="none" d="M0.5 21.6094 L88.998 21.6094" clip-path="url(#clipPath2)" transform="translate(670,240)"/><text x="5" y="16.109" stroke="none" clip-path="url(#clipPath2)" font-family="sans-serif" font-size="14" transform="translate(670,240)" xml:space="preserve">Order Book</text><text x="27" y="42.555" stroke="none" clip-path="url(#clipPath2)" font-family="sans-serif" font-size="14" transform="translate(670,240)" xml:space="preserve">EUR:JPY</text><text x="10" y="58.664" stroke="none" clip-path="url(#clipPath2)" font-family="sans-serif" font-size="14" transform="translate(670,240)" xml:space="preserve">DomainID: B</text></g><g fill="#FFF" fill-opacity="0" stroke="#FFF" stroke-opacity="0"><path stroke="none" d="M0.5 0.5 L88.998 0.5 L88.998 21.6094 L109 21.6094 L109 69 L0.5 69 Z" clip-path="url(#clipPath2)" transform="translate(550,240)"/></g><g><path fill="none" d="M0.5 0.5 L88.998 0.5 L88.998 21.6094 L109 21.6094 L109 69 L0.5 69 Z" clip-path="url(#clipPath2)" transform="translate(550,240)"/><path fill="none" d="M0.5 21.6094 L88.998 21.6094" clip-path="url(#clipPath2)" transform="translate(550,240)"/><text x="5" y="16.109" stroke="none" clip-path="url(#clipPath2)" font-family="sans-serif" font-size="14" transform="translate(550,240)" xml:space="preserve">Order Book</text><text x="27" y="42.555" stroke="none" clip-path="url(#clipPath2)" font-family="sans-serif" font-size="14" transform="translate(550,240)" xml:space="preserve">JPY:EUR</text><text x="10" y="58.664" stroke="none" clip-path="url(#clipPath2)" font-family="sans-serif" font-size="14" transform="translate(550,240)" xml:space="preserve">DomainID: B</text></g><g fill="#FFF" fill-opacity="0" stroke="#FFF" stroke-opacity="0" transform="translate(280,30)"><rect width="248.5" height="288.5" x=".5" y=".5" stroke="none" clip-path="url(#clipPath3)"/></g><g stroke-dasharray="8 5" stroke-linecap="butt" stroke-miterlimit="5" transform="translate(280,30)"><rect width="248.5" height="288.5" x=".5" y=".5" fill="none" clip-path="url(#clipPath3)"/><text x="54" y="18.109" stroke="none" clip-path="url(#clipPath3)" font-family="sans-serif" font-size="14" xml:space="preserve">Permissioned DEX A</text></g><g fill="#FFF" fill-opacity="0" stroke="#FFF" stroke-opacity="0"><path stroke="none" d="M0.5 0.5 L88.998 0.5 L88.998 21.6094 L109 21.6094 L109 69 L0.5 69 Z" clip-path="url(#clipPath2)" transform="translate(30,160)"/></g><g><path fill="none" d="M0.5 0.5 L88.998 0.5 L88.998 21.6094 L109 21.6094 L109 69 L0.5 69 Z" clip-path="url(#clipPath2)" transform="translate(30,160)"/><path fill="none" d="M0.5 21.6094 L88.998 21.6094" clip-path="url(#clipPath2)" transform="translate(30,160)"/><text x="5" y="16.109" stroke="none" clip-path="url(#clipPath2)" font-family="sans-serif" font-size="14" transform="translate(30,160)" xml:space="preserve">Order Book</text><text x="22" y="50.609" stroke="none" clip-path="url(#clipPath2)" font-family="sans-serif" font-size="14" transform="translate(30,160)" xml:space="preserve">USD:FOO</text></g><g fill="#FFF" fill-opacity="0" stroke="#FFF" stroke-opacity="0"><path stroke="none" d="M0.5 0.5 L88.998 0.5 L88.998 21.6094 L109 21.6094 L109 69 L0.5 69 Z" clip-path="url(#clipPath2)" transform="translate(30,240)"/></g><g><path fill="none" d="M0.5 0.5 L88.998 0.5 L88.998 21.6094 L109 21.6094 L109 69 L0.5 69 Z" clip-path="url(#clipPath2)" transform="translate(30,240)"/><path fill="none" d="M0.5 21.6094 L88.998 21.6094" clip-path="url(#clipPath2)" transform="translate(30,240)"/><text x="5" y="16.109" stroke="none" clip-path="url(#clipPath2)" font-family="sans-serif" font-size="14" transform="translate(30,240)" xml:space="preserve">Order Book</text><text x="23" y="50.609" stroke="none" clip-path="url(#clipPath2)" font-family="sans-serif" font-size="14" transform="translate(30,240)" xml:space="preserve">BAR:BAZ</text></g><g fill="#FFF" fill-opacity="0" stroke="#FFF" stroke-opacity="0"><path stroke="none" d="M0.5 0.5 L88.998 0.5 L88.998 21.6094 L109 21.6094 L109 69 L0.5 69 Z" clip-path="url(#clipPath2)" transform="translate(150,160)"/></g><g><path fill="none" d="M0.5 0.5 L88.998 0.5 L88.998 21.6094 L109 21.6094 L109 69 L0.5 69 Z" clip-path="url(#clipPath2)" transform="translate(150,160)"/><path fill="none" d="M0.5 21.6094 L88.998 21.6094" clip-path="url(#clipPath2)" transform="translate(150,160)"/><text x="5" y="16.109" stroke="none" clip-path="url(#clipPath2)" font-family="sans-serif" font-size="14" transform="translate(150,160)" xml:space="preserve">Order Book</text><text x="22" y="50.609" stroke="none" clip-path="url(#clipPath2)" font-family="sans-serif" font-size="14" transform="translate(150,160)" xml:space="preserve">FOO:USD</text></g><g fill="#FFF" fill-opacity="0" stroke="#FFF" stroke-opacity="0"><path stroke="none" d="M0.5 0.5 L88.998 0.5 L88.998 21.6094 L109 21.6094 L109 69 L0.5 69 Z" clip-path="url(#clipPath2)" transform="translate(150,80)"/></g><g><path fill="none" d="M0.5 0.5 L88.998 0.5 L88.998 21.6094 L109 21.6094 L109 69 L0.5 69 Z" clip-path="url(#clipPath2)" transform="translate(150,80)"/><path fill="none" d="M0.5 21.6094 L88.998 21.6094" clip-path="url(#clipPath2)" transform="translate(150,80)"/><text x="5" y="16.109" stroke="none" clip-path="url(#clipPath2)" font-family="sans-serif" font-size="14" transform="translate(150,80)" xml:space="preserve">Order Book</text><text x="23" y="50.609" stroke="none" clip-path="url(#clipPath2)" font-family="sans-serif" font-size="14" transform="translate(150,80)" xml:space="preserve">FOO:XRP</text></g><g fill="#FFF" fill-opacity="0" stroke="#FFF" stroke-opacity="0"><path stroke="none" d="M0.5 0.5 L88.998 0.5 L88.998 21.6094 L109 21.6094 L109 69 L0.5 69 Z" clip-path="url(#clipPath2)" transform="translate(30,80)"/></g><g><path fill="none" d="M0.5 0.5 L88.998 0.5 L88.998 21.6094 L109 21.6094 L109 69 L0.5 69 Z" clip-path="url(#clipPath2)" transform="translate(30,80)"/><path fill="none" d="M0.5 21.6094 L88.998 21.6094" clip-path="url(#clipPath2)" transform="translate(30,80)"/><text x="5" y="16.109" stroke="none" clip-path="url(#clipPath2)" font-family="sans-serif" font-size="14" transform="translate(30,80)" xml:space="preserve">Order Book</text><text x="23" y="50.609" stroke="none" clip-path="url(#clipPath2)" font-family="sans-serif" font-size="14" transform="translate(30,80)" xml:space="preserve">XRP:FOO</text></g><g fill="#FFF" fill-opacity="0" stroke="#FFF" stroke-opacity="0" transform="translate(20,30)"><rect width="248.5" height="288.5" x=".5" y=".5" stroke="none" clip-path="url(#clipPath3)"/></g><g stroke-dasharray="8 5" stroke-linecap="butt" stroke-miterlimit="5" transform="translate(20,30)"><rect width="248.5" height="288.5" x=".5" y=".5" fill="none" clip-path="url(#clipPath3)"/><text x="89" y="18.109" stroke="none" clip-path="url(#clipPath3)" font-family="sans-serif" font-size="14" xml:space="preserve">Open DEX</text></g><g fill="#FFF" fill-opacity="0" stroke="#FFF" stroke-opacity="0"><path stroke="none" d="M0.5 0.5 L88.998 0.5 L88.998 21.6094 L109 21.6094 L109 69 L0.5 69 Z" clip-path="url(#clipPath2)" transform="translate(410,240)"/></g><g><path fill="none" d="M0.5 0.5 L88.998 0.5 L88.998 21.6094 L109 21.6094 L109 69 L0.5 69 Z" clip-path="url(#clipPath2)" transform="translate(410,240)"/><path fill="none" d="M0.5 21.6094 L88.998 21.6094" clip-path="url(#clipPath2)" transform="translate(410,240)"/><text x="5" y="16.109" stroke="none" clip-path="url(#clipPath2)" font-family="sans-serif" font-size="14" transform="translate(410,240)" xml:space="preserve">Order Book</text><text x="27" y="42.555" stroke="none" clip-path="url(#clipPath2)" font-family="sans-serif" font-size="14" transform="translate(410,240)" xml:space="preserve">EUR:JPY</text><text x="11" y="58.664" stroke="none" clip-path="url(#clipPath2)" font-family="sans-serif" font-size="14" transform="translate(410,240)" xml:space="preserve">DomainID: A</text></g><g fill="#FFF" fill-opacity="0" stroke="#FFF" stroke-opacity="0"><path stroke="none" d="M0.5 0.5 L88.998 0.5 L88.998 21.6094 L109 21.6094 L109 69 L0.5 69 Z" clip-path="url(#clipPath2)" transform="translate(290,160)"/></g><g><path fill="none" d="M0.5 0.5 L88.998 0.5 L88.998 21.6094 L109 21.6094 L109 69 L0.5 69 Z" clip-path="url(#clipPath2)" transform="translate(290,160)"/><path fill="none" d="M0.5 21.6094 L88.998 21.6094" clip-path="url(#clipPath2)" transform="translate(290,160)"/><text x="5" y="16.109" stroke="none" clip-path="url(#clipPath2)" font-family="sans-serif" font-size="14" transform="translate(290,160)" xml:space="preserve">Order Book</text><text x="22" y="42.555" stroke="none" clip-path="url(#clipPath2)" font-family="sans-serif" font-size="14" transform="translate(290,160)" xml:space="preserve">USD:FOO</text><text x="11" y="58.664" stroke="none" clip-path="url(#clipPath2)" font-family="sans-serif" font-size="14" transform="translate(290,160)" xml:space="preserve">DomainID: A</text></g><g fill="#FFF" fill-opacity="0" stroke="#FFF" stroke-opacity="0"><path stroke="none" d="M0.5 0.5 L88.998 0.5 L88.998 21.6094 L109 21.6094 L109 69 L0.5 69 Z" clip-path="url(#clipPath2)" transform="translate(410,80)"/></g><g><path fill="none" d="M0.5 0.5 L88.998 0.5 L88.998 21.6094 L109 21.6094 L109 69 L0.5 69 Z" clip-path="url(#clipPath2)" transform="translate(410,80)"/><path fill="none" d="M0.5 21.6094 L88.998 21.6094" clip-path="url(#clipPath2)" transform="translate(410,80)"/><text x="5" y="16.109" stroke="none" clip-path="url(#clipPath2)" font-family="sans-serif" font-size="14" transform="translate(410,80)" xml:space="preserve">Order Book</text><text x="23" y="42.555" stroke="none" clip-path="url(#clipPath2)" font-family="sans-serif" font-size="14" transform="translate(410,80)" xml:space="preserve">FOO:XRP</text><text x="11" y="58.664" stroke="none" clip-path="url(#clipPath2)" font-family="sans-serif" font-size="14" transform="translate(410,80)" xml:space="preserve">DomainID: A</text></g><g fill="#FFF" fill-opacity="0" stroke="#FFF" stroke-opacity="0" transform="translate(540,30)"><rect width="248.5" height="288.5" x=".5" y=".5" stroke="none" clip-path="url(#clipPath3)"/></g><g stroke-dasharray="8 5" stroke-linecap="butt" stroke-miterlimit="5" transform="translate(540,30)"><rect width="248.5" height="288.5" x=".5" y=".5" fill="none" clip-path="url(#clipPath3)"/><text x="54" y="18.109" stroke="none" clip-path="url(#clipPath3)" font-family="sans-serif" font-size="14" xml:space="preserve">Permissioned DEX B</text></g></g></svg>