<svg xmlns="http://www.w3.org/2000/svg" xmlns:xlink="http://www.w3.org/1999/xlink" width="630" height="460" fill="#000" fill-opacity="1" stroke="#000" stroke-dasharray="none" stroke-dashoffset="0" stroke-linecap="square" stroke-linejoin="miter" stroke-miterlimit="10" stroke-opacity="1" stroke-width="1" color-interpolation="auto" color-rendering="auto" font-family="'Dialog'" font-size="12" font-style="normal" font-weight="normal" image-rendering="auto" shape-rendering="auto" text-rendering="auto" viewBox="0 0 630 460"><g><defs id="defs1"><clipPath id="clipPath1" clipPathUnits="userSpaceOnUse"><path d="M0 0 L2147483647 0 L2147483647 2147483647 L0 2147483647 L0 0 Z"/></clipPath><clipPath id="clipPath2" clipPathUnits="userSpaceOnUse"><path d="M0 0 L0 140 L160 140 L160 0 Z"/></clipPath><clipPath id="clipPath3" clipPathUnits="userSpaceOnUse"><path d="M0 0 L0 140 L200 140 L200 0 Z"/></clipPath><clipPath id="clipPath4" clipPathUnits="userSpaceOnUse"><path d="M0 0 L0 140 L190 140 L190 0 Z"/></clipPath><clipPath id="clipPath5" clipPathUnits="userSpaceOnUse"><path d="M0 0 L0 80 L140 80 L140 0 Z"/></clipPath><clipPath id="clipPath6" clipPathUnits="userSpaceOnUse"><path d="M0 0 L0 40 L110 40 L110 0 Z"/></clipPath><clipPath id="clipPath7" clipPathUnits="userSpaceOnUse"><path d="M0 0 L0 30 L120 30 L120 0 Z"/></clipPath><clipPath id="clipPath8" clipPathUnits="userSpaceOnUse"><path d="M0 0 L0 180 L270 180 L270 0 Z"/></clipPath></defs><g fill="#FFF" fill-opacity="0" stroke="#FFF" stroke-opacity="0" transform="translate(450,300)"><circle cx="80.5" cy="7.5" r="7" stroke="none" clip-path="url(#clipPath2)"/></g><g transform="translate(450,300)"><circle cx="80.5" cy="7.5" r="7" fill="none" clip-path="url(#clipPath2)"/><path fill="none" d="M59.5 21.5 L101.5 21.5" clip-path="url(#clipPath2)"/><path fill="none" d="M80.5 14.5 L80.5 42.5" clip-path="url(#clipPath2)"/><path fill="none" d="M80.5 42.5 L66.5 70.5" clip-path="url(#clipPath2)"/><path fill="none" d="M80.5 42.5 L94.5 70.5" clip-path="url(#clipPath2)"/><text x="60" y="93.109" stroke="none" clip-path="url(#clipPath2)" font-family="sans-serif" font-size="14" xml:space="preserve">Tracy</text><text x="25" y="109.219" stroke="none" clip-path="url(#clipPath2)" font-family="sans-serif" font-size="14" xml:space="preserve">(許可型DEXの</text><text x="33" y="125.328" stroke="none" clip-path="url(#clipPath2)" font-family="sans-serif" font-size="14" xml:space="preserve">トレーダー)</text></g><g fill="#FFF" fill-opacity="0" stroke="#FFF" stroke-opacity="0" transform="translate(20,20)"><rect width="198.5" height="138.5" x=".5" y=".5" stroke="none" clip-path="url(#clipPath3)"/></g><g transform="translate(20,20)"><rect width="198.5" height="138.5" x=".5" y=".5" fill="none" clip-path="url(#clipPath3)"/><text x="60" y="18.109" stroke="none" clip-path="url(#clipPath3)" font-family="sans-serif" font-size="14" xml:space="preserve">オーダーブック</text><text x="11" y="34.219" stroke="none" clip-path="url(#clipPath3)" font-family="sans-serif" font-size="14" xml:space="preserve">USD.Acme:FOO.WayGate</text><path fill="none" d="M1 40.2188 L199 40.2188" clip-path="url(#clipPath3)"/><text x="5" y="55.328" stroke="none" clip-path="url(#clipPath3)" font-family="sans-serif" font-size="14" font-weight="bold" xml:space="preserve">DomainID: ドメインA</text><path fill="none" d="M1 61.3281 L199 61.3281" clip-path="url(#clipPath3)"/><text x="5" y="76.438" stroke="none" clip-path="url(#clipPath3)" font-family="sans-serif" font-size="14" xml:space="preserve">10 FOO : 10 USD – Marko</text><path fill="none" d="M1 82.4375 L199 82.4375" clip-path="url(#clipPath3)"/><text x="5" y="97.547" stroke="none" clip-path="url(#clipPath3)" font-family="sans-serif" font-size="14" xml:space="preserve">9 FOO : 15 USD – Tracy</text><path fill="none" d="M1 103.5469 L199 103.5469" clip-path="url(#clipPath3)"/><text x="5" y="118.656" stroke="none" clip-path="url(#clipPath3)" font-family="sans-serif" font-size="14" xml:space="preserve">...</text></g><g fill="#FFF" fill-opacity="0" stroke="#FFF" stroke-opacity="0" transform="translate(290,60)"><rect width="188.5" height="138.5" x=".5" y=".5" stroke="none" clip-path="url(#clipPath4)"/></g><g transform="translate(290,60)"><rect width="188.5" height="138.5" x=".5" y=".5" fill="none" clip-path="url(#clipPath4)"/><text x="60" y="18.109" stroke="none" clip-path="url(#clipPath4)" font-family="sans-serif" font-size="14" xml:space="preserve">ドメインA</text><path fill="none" d="M1 24.1094 L189 24.1094" clip-path="url(#clipPath4)"/><text x="5" y="39.219" stroke="none" clip-path="url(#clipPath4)" font-family="sans-serif" font-size="14" xml:space="preserve">所有者: Owen</text><text x="5" y="55.328" stroke="none" clip-path="url(#clipPath4)" font-family="sans-serif" font-size="14" xml:space="preserve">承認された資格情報:</text><text x="5" y="71.438" stroke="none" clip-path="url(#clipPath4)" font-family="sans-serif" font-size="14" xml:space="preserve">- &quot;認可済&quot; by Isabel</text><text x="5" y="103.656" stroke="none" clip-path="url(#clipPath4)" font-family="sans-serif" font-size="14" font-weight="bold" xml:space="preserve">- &quot;認可済&quot; by Owen</text></g><g fill="#FFF" fill-opacity="0" stroke="#FFF" stroke-opacity="0" transform="translate(120,300)"><circle cx="80.5" cy="7.5" r="7" stroke="none" clip-path="url(#clipPath2)"/></g><g transform="translate(120,300)"><circle cx="80.5" cy="7.5" r="7" fill="none" clip-path="url(#clipPath2)"/><path fill="none" d="M59.5 21.5 L101.5 21.5" clip-path="url(#clipPath2)"/><path fill="none" d="M80.5 14.5 L80.5 42.5" clip-path="url(#clipPath2)"/><path fill="none" d="M80.5 42.5 L66.5 70.5" clip-path="url(#clipPath2)"/><path fill="none" d="M80.5 42.5 L94.5 70.5" clip-path="url(#clipPath2)"/><text x="60" y="93.109" stroke="none" clip-path="url(#clipPath2)" font-family="sans-serif" font-size="14" xml:space="preserve">Owen</text><text x="19" y="109.219" stroke="none" clip-path="url(#clipPath2)" font-family="sans-serif" font-size="14" xml:space="preserve">(資格情報の発行者</text><text x="11" y="125.328" stroke="none" clip-path="url(#clipPath2)" font-family="sans-serif" font-size="14" xml:space="preserve">かつドメインの所有者)</text></g><g fill="#FFF" fill-opacity="0" stroke="#FFF" stroke-opacity="0"><path stroke="none" d="M0.5 0.5 L80.7725 0.5 L80.7725 21.6094 L139 21.6094 L139 79 L0.5 79 Z" clip-path="url(#clipPath5)" transform="translate(300,290)"/></g><g><path fill="none" d="M0.5 0.5 L80.7725 0.5 L80.7725 21.6094 L139 21.6094 L139 79 L0.5 79 Z" clip-path="url(#clipPath5)" transform="translate(300,290)"/><path fill="none" d="M0.5 21.6094 L80.7725 21.6094" clip-path="url(#clipPath5)" transform="translate(300,290)"/><text x="5" y="16.109" stroke="none" clip-path="url(#clipPath5)" font-family="sans-serif" font-size="14" transform="translate(300,290)" xml:space="preserve">資格情報</text><text x="5" y="39.5" stroke="none" clip-path="url(#clipPath5)" font-family="sans-serif" font-size="14" transform="translate(300,290)" xml:space="preserve">タイプ: &quot;認可済&quot;</text><text x="5" y="55.609" stroke="none" clip-path="url(#clipPath5)" font-family="sans-serif" font-size="14" transform="translate(300,290)" xml:space="preserve">発行者: Owen</text><text x="5" y="71.719" stroke="none" clip-path="url(#clipPath5)" font-family="sans-serif" font-size="14" transform="translate(300,290)" xml:space="preserve">対象: Tracy</text></g><g stroke-dasharray="8 5" stroke-linecap="butt" stroke-miterlimit="5"><path fill="none" d="M90.5 20.5 L11.5 20.5" clip-path="url(#clipPath6)" transform="translate(430,310)"/><path fill="#fff" stroke="none" d="M22.2583 14 L11 20.5 L22.2583 27 Z" clip-path="url(#clipPath6)" transform="translate(430,310)"/><path fill="none" stroke-dasharray="none" stroke-linecap="square" stroke-miterlimit="10" d="M22.2583 14 L11 20.5 L22.2583 27 Z" clip-path="url(#clipPath6)" transform="translate(430,310)"/></g><g font-family="sans-serif" font-size="14"><text x="32.221" y="16" stroke="none" clip-path="url(#clipPath6)" transform="translate(430,310)" xml:space="preserve">保有</text></g><g stroke-dasharray="8 5" stroke-linecap="butt" stroke-miterlimit="5"><path fill="none" d="M99.5 10.5 L10.5 10.5" clip-path="url(#clipPath7)" transform="translate(190,60)"/><path fill="#fff" stroke="none" d="M88.7417 4 L100 10.5 L88.7417 17 Z" clip-path="url(#clipPath7)" transform="translate(190,60)"/><path fill="none" stroke-dasharray="none" stroke-linecap="square" stroke-miterlimit="10" d="M88.7417 4 L100 10.5 L88.7417 17 Z" clip-path="url(#clipPath7)" transform="translate(190,60)"/></g><g stroke-dasharray="8 5" stroke-linecap="butt" stroke-miterlimit="5"><path fill="none" d="M10.5 11.5 L10.5 40.5" clip-path="url(#clipPath8)" transform="translate(170,150)"/><path fill="none" d="M10.5 40.5 L230.5 40.5" clip-path="url(#clipPath8)" transform="translate(170,150)"/><path fill="none" d="M230.5 40.5 L230.5 150.5" clip-path="url(#clipPath8)" transform="translate(170,150)"/><path fill="none" d="M230.5 150.5 L250.5 160.5" clip-path="url(#clipPath8)" transform="translate(170,150)"/><path fill="#fff" stroke="none" d="M4 22.2583 L10.5 11 L17 22.2583 Z" clip-path="url(#clipPath8)" transform="translate(170,150)"/><path fill="none" stroke-dasharray="none" stroke-linecap="square" stroke-miterlimit="10" d="M4 22.2583 L10.5 11 L17 22.2583 Z" clip-path="url(#clipPath8)" transform="translate(170,150)"/></g><g font-family="sans-serif" font-size="14"><text x="14" y="55.219" stroke="none" clip-path="url(#clipPath8)" transform="translate(170,150)" xml:space="preserve">アクセス許可</text></g><g stroke-dasharray="8 5" stroke-linecap="butt" stroke-miterlimit="5"><path fill="none" d="M89.5 20.5 L10.5 20.5" clip-path="url(#clipPath6)" transform="translate(210,310)"/><path fill="#fff" stroke="none" d="M78.7417 14 L90 20.5 L78.7417 27 Z" clip-path="url(#clipPath6)" transform="translate(210,310)"/><path fill="none" stroke-dasharray="none" stroke-linecap="square" stroke-miterlimit="10" d="M78.7417 14 L90 20.5 L78.7417 27 Z" clip-path="url(#clipPath6)" transform="translate(210,310)"/></g><g font-family="sans-serif" font-size="14"><text x="29.37" y="16" stroke="none" clip-path="url(#clipPath6)" transform="translate(210,310)" xml:space="preserve">発行</text></g></g></svg>