<svg xmlns="http://www.w3.org/2000/svg" xmlns:xlink="http://www.w3.org/1999/xlink" width="1080" height="350" fill="#000" fill-opacity="1" stroke="#000" stroke-dasharray="none" stroke-dashoffset="0" stroke-linecap="square" stroke-linejoin="miter" stroke-miterlimit="10" stroke-opacity="1" stroke-width="1" color-interpolation="auto" color-rendering="auto" font-family="'Dialog'" font-size="12" font-style="normal" font-weight="normal" image-rendering="auto" shape-rendering="auto" text-rendering="auto" viewBox="80 180 1080 350"><g><defs id="defs1"><clipPath id="clipPath1" clipPathUnits="userSpaceOnUse"><path d="M0 0 L2147483647 0 L2147483647 2147483647 L0 2147483647 L0 0 Z"/></clipPath><clipPath id="clipPath2" clipPathUnits="userSpaceOnUse"><path d="M0 0 L0 30 L30 30 L30 0 Z"/></clipPath><clipPath id="clipPath3" clipPathUnits="userSpaceOnUse"><path d="M0 0 L0 30 L280 30 L280 0 Z"/></clipPath><clipPath id="clipPath4" clipPathUnits="userSpaceOnUse"><path d="M0 0 L0 60 L100 60 L100 0 Z"/></clipPath><clipPath id="clipPath5" clipPathUnits="userSpaceOnUse"><path d="M0 0 L0 70 L100 70 L100 0 Z"/></clipPath><clipPath id="clipPath6" clipPathUnits="userSpaceOnUse"><path d="M0 0 L0 80 L180 80 L180 0 Z"/></clipPath><clipPath id="clipPath7" clipPathUnits="userSpaceOnUse"><path d="M0 0 L0 80 L220 80 L220 0 Z"/></clipPath><clipPath id="clipPath8" clipPathUnits="userSpaceOnUse"><path d="M0 0 L0 240 L50 240 L50 0 Z"/></clipPath><clipPath id="clipPath9" clipPathUnits="userSpaceOnUse"><path d="M0 0 L0 80 L250 80 L250 0 Z"/></clipPath><clipPath id="clipPath10" clipPathUnits="userSpaceOnUse"><path d="M0 0 L0 40 L120 40 L120 0 Z"/></clipPath><clipPath id="clipPath11" clipPathUnits="userSpaceOnUse"><path d="M0 0 L0 160 L140 160 L140 0 Z"/></clipPath></defs><g font-family="sans-serif" font-size="14"><text x="5" y="18.109" stroke="none" clip-path="url(#clipPath2)" transform="translate(510,300)" xml:space="preserve">+</text></g><g font-family="sans-serif" font-size="14" font-weight="bold"><text x="5" y="18.109" stroke="none" clip-path="url(#clipPath3)" transform="translate(100,210)" xml:space="preserve">アドレスのエンコード</text></g><g fill="#FFF" fill-opacity="0" stroke="#FFF" stroke-opacity="0"><path stroke="none" d="M0.5 0.5 L80.5 0.5 L99 30.5 L80.5 59 L0.5 59 Z" clip-path="url(#clipPath4)" transform="translate(860,330)"/></g><g><path fill="none" d="M0.5 0.5 L80.5 0.5 L99 30.5 L80.5 59 L0.5 59 Z" clip-path="url(#clipPath4)" transform="translate(860,330)"/><text x="24" y="35.055" stroke="none" clip-path="url(#clipPath4)" font-family="sans-serif" font-size="14" transform="translate(860,330)" xml:space="preserve">base58</text></g><g fill="#FFF" fill-opacity="0" stroke="#FFF" stroke-opacity="0" transform="translate(670,350)"><rect width="98.5" height="68.5" x=".5" y=".5" stroke="none" clip-path="url(#clipPath5)"/></g><g transform="translate(670,350)"><rect width="98.5" height="68.5" x=".5" y=".5" fill="none" clip-path="url(#clipPath5)"/><text x="8" y="29.5" stroke="none" clip-path="url(#clipPath5)" font-family="sans-serif" font-size="14" xml:space="preserve">チェックサム</text><path fill="none" d="M1 35.5 L99 35.5" clip-path="url(#clipPath5)"/><text x="22" y="50.609" stroke="none" clip-path="url(#clipPath5)" font-family="sans-serif" font-size="14" xml:space="preserve">(4バイト)</text></g><g fill="#FFF" fill-opacity="0" stroke="#FFF" stroke-opacity="0" transform="translate(430,210)"><rect width="178.5" height="78.5" x=".5" y=".5" stroke="none" clip-path="url(#clipPath6)"/></g><g transform="translate(430,210)"><rect width="178.5" height="78.5" x=".5" y=".5" fill="none" clip-path="url(#clipPath6)"/><text x="50" y="26.445" stroke="none" clip-path="url(#clipPath6)" font-family="sans-serif" font-size="14" xml:space="preserve">タイプ接頭辞</text><path fill="none" d="M1 32.4453 L179 32.4453" clip-path="url(#clipPath6)"/><text x="72" y="47.555" stroke="none" clip-path="url(#clipPath6)" font-family="sans-serif" font-size="14" xml:space="preserve">0x00</text><text x="12" y="63.664" stroke="none" clip-path="url(#clipPath6)" font-family="sans-serif" font-size="14" xml:space="preserve">(XRPL base58の 「r」)</text></g><g fill="#FFF" fill-opacity="0" stroke="#FFF" stroke-opacity="0" transform="translate(960,320)"><rect width="178.5" height="78.5" x=".5" y=".5" stroke="none" clip-path="url(#clipPath6)"/></g><g transform="translate(960,320)"><rect width="178.5" height="78.5" x=".5" y=".5" fill="none" clip-path="url(#clipPath6)"/><text x="61" y="18.391" stroke="none" clip-path="url(#clipPath6)" font-family="sans-serif" font-size="14" xml:space="preserve">アドレス</text><path fill="none" d="M1 24.3906 L179 24.3906" clip-path="url(#clipPath6)"/><text x="20" y="39.5" stroke="none" clip-path="url(#clipPath6)" font-family="sans-serif" font-size="14" xml:space="preserve">タイプ接頭辞(1バイト)</text><text x="16" y="55.609" stroke="none" clip-path="url(#clipPath6)" font-family="sans-serif" font-size="14" xml:space="preserve">AccountID (20バイト)</text><text x="19" y="71.719" stroke="none" clip-path="url(#clipPath6)" font-family="sans-serif" font-size="14" xml:space="preserve">チェックサム(4バイト)</text></g><g fill="#FFF" fill-opacity="0" stroke="#FFF" stroke-opacity="0" transform="translate(430,340)"><rect width="178.5" height="78.5" x=".5" y=".5" stroke="none" clip-path="url(#clipPath6)"/></g><g transform="translate(430,340)"><rect width="178.5" height="78.5" x=".5" y=".5" fill="none" clip-path="url(#clipPath6)"/><text x="51" y="34.5" stroke="none" clip-path="url(#clipPath6)" font-family="sans-serif" font-size="14" xml:space="preserve">Account ID</text><path fill="none" d="M1 40.5 L179 40.5" clip-path="url(#clipPath6)"/><text x="54" y="55.609" stroke="none" clip-path="url(#clipPath6)" font-family="sans-serif" font-size="14" xml:space="preserve">(20バイト)</text></g><g fill="#FFF" fill-opacity="0" stroke="#FFF" stroke-opacity="0" transform="translate(100,340)"><rect width="218.5" height="78.5" x=".5" y=".5" stroke="none" clip-path="url(#clipPath7)"/></g><g transform="translate(100,340)"><rect width="218.5" height="78.5" x=".5" y=".5" fill="none" clip-path="url(#clipPath7)"/><text x="60" y="26.445" stroke="none" clip-path="url(#clipPath7)" font-family="sans-serif" font-size="14" xml:space="preserve">マスター公開鍵</text><path fill="none" d="M1 32.4453 L219 32.4453" clip-path="url(#clipPath7)"/><text x="33" y="47.555" stroke="none" clip-path="url(#clipPath7)" font-family="sans-serif" font-size="14" xml:space="preserve">33バイト (secp256k1)</text><text x="12" y="63.664" stroke="none" clip-path="url(#clipPath7)" font-family="sans-serif" font-size="14" xml:space="preserve">0xED + 32バイト (Ed25519)</text></g><g stroke-dasharray="1 2" stroke-linecap="butt" stroke-miterlimit="5"><path fill="none" d="M10.5 10.5 L30.5 10.5" clip-path="url(#clipPath8)" transform="translate(610,200)"/><path fill="none" d="M30.5 10.5 L30.5 220.5" clip-path="url(#clipPath8)" transform="translate(610,200)"/><path fill="none" d="M30.5 220.5 L10.5 220.5" clip-path="url(#clipPath8)" transform="translate(610,200)"/></g><g><path fill="none" d="M60.5 59.5 L60.5 10.5" clip-path="url(#clipPath6)" transform="translate(630,290)"/><path fill="none" d="M60.5 10.5 L10.5 10.5" clip-path="url(#clipPath6)" transform="translate(630,290)"/><path fill="none" d="M67 48.7417 L60.5 60 L54 48.7417" clip-path="url(#clipPath6)" transform="translate(630,290)"/><text x="64" y="43.055" stroke="none" clip-path="url(#clipPath6)" font-family="sans-serif" font-size="14" transform="translate(630,290)" xml:space="preserve">SHA-256を2回</text></g><g><path fill="none" d="M229.5 60.5 L210.5 60.5" clip-path="url(#clipPath9)" transform="translate(630,290)"/><path fill="none" d="M210.5 60.5 L210.5 10.5" clip-path="url(#clipPath9)" transform="translate(630,290)"/><path fill="none" d="M210.5 10.5 L10.5 10.5" clip-path="url(#clipPath9)" transform="translate(630,290)"/><path fill="none" d="M218.7417 54 L230 60.5 L218.7417 67" clip-path="url(#clipPath9)" transform="translate(630,290)"/></g><g><path fill="none" d="M99.5 10.5 L80.5 10.5" clip-path="url(#clipPath10)" transform="translate(760,360)"/><path fill="none" d="M80.5 10.5 L80.5 20.5" clip-path="url(#clipPath10)" transform="translate(760,360)"/><path fill="none" d="M80.5 20.5 L10.5 20.5" clip-path="url(#clipPath10)" transform="translate(760,360)"/><path fill="none" d="M88.7417 4 L100 10.5 L88.7417 17" clip-path="url(#clipPath10)" transform="translate(760,360)"/></g><g><path fill="none" d="M119.5 20.5 L10.5 20.5" clip-path="url(#clipPath11)" transform="translate(310,350)"/><path fill="none" d="M108.7417 14 L120 20.5 L108.7417 27" clip-path="url(#clipPath11)" transform="translate(310,350)"/><text x="16.215" y="48.219" stroke="none" clip-path="url(#clipPath11)" font-family="sans-serif" font-size="14" transform="translate(310,350)" xml:space="preserve">SHA-256の</text><text x="25.517" y="64.328" stroke="none" clip-path="url(#clipPath11)" font-family="sans-serif" font-size="14" transform="translate(310,350)" xml:space="preserve">RIPEMD160</text></g></g></svg>