<svg xmlns="http://www.w3.org/2000/svg" xmlns:xlink="http://www.w3.org/1999/xlink" width="380" height="120" fill="#000" fill-opacity="1" stroke="#000" stroke-dasharray="none" stroke-dashoffset="0" stroke-linecap="square" stroke-linejoin="miter" stroke-miterlimit="10" stroke-opacity="1" stroke-width="1" color-interpolation="auto" color-rendering="auto" font-family="'Dialog'" font-size="12" font-style="normal" font-weight="normal" image-rendering="auto" shape-rendering="auto" text-rendering="auto" viewBox="70 100 380 120"><g><defs id="defs1"><clipPath id="clipPath1" clipPathUnits="userSpaceOnUse"><path d="M0 0 L2147483647 0 L2147483647 2147483647 L0 2147483647 L0 0 Z"/></clipPath><clipPath id="clipPath2" clipPathUnits="userSpaceOnUse"><path d="M0 0 L0 30 L40 30 L40 0 Z"/></clipPath><clipPath id="clipPath3" clipPathUnits="userSpaceOnUse"><path d="M0 0 L0 20 L160 20 L160 0 Z"/></clipPath><clipPath id="clipPath4" clipPathUnits="userSpaceOnUse"><path d="M0 0 L0 30 L30 30 L30 0 Z"/></clipPath><clipPath id="clipPath5" clipPathUnits="userSpaceOnUse"><path d="M0 0 L0 80 L40 80 L40 0 Z"/></clipPath><clipPath id="clipPath6" clipPathUnits="userSpaceOnUse"><path d="M0 0 L0 70 L40 70 L40 0 Z"/></clipPath><clipPath id="clipPath7" clipPathUnits="userSpaceOnUse"><path d="M0 0 L0 50 L40 50 L40 0 Z"/></clipPath><clipPath id="clipPath8" clipPathUnits="userSpaceOnUse"><path d="M0 0 L0 30 L70 30 L70 0 Z"/></clipPath><clipPath id="clipPath9" clipPathUnits="userSpaceOnUse"><path d="M0 0 L0 30 L180 30 L180 0 Z"/></clipPath></defs><g font-family="sans-serif" font-size="14"><text x="5" y="18.109" stroke="none" clip-path="url(#clipPath2)" transform="translate(170,150)" xml:space="preserve">1 +</text></g><g font-family="sans-serif" font-size="14"><text x="5" y="18.109" stroke="none" clip-path="url(#clipPath3)" transform="translate(200,140)" xml:space="preserve">B - (F × (1 - W) × B)</text></g><g font-family="sans-serif" font-size="14"><text x="5" y="18.109" stroke="none" clip-path="url(#clipPath4)" transform="translate(260,160)" xml:space="preserve">P</text></g><g font-family="sans-serif" font-size="60"><text x="5" y="61.219" stroke="none" clip-path="url(#clipPath5)" transform="translate(390,120)" xml:space="preserve">]</text></g><g font-family="sans-serif" font-size="60"><text x="5" y="61.219" stroke="none" clip-path="url(#clipPath6)" transform="translate(150,120)" xml:space="preserve">[</text></g><g font-family="sans-serif" font-size="40"><text x="5" y="42.484" stroke="none" clip-path="url(#clipPath7)" transform="translate(340,130)" xml:space="preserve">)</text></g><g font-family="sans-serif" font-size="40"><text x="5" y="42.484" stroke="none" clip-path="url(#clipPath7)" transform="translate(160,130)" xml:space="preserve">(</text></g><g font-family="sans-serif" font-size="14"><text x="5" y="18.109" stroke="none" clip-path="url(#clipPath4)" transform="translate(350,130)" xml:space="preserve">W</text></g><g font-family="sans-serif" font-size="14"><text x="5" y="18.109" stroke="none" clip-path="url(#clipPath4)" transform="translate(370,150)" xml:space="preserve">- 1</text></g><g font-family="sans-serif" font-size="14"><text x="5" y="18.109" stroke="none" clip-path="url(#clipPath8)" transform="translate(90,150)" xml:space="preserve">L = T ×</text></g><g><path fill="none" d="M10.5 10.5 L160.5 10.5" clip-path="url(#clipPath9)" transform="translate(190,150)"/></g></g></svg>