<svg xmlns="http://www.w3.org/2000/svg" xmlns:xlink="http://www.w3.org/1999/xlink" width="640" height="490" fill="#000" fill-opacity="1" stroke="#000" stroke-dasharray="none" stroke-dashoffset="0" stroke-linecap="square" stroke-linejoin="miter" stroke-miterlimit="10" stroke-opacity="1" stroke-width="1" color-interpolation="auto" color-rendering="auto" font-family="'Dialog'" font-size="12" font-style="normal" font-weight="normal" image-rendering="auto" shape-rendering="auto" text-rendering="auto" viewBox="10 -20 640 490"><g><defs id="defs1"><clipPath id="clipPath1" clipPathUnits="userSpaceOnUse"><path d="M0 0 L2147483647 0 L2147483647 2147483647 L0 2147483647 L0 0 Z"/></clipPath><clipPath id="clipPath2" clipPathUnits="userSpaceOnUse"><path d="M0 0 L0 80 L140 80 L140 0 Z"/></clipPath><clipPath id="clipPath3" clipPathUnits="userSpaceOnUse"><path d="M0 0 L0 50 L180 50 L180 0 Z"/></clipPath><clipPath id="clipPath4" clipPathUnits="userSpaceOnUse"><path d="M0 0 L0 70 L180 70 L180 0 Z"/></clipPath><clipPath id="clipPath5" clipPathUnits="userSpaceOnUse"><path d="M0 0 L0 70 L160 70 L160 0 Z"/></clipPath><clipPath id="clipPath6" clipPathUnits="userSpaceOnUse"><path d="M0 0 L0 80 L150 80 L150 0 Z"/></clipPath><clipPath id="clipPath7" clipPathUnits="userSpaceOnUse"><path d="M0 0 L0 50 L150 50 L150 0 Z"/></clipPath><clipPath id="clipPath8" clipPathUnits="userSpaceOnUse"><path d="M0 0 L0 40 L490 40 L490 0 Z"/></clipPath><clipPath id="clipPath9" clipPathUnits="userSpaceOnUse"><path d="M0 0 L0 50 L140 50 L140 0 Z"/></clipPath><clipPath id="clipPath10" clipPathUnits="userSpaceOnUse"><path d="M0 0 L0 50 L100 50 L100 0 Z"/></clipPath><clipPath id="clipPath11" clipPathUnits="userSpaceOnUse"><path d="M0 0 L0 30 L50 30 L50 0 Z"/></clipPath><clipPath id="clipPath12" clipPathUnits="userSpaceOnUse"><path d="M0 0 L0 30 L110 30 L110 0 Z"/></clipPath><clipPath id="clipPath13" clipPathUnits="userSpaceOnUse"><path d="M0 0 L0 360 L400 360 L400 0 Z"/></clipPath></defs><g font-family="sans-serif" font-size="14"><text x="5" y="18.359" stroke="none" clip-path="url(#clipPath2)" transform="translate(430,320)" xml:space="preserve">• Serves</text><text x="5" y="34.719" stroke="none" clip-path="url(#clipPath2)" transform="translate(430,320)" xml:space="preserve">rippled-exclusive</text><text x="5" y="51.078" stroke="none" clip-path="url(#clipPath2)" transform="translate(430,320)" xml:space="preserve">API requests by</text><text x="5" y="67.438" stroke="none" clip-path="url(#clipPath2)" transform="translate(430,320)" xml:space="preserve">forwarding</text></g><g font-family="sans-serif" font-size="14"><text x="5" y="18.359" stroke="none" clip-path="url(#clipPath3)" transform="translate(450,270)" xml:space="preserve">• Provides mpt_holders</text><text x="5" y="34.719" stroke="none" clip-path="url(#clipPath3)" transform="translate(450,270)" xml:space="preserve">method</text></g><g font-family="sans-serif" font-size="14"><text x="5" y="18.359" stroke="none" clip-path="url(#clipPath4)" transform="translate(440,200)" xml:space="preserve">• Provides NFT methods:</text><text x="5" y="34.719" stroke="none" clip-path="url(#clipPath4)" transform="translate(440,200)" xml:space="preserve">nft_history, nft_info,</text><text x="5" y="51.078" stroke="none" clip-path="url(#clipPath4)" transform="translate(440,200)" xml:space="preserve">nfts_by_issuer</text></g><g font-family="sans-serif" font-size="14"><text x="5" y="18.359" stroke="none" clip-path="url(#clipPath5)" transform="translate(80,300)" xml:space="preserve">• Has a live view of</text><text x="5" y="34.719" stroke="none" clip-path="url(#clipPath5)" transform="translate(80,300)" xml:space="preserve">consensus and</text><text x="5" y="51.078" stroke="none" clip-path="url(#clipPath5)" transform="translate(80,300)" xml:space="preserve">peer-to-peer network</text></g><g font-family="sans-serif" font-size="14"><text x="5" y="18.359" stroke="none" clip-path="url(#clipPath6)" transform="translate(70,220)" xml:space="preserve">• Provides pending /</text><text x="5" y="34.719" stroke="none" clip-path="url(#clipPath6)" transform="translate(70,220)" xml:space="preserve">unvalidated data</text><text x="5" y="51.078" stroke="none" clip-path="url(#clipPath6)" transform="translate(70,220)" xml:space="preserve">including</text><text x="5" y="67.438" stroke="none" clip-path="url(#clipPath6)" transform="translate(70,220)" xml:space="preserve">transaction queue</text></g><g font-family="sans-serif" font-size="14"><text x="5" y="18.359" stroke="none" clip-path="url(#clipPath7)" transform="translate(90,160)" xml:space="preserve">• Provides Admin</text><text x="5" y="34.719" stroke="none" clip-path="url(#clipPath7)" transform="translate(90,160)" xml:space="preserve">API methods</text></g><g font-family="sans-serif" font-size="20" font-weight="bold"><text x="5" y="24.078" stroke="none" clip-path="url(#clipPath8)" transform="translate(30,0)" xml:space="preserve">API functionality provided by servers</text></g><g font-family="sans-serif" font-size="14"><text x="5" y="18.359" stroke="none" clip-path="url(#clipPath9)" transform="translate(430,150)" xml:space="preserve">• Scales efficiently</text><text x="5" y="34.719" stroke="none" clip-path="url(#clipPath9)" transform="translate(430,150)" xml:space="preserve">to many requests</text></g><g font-family="sans-serif" font-size="14"><text x="5" y="18.359" stroke="none" clip-path="url(#clipPath10)" transform="translate(290,250)" xml:space="preserve">• Serve most</text><text x="5" y="34.719" stroke="none" clip-path="url(#clipPath10)" transform="translate(290,250)" xml:space="preserve">API methods</text></g><g font-family="sans-serif" font-size="14" font-weight="bold"><text x="5" y="18.359" stroke="none" clip-path="url(#clipPath11)" transform="translate(310,70)" xml:space="preserve">Both</text></g><g font-family="sans-serif" font-size="14" font-weight="bold"><text x="5" y="18.359" stroke="none" clip-path="url(#clipPath12)" transform="translate(400,50)" xml:space="preserve">Clio Server</text></g><g font-family="sans-serif" font-size="14" font-weight="bold"><text x="5" y="18.359" stroke="none" clip-path="url(#clipPath12)" transform="translate(140,50)" xml:space="preserve">rippled Server</text></g><g fill="#FFF" fill-opacity="0" stroke="#FFF" stroke-opacity="0" transform="translate(30,90)"><ellipse cx="199.75" cy="179.75" stroke="none" clip-path="url(#clipPath13)" rx="199.25" ry="179.25"/></g><g transform="translate(30,90)"><ellipse cx="199.75" cy="179.75" fill="none" clip-path="url(#clipPath13)" rx="199.25" ry="179.25"/></g><g fill="#FFF" fill-opacity="0" stroke="#FFF" stroke-opacity="0" transform="translate(230,90)"><ellipse cx="199.75" cy="179.75" stroke="none" clip-path="url(#clipPath13)" rx="199.25" ry="179.25"/></g><g transform="translate(230,90)"><ellipse cx="199.75" cy="179.75" fill="none" clip-path="url(#clipPath13)" rx="199.25" ry="179.25"/></g></g></svg>