<svg xmlns="http://www.w3.org/2000/svg" xmlns:xlink="http://www.w3.org/1999/xlink" width="1420" height="650" fill="#000" fill-opacity="1" stroke="#000" stroke-dasharray="none" stroke-dashoffset="0" stroke-linecap="square" stroke-linejoin="miter" stroke-miterlimit="10" stroke-opacity="1" stroke-width="1" color-interpolation="auto" color-rendering="auto" font-family="'Dialog'" font-size="12" font-style="normal" font-weight="normal" image-rendering="auto" shape-rendering="auto" text-rendering="auto" viewBox="20 20 1420 650"><g><defs id="defs1"><clipPath id="clipPath1" clipPathUnits="userSpaceOnUse"><path d="M0 0 L2147483647 0 L2147483647 2147483647 L0 2147483647 L0 0 Z"/></clipPath><clipPath id="clipPath2" clipPathUnits="userSpaceOnUse"><path d="M0 0 L0 80 L140 80 L140 0 Z"/></clipPath><clipPath id="clipPath3" clipPathUnits="userSpaceOnUse"><path d="M0 0 L0 60 L270 60 L270 0 Z"/></clipPath><clipPath id="clipPath4" clipPathUnits="userSpaceOnUse"><path d="M0 0 L0 30 L210 30 L210 0 Z"/></clipPath><clipPath id="clipPath5" clipPathUnits="userSpaceOnUse"><path d="M0 0 L0 30 L120 30 L120 0 Z"/></clipPath><clipPath id="clipPath6" clipPathUnits="userSpaceOnUse"><path d="M0 0 L0 30 L160 30 L160 0 Z"/></clipPath><clipPath id="clipPath7" clipPathUnits="userSpaceOnUse"><path d="M0 0 L0 30 L70 30 L70 0 Z"/></clipPath><clipPath id="clipPath8" clipPathUnits="userSpaceOnUse"><path d="M0 0 L0 30 L80 30 L80 0 Z"/></clipPath><clipPath id="clipPath9" clipPathUnits="userSpaceOnUse"><path d="M0 0 L0 120 L490 120 L490 0 Z"/></clipPath><clipPath id="clipPath10" clipPathUnits="userSpaceOnUse"><path d="M0 0 L0 90 L180 90 L180 0 Z"/></clipPath><clipPath id="clipPath11" clipPathUnits="userSpaceOnUse"><path d="M0 0 L0 110 L60 110 L60 0 Z"/></clipPath><clipPath id="clipPath12" clipPathUnits="userSpaceOnUse"><path d="M0 0 L0 210 L490 210 L490 0 Z"/></clipPath><clipPath id="clipPath13" clipPathUnits="userSpaceOnUse"><path d="M0 0 L0 90 L200 90 L200 0 Z"/></clipPath><clipPath id="clipPath14" clipPathUnits="userSpaceOnUse"><path d="M0 0 L0 80 L150 80 L150 0 Z"/></clipPath><clipPath id="clipPath15" clipPathUnits="userSpaceOnUse"><path d="M0 0 L0 90 L130 90 L130 0 Z"/></clipPath><clipPath id="clipPath16" clipPathUnits="userSpaceOnUse"><path d="M0 0 L0 120 L220 120 L220 0 Z"/></clipPath><clipPath id="clipPath17" clipPathUnits="userSpaceOnUse"><path d="M0 0 L0 170 L470 170 L470 0 Z"/></clipPath><clipPath id="clipPath18" clipPathUnits="userSpaceOnUse"><path d="M0 0 L0 30 L180 30 L180 0 Z"/></clipPath><clipPath id="clipPath19" clipPathUnits="userSpaceOnUse"><path d="M0 0 L0 100 L30 100 L30 0 Z"/></clipPath><clipPath id="clipPath20" clipPathUnits="userSpaceOnUse"><path d="M0 0 L0 210 L410 210 L410 0 Z"/></clipPath><clipPath id="clipPath21" clipPathUnits="userSpaceOnUse"><path d="M0 0 L0 30 L110 30 L110 0 Z"/></clipPath><clipPath id="clipPath22" clipPathUnits="userSpaceOnUse"><path d="M0 0 L0 120 L40 120 L40 0 Z"/></clipPath></defs><g font-family="sans-serif" font-size="14"><text x="5" y="18.109" stroke="none" clip-path="url(#clipPath2)" transform="translate(760,280)" xml:space="preserve">約定したオファーは</text><text x="5" y="34.219" stroke="none" clip-path="url(#clipPath2)" transform="translate(760,280)" xml:space="preserve">オーダーブック</text><text x="5" y="50.328" stroke="none" clip-path="url(#clipPath2)" transform="translate(760,280)" xml:space="preserve">から削除</text><text x="5" y="66.438" stroke="none" clip-path="url(#clipPath2)" transform="translate(760,280)" xml:space="preserve">されます。</text></g><g font-family="sans-serif" font-size="14"><text x="5" y="18.109" stroke="none" clip-path="url(#clipPath3)" transform="translate(90,40)" xml:space="preserve">Tranは、WayGateが発行する100 FOOを、</text><text x="5" y="34.219" stroke="none" clip-path="url(#clipPath3)" transform="translate(90,40)" xml:space="preserve">最大1000 XRPで購入するオファーを</text><text x="5" y="50.328" stroke="none" clip-path="url(#clipPath3)" transform="translate(90,40)" xml:space="preserve">作成します。</text></g><g fill="#0f0" stroke="#0f0" transform="translate(610,590)"><rect width="208.5" height="28.5" x=".5" y=".5" stroke="none" clip-path="url(#clipPath4)"/><rect width="208.5" height="28.5" x=".5" y=".5" fill="none" stroke="#000" clip-path="url(#clipPath4)"/></g><g font-family="sans-serif" font-size="14"><text x="35" y="18.109" stroke="none" clip-path="url(#clipPath4)" transform="translate(610,590)" xml:space="preserve">78 FOO / 780 XRP</text></g><g fill="#0f0" stroke="#0f0" transform="translate(820,590)"><rect width="118.5" height="28.5" x=".5" y=".5" stroke="none" clip-path="url(#clipPath5)"/><rect width="118.5" height="28.5" x=".5" y=".5" fill="none" stroke="#000" clip-path="url(#clipPath5)"/></g><g font-family="sans-serif" font-size="14"><text x="48" y="18.109" stroke="none" clip-path="url(#clipPath5)" transform="translate(820,590)" xml:space="preserve">0.1</text></g><g fill="#FFF" fill-opacity="0" stroke="#FFF" stroke-opacity="0" transform="translate(820,620)"><rect width="118.5" height="28.5" x=".5" y=".5" stroke="none" clip-path="url(#clipPath5)"/></g><g transform="translate(820,620)"><rect width="118.5" height="28.5" x=".5" y=".5" fill="none" clip-path="url(#clipPath5)"/><text x="53" y="18.109" stroke="none" clip-path="url(#clipPath5)" font-family="sans-serif" font-size="14" xml:space="preserve">...</text></g><g fill="#FFF" fill-opacity="0" stroke="#FFF" stroke-opacity="0" transform="translate(940,620)"><rect width="158.5" height="28.5" x=".5" y=".5" stroke="none" clip-path="url(#clipPath6)"/></g><g transform="translate(940,620)"><rect width="158.5" height="28.5" x=".5" y=".5" fill="none" clip-path="url(#clipPath6)"/><text x="73" y="18.109" stroke="none" clip-path="url(#clipPath6)" font-family="sans-serif" font-size="14" xml:space="preserve">...</text></g><g fill="#0f0" stroke="#0f0" transform="translate(940,590)"><rect width="158.5" height="28.5" x=".5" y=".5" stroke="none" clip-path="url(#clipPath6)"/><rect width="158.5" height="28.5" x=".5" y=".5" fill="none" stroke="#000" clip-path="url(#clipPath6)"/></g><g font-family="sans-serif" font-size="14"><text x="64" y="18.109" stroke="none" clip-path="url(#clipPath6)" transform="translate(940,590)" xml:space="preserve">Tran</text></g><g font-family="sans-serif" font-size="14"><text x="5" y="18.109" stroke="none" clip-path="url(#clipPath7)" transform="translate(940,560)" xml:space="preserve">Owner</text></g><g font-family="sans-serif" font-size="14"><text x="35" y="18.109" stroke="none" clip-path="url(#clipPath8)" transform="translate(660,560)" xml:space="preserve">数量</text></g><g fill="#FFF" fill-opacity="0" stroke="#FFF" stroke-opacity="0" transform="translate(610,530)"><rect width="488.5" height="118.5" x=".5" y=".5" stroke="none" clip-path="url(#clipPath9)"/></g><g transform="translate(610,530)"><rect width="488.5" height="118.5" x=".5" y=".5" fill="none" clip-path="url(#clipPath9)"/><text x="135" y="18.109" stroke="none" clip-path="url(#clipPath9)" font-family="sans-serif" font-size="14" xml:space="preserve">オーダーブック: FOO.WayGate:XRP</text><path fill="none" d="M1 24.1094 L489 24.1094" clip-path="url(#clipPath9)"/></g><g font-family="sans-serif" font-size="14"><text x="5" y="18.109" stroke="none" clip-path="url(#clipPath5)" transform="translate(820,560)" xml:space="preserve">取引レート</text></g><g fill="#FFF" fill-opacity="0" stroke="#FFF" stroke-opacity="0" transform="translate(610,620)"><rect width="208.5" height="28.5" x=".5" y=".5" stroke="none" clip-path="url(#clipPath4)"/></g><g transform="translate(610,620)"><rect width="208.5" height="28.5" x=".5" y=".5" fill="none" clip-path="url(#clipPath4)"/><text x="98" y="18.109" stroke="none" clip-path="url(#clipPath4)" font-family="sans-serif" font-size="14" xml:space="preserve">...</text></g><g fill="#FFF" fill-opacity="0" stroke="#FFF" stroke-opacity="0" transform="translate(820,430)"><rect width="118.5" height="28.5" x=".5" y=".5" stroke="none" clip-path="url(#clipPath5)"/></g><g transform="translate(820,430)"><rect width="118.5" height="28.5" x=".5" y=".5" fill="none" clip-path="url(#clipPath5)"/><text x="44" y="18.109" stroke="none" clip-path="url(#clipPath5)" font-family="sans-serif" font-size="14" xml:space="preserve">20.0</text></g><g fill="#FFF" fill-opacity="0" stroke="#FFF" stroke-opacity="0" transform="translate(820,460)"><rect width="118.5" height="28.5" x=".5" y=".5" stroke="none" clip-path="url(#clipPath5)"/></g><g transform="translate(820,460)"><rect width="118.5" height="28.5" x=".5" y=".5" fill="none" clip-path="url(#clipPath5)"/><text x="45" y="18.109" stroke="none" clip-path="url(#clipPath5)" font-family="sans-serif" font-size="14" xml:space="preserve">≥20</text></g><g fill="#FFF" fill-opacity="0" stroke="#FFF" stroke-opacity="0" transform="translate(940,460)"><rect width="158.5" height="28.5" x=".5" y=".5" stroke="none" clip-path="url(#clipPath6)"/></g><g transform="translate(940,460)"><rect width="158.5" height="28.5" x=".5" y=".5" fill="none" clip-path="url(#clipPath6)"/><text x="73" y="18.109" stroke="none" clip-path="url(#clipPath6)" font-family="sans-serif" font-size="14" xml:space="preserve">...</text></g><g fill="#FFF" fill-opacity="0" stroke="#FFF" stroke-opacity="0" transform="translate(940,430)"><rect width="158.5" height="28.5" x=".5" y=".5" stroke="none" clip-path="url(#clipPath6)"/></g><g transform="translate(940,430)"><rect width="158.5" height="28.5" x=".5" y=".5" fill="none" clip-path="url(#clipPath6)"/><text x="59" y="18.109" stroke="none" clip-path="url(#clipPath6)" font-family="sans-serif" font-size="14" xml:space="preserve">David</text></g><g font-family="sans-serif" font-size="14"><text x="5" y="18.109" stroke="none" clip-path="url(#clipPath7)" transform="translate(990,400)" xml:space="preserve">所有者</text></g><g font-family="sans-serif" font-size="14"><text x="15" y="18.109" stroke="none" clip-path="url(#clipPath8)" transform="translate(680,400)" xml:space="preserve">数量</text></g><g fill="#FFF" fill-opacity="0" stroke="#FFF" stroke-opacity="0" transform="translate(610,370)"><rect width="488.5" height="118.5" x=".5" y=".5" stroke="none" clip-path="url(#clipPath9)"/></g><g transform="translate(610,370)"><rect width="488.5" height="118.5" x=".5" y=".5" fill="none" clip-path="url(#clipPath9)"/><text x="135" y="18.109" stroke="none" clip-path="url(#clipPath9)" font-family="sans-serif" font-size="14" xml:space="preserve">オーダーブック: XRP:FOO.WayGate</text><path fill="none" d="M1 24.1094 L489 24.1094" clip-path="url(#clipPath9)"/></g><g font-family="sans-serif" font-size="14"><text x="20" y="18.109" stroke="none" clip-path="url(#clipPath5)" transform="translate(820,400)" xml:space="preserve">取引レート</text></g><g fill="#FFF" fill-opacity="0" stroke="#FFF" stroke-opacity="0" transform="translate(610,460)"><rect width="208.5" height="28.5" x=".5" y=".5" stroke="none" clip-path="url(#clipPath4)"/></g><g transform="translate(610,460)"><rect width="208.5" height="28.5" x=".5" y=".5" fill="none" clip-path="url(#clipPath4)"/><text x="98" y="18.109" stroke="none" clip-path="url(#clipPath4)" font-family="sans-serif" font-size="14" xml:space="preserve">...</text></g><g fill="#FFF" fill-opacity="0" stroke="#FFF" stroke-opacity="0" transform="translate(610,430)"><rect width="208.5" height="28.5" x=".5" y=".5" stroke="none" clip-path="url(#clipPath4)"/></g><g transform="translate(610,430)"><rect width="208.5" height="28.5" x=".5" y=".5" fill="none" clip-path="url(#clipPath4)"/><text x="17" y="18.109" stroke="none" clip-path="url(#clipPath4)" font-family="sans-serif" font-size="14" xml:space="preserve">20000 XRP / 1000 FOO</text></g><g font-family="sans-serif" font-size="14"><text x="5" y="18.109" stroke="none" clip-path="url(#clipPath10)" transform="translate(1120,180)" xml:space="preserve">マッチングする</text><text x="5" y="34.219" stroke="none" clip-path="url(#clipPath10)" transform="translate(1120,180)" xml:space="preserve">オファーの所有者は、</text><text x="5" y="50.328" stroke="none" clip-path="url(#clipPath10)" transform="translate(1120,180)" xml:space="preserve">Tranから合計31XRP</text><text x="5" y="66.438" stroke="none" clip-path="url(#clipPath10)" transform="translate(1120,180)" xml:space="preserve">を受け取ります。</text></g><g fill="#FFF" fill-opacity="0" stroke="#FFF" stroke-opacity="0" transform="translate(820,120)"><rect width="118.5" height="28.5" x=".5" y=".5" stroke="none" clip-path="url(#clipPath5)"/></g><g transform="translate(820,120)"><rect width="118.5" height="28.5" x=".5" y=".5" fill="none" clip-path="url(#clipPath5)"/><text x="48" y="18.109" stroke="none" clip-path="url(#clipPath5)" font-family="sans-serif" font-size="14" xml:space="preserve">0.5</text></g><g fill="#FFF" fill-opacity="0" stroke="#FFF" stroke-opacity="0" transform="translate(820,150)"><rect width="118.5" height="28.5" x=".5" y=".5" stroke="none" clip-path="url(#clipPath5)"/></g><g transform="translate(820,150)"><rect width="118.5" height="28.5" x=".5" y=".5" fill="none" clip-path="url(#clipPath5)"/><text x="39" y="18.109" stroke="none" clip-path="url(#clipPath5)" font-family="sans-serif" font-size="14" xml:space="preserve">0.667</text></g><g fill="#FFF" fill-opacity="0" stroke="#FFF" stroke-opacity="0" transform="translate(820,180)"><rect width="118.5" height="28.5" x=".5" y=".5" stroke="none" clip-path="url(#clipPath5)"/></g><g transform="translate(820,180)"><rect width="118.5" height="28.5" x=".5" y=".5" fill="none" clip-path="url(#clipPath5)"/><text x="48" y="18.109" stroke="none" clip-path="url(#clipPath5)" font-family="sans-serif" font-size="14" xml:space="preserve">4.0</text></g><g fill="#FFF" fill-opacity="0" stroke="#FFF" stroke-opacity="0" transform="translate(820,210)"><rect width="118.5" height="28.5" x=".5" y=".5" stroke="none" clip-path="url(#clipPath5)"/></g><g transform="translate(820,210)"><rect width="118.5" height="28.5" x=".5" y=".5" fill="none" clip-path="url(#clipPath5)"/><text x="44" y="18.109" stroke="none" clip-path="url(#clipPath5)" font-family="sans-serif" font-size="14" xml:space="preserve">20.0</text></g><g fill="#FFF" fill-opacity="0" stroke="#FFF" stroke-opacity="0" transform="translate(820,240)"><rect width="118.5" height="28.5" x=".5" y=".5" stroke="none" clip-path="url(#clipPath5)"/></g><g transform="translate(820,240)"><rect width="118.5" height="28.5" x=".5" y=".5" fill="none" clip-path="url(#clipPath5)"/><text x="45" y="18.109" stroke="none" clip-path="url(#clipPath5)" font-family="sans-serif" font-size="14" xml:space="preserve">≥20</text></g><g fill="#FFF" fill-opacity="0" stroke="#FFF" stroke-opacity="0" transform="translate(940,240)"><rect width="158.5" height="28.5" x=".5" y=".5" stroke="none" clip-path="url(#clipPath6)"/></g><g transform="translate(940,240)"><rect width="158.5" height="28.5" x=".5" y=".5" fill="none" clip-path="url(#clipPath6)"/><text x="73" y="18.109" stroke="none" clip-path="url(#clipPath6)" font-family="sans-serif" font-size="14" xml:space="preserve">...</text></g><g fill="#FFF" fill-opacity="0" stroke="#FFF" stroke-opacity="0" transform="translate(1360,170)"><circle cx="30.5" cy="7.5" r="7" stroke="none" clip-path="url(#clipPath11)"/></g><g transform="translate(1360,170)"><circle cx="30.5" cy="7.5" r="7" fill="none" clip-path="url(#clipPath11)"/><path fill="none" d="M9.5 21.5 L51.5 21.5" clip-path="url(#clipPath11)"/><path fill="none" d="M30.5 14.5 L30.5 42.5" clip-path="url(#clipPath11)"/><path fill="none" d="M30.5 42.5 L16.5 70.5" clip-path="url(#clipPath11)"/><path fill="none" d="M30.5 42.5 L44.5 70.5" clip-path="url(#clipPath11)"/><text x="10" y="93.109" stroke="none" clip-path="url(#clipPath11)" font-family="sans-serif" font-size="14" xml:space="preserve">Omar</text></g><g fill="#FFF" fill-opacity="0" stroke="#FFF" stroke-opacity="0" transform="translate(940,210)"><rect width="158.5" height="28.5" x=".5" y=".5" stroke="none" clip-path="url(#clipPath6)"/></g><g transform="translate(940,210)"><rect width="158.5" height="28.5" x=".5" y=".5" fill="none" clip-path="url(#clipPath6)"/><text x="59" y="18.109" stroke="none" clip-path="url(#clipPath6)" font-family="sans-serif" font-size="14" xml:space="preserve">David</text></g><g fill="#FFF" fill-opacity="0" stroke="#FFF" stroke-opacity="0" transform="translate(940,180)"><rect width="158.5" height="28.5" x=".5" y=".5" stroke="none" clip-path="url(#clipPath6)"/></g><g transform="translate(940,180)"><rect width="158.5" height="28.5" x=".5" y=".5" fill="none" clip-path="url(#clipPath6)"/><text x="60" y="18.109" stroke="none" clip-path="url(#clipPath6)" font-family="sans-serif" font-size="14" xml:space="preserve">Omar</text></g><g fill="#FFF" fill-opacity="0" stroke="#FFF" stroke-opacity="0" transform="translate(940,150)"><rect width="158.5" height="28.5" x=".5" y=".5" stroke="none" clip-path="url(#clipPath6)"/></g><g transform="translate(940,150)"><rect width="158.5" height="28.5" x=".5" y=".5" fill="none" clip-path="url(#clipPath6)"/><text x="63" y="18.109" stroke="none" clip-path="url(#clipPath6)" font-family="sans-serif" font-size="14" xml:space="preserve">Brad</text></g><g fill="#FFF" fill-opacity="0" stroke="#FFF" stroke-opacity="0" transform="translate(940,120)"><rect width="158.5" height="28.5" x=".5" y=".5" stroke="none" clip-path="url(#clipPath6)"/></g><g transform="translate(940,120)"><rect width="158.5" height="28.5" x=".5" y=".5" fill="none" clip-path="url(#clipPath6)"/><text x="64" y="18.109" stroke="none" clip-path="url(#clipPath6)" font-family="sans-serif" font-size="14" xml:space="preserve">Amy</text></g><g fill="#FFF" fill-opacity="0" stroke="#FFF" stroke-opacity="0" transform="translate(1300,220)"><circle cx="30.5" cy="7.5" r="7" stroke="none" clip-path="url(#clipPath11)"/></g><g transform="translate(1300,220)"><circle cx="30.5" cy="7.5" r="7" fill="none" clip-path="url(#clipPath11)"/><path fill="none" d="M9.5 21.5 L51.5 21.5" clip-path="url(#clipPath11)"/><path fill="none" d="M30.5 14.5 L30.5 42.5" clip-path="url(#clipPath11)"/><path fill="none" d="M30.5 42.5 L16.5 70.5" clip-path="url(#clipPath11)"/><path fill="none" d="M30.5 42.5 L44.5 70.5" clip-path="url(#clipPath11)"/><text x="9" y="93.109" stroke="none" clip-path="url(#clipPath11)" font-family="sans-serif" font-size="14" xml:space="preserve">David</text></g><g fill="#FFF" fill-opacity="0" stroke="#FFF" stroke-opacity="0" transform="translate(1350,60)"><circle cx="30.5" cy="7.5" r="7" stroke="none" clip-path="url(#clipPath11)"/></g><g transform="translate(1350,60)"><circle cx="30.5" cy="7.5" r="7" fill="none" clip-path="url(#clipPath11)"/><path fill="none" d="M9.5 21.5 L51.5 21.5" clip-path="url(#clipPath11)"/><path fill="none" d="M30.5 14.5 L30.5 42.5" clip-path="url(#clipPath11)"/><path fill="none" d="M30.5 42.5 L16.5 70.5" clip-path="url(#clipPath11)"/><path fill="none" d="M30.5 42.5 L44.5 70.5" clip-path="url(#clipPath11)"/><text x="14" y="93.109" stroke="none" clip-path="url(#clipPath11)" font-family="sans-serif" font-size="14" xml:space="preserve">Amy</text></g><g fill="#FFF" fill-opacity="0" stroke="#FFF" stroke-opacity="0" transform="translate(1290,110)"><circle cx="30.5" cy="7.5" r="7" stroke="none" clip-path="url(#clipPath11)"/></g><g transform="translate(1290,110)"><circle cx="30.5" cy="7.5" r="7" fill="none" clip-path="url(#clipPath11)"/><path fill="none" d="M9.5 21.5 L51.5 21.5" clip-path="url(#clipPath11)"/><path fill="none" d="M30.5 14.5 L30.5 42.5" clip-path="url(#clipPath11)"/><path fill="none" d="M30.5 42.5 L16.5 70.5" clip-path="url(#clipPath11)"/><path fill="none" d="M30.5 42.5 L44.5 70.5" clip-path="url(#clipPath11)"/><text x="13" y="93.109" stroke="none" clip-path="url(#clipPath11)" font-family="sans-serif" font-size="14" xml:space="preserve">Brad</text></g><g font-family="sans-serif" font-size="14"><text x="5" y="18.109" stroke="none" clip-path="url(#clipPath7)" transform="translate(990,90)" xml:space="preserve">所有者</text></g><g font-family="sans-serif" font-size="14"><text x="15" y="18.109" stroke="none" clip-path="url(#clipPath8)" transform="translate(680,90)" xml:space="preserve">数量</text></g><g fill="#FFF" fill-opacity="0" stroke="#FFF" stroke-opacity="0" transform="translate(610,60)"><rect width="488.5" height="208.5" x=".5" y=".5" stroke="none" clip-path="url(#clipPath12)"/></g><g transform="translate(610,60)"><rect width="488.5" height="208.5" x=".5" y=".5" fill="none" clip-path="url(#clipPath12)"/><text x="135" y="18.109" stroke="none" clip-path="url(#clipPath12)" font-family="sans-serif" font-size="14" xml:space="preserve">オーダーブック: XRP:FOO.WayGate</text><path fill="none" d="M1 24.1094 L489 24.1094" clip-path="url(#clipPath12)"/></g><g font-family="sans-serif" font-size="14"><text x="5" y="18.109" stroke="none" clip-path="url(#clipPath13)" transform="translate(210,500)" xml:space="preserve">Tranのオファーの残りは、</text><text x="5" y="34.219" stroke="none" clip-path="url(#clipPath13)" transform="translate(210,500)" xml:space="preserve">元の取引レートで</text><text x="5" y="50.328" stroke="none" clip-path="url(#clipPath13)" transform="translate(210,500)" xml:space="preserve">反対側のオーダーブックに</text><text x="5" y="66.438" stroke="none" clip-path="url(#clipPath13)" transform="translate(210,500)" xml:space="preserve">追加されます。</text></g><g font-family="sans-serif" font-size="14"><text x="5" y="18.109" stroke="none" clip-path="url(#clipPath14)" transform="translate(300,300)" xml:space="preserve">Tranは他の</text><text x="5" y="34.219" stroke="none" clip-path="url(#clipPath14)" transform="translate(300,300)" xml:space="preserve">トレーダーから合計</text><text x="5" y="50.328" stroke="none" clip-path="url(#clipPath14)" transform="translate(300,300)" xml:space="preserve">22のFOO.WayGate</text><text x="5" y="66.438" stroke="none" clip-path="url(#clipPath14)" transform="translate(300,300)" xml:space="preserve">を受け取ります。</text></g><g fill="#FFF" fill-opacity="0" stroke="#FFF" stroke-opacity="0" transform="translate(60,340)"><circle cx="30.5" cy="7.5" r="7" stroke="none" clip-path="url(#clipPath11)"/></g><g transform="translate(60,340)"><circle cx="30.5" cy="7.5" r="7" fill="none" clip-path="url(#clipPath11)"/><path fill="none" d="M9.5 21.5 L51.5 21.5" clip-path="url(#clipPath11)"/><path fill="none" d="M30.5 14.5 L30.5 42.5" clip-path="url(#clipPath11)"/><path fill="none" d="M30.5 42.5 L16.5 70.5" clip-path="url(#clipPath11)"/><path fill="none" d="M30.5 42.5 L44.5 70.5" clip-path="url(#clipPath11)"/><text x="14" y="93.109" stroke="none" clip-path="url(#clipPath11)" font-family="sans-serif" font-size="14" xml:space="preserve">Tran</text></g><g fill="#FFF" fill-opacity="0" stroke="#FFF" stroke-opacity="0" transform="translate(40,110)"><circle cx="30.5" cy="7.5" r="7" stroke="none" clip-path="url(#clipPath11)"/></g><g transform="translate(40,110)"><circle cx="30.5" cy="7.5" r="7" fill="none" clip-path="url(#clipPath11)"/><path fill="none" d="M9.5 21.5 L51.5 21.5" clip-path="url(#clipPath11)"/><path fill="none" d="M30.5 14.5 L30.5 42.5" clip-path="url(#clipPath11)"/><path fill="none" d="M30.5 42.5 L16.5 70.5" clip-path="url(#clipPath11)"/><path fill="none" d="M30.5 42.5 L44.5 70.5" clip-path="url(#clipPath11)"/><text x="14" y="93.109" stroke="none" clip-path="url(#clipPath11)" font-family="sans-serif" font-size="14" xml:space="preserve">Tran</text></g><g font-family="sans-serif" font-size="14"><text x="20" y="18.109" stroke="none" clip-path="url(#clipPath5)" transform="translate(820,90)" xml:space="preserve">取引レート</text></g><g font-family="sans-serif" font-size="14"><text x="44" y="18.109" stroke="none" clip-path="url(#clipPath15)" transform="translate(460,120)" xml:space="preserve">取引レートが</text><text x="29" y="34.219" stroke="none" clip-path="url(#clipPath15)" transform="translate(460,120)" xml:space="preserve">同等またはそれ</text><text x="25" y="50.328" stroke="none" clip-path="url(#clipPath15)" transform="translate(460,120)" xml:space="preserve">以上であるため、</text><text x="18" y="66.438" stroke="none" clip-path="url(#clipPath15)" transform="translate(460,120)" xml:space="preserve">これらのオファー</text><text x="40" y="82.547" stroke="none" clip-path="url(#clipPath15)" transform="translate(460,120)" xml:space="preserve">が約定します。</text></g><g fill="#FFF" fill-opacity="0" stroke="#FFF" stroke-opacity="0" transform="translate(610,240)"><rect width="208.5" height="28.5" x=".5" y=".5" stroke="none" clip-path="url(#clipPath4)"/></g><g transform="translate(610,240)"><rect width="208.5" height="28.5" x=".5" y=".5" fill="none" clip-path="url(#clipPath4)"/><text x="98" y="18.109" stroke="none" clip-path="url(#clipPath4)" font-family="sans-serif" font-size="14" xml:space="preserve">...</text></g><g fill="#FFF" fill-opacity="0" stroke="#FFF" stroke-opacity="0" transform="translate(610,180)"><rect width="208.5" height="28.5" x=".5" y=".5" stroke="none" clip-path="url(#clipPath4)"/></g><g transform="translate(610,180)"><rect width="208.5" height="28.5" x=".5" y=".5" fill="none" clip-path="url(#clipPath4)"/><text x="44" y="18.109" stroke="none" clip-path="url(#clipPath4)" font-family="sans-serif" font-size="14" xml:space="preserve">20 XRP / 5 FOO</text></g><g fill="#FFF" fill-opacity="0" stroke="#FFF" stroke-opacity="0" transform="translate(610,210)"><rect width="208.5" height="28.5" x=".5" y=".5" stroke="none" clip-path="url(#clipPath4)"/></g><g transform="translate(610,210)"><rect width="208.5" height="28.5" x=".5" y=".5" fill="none" clip-path="url(#clipPath4)"/><text x="17" y="18.109" stroke="none" clip-path="url(#clipPath4)" font-family="sans-serif" font-size="14" xml:space="preserve">20000 XRP / 1000 FOO</text></g><g fill="#FFF" fill-opacity="0" stroke="#FFF" stroke-opacity="0" transform="translate(610,150)"><rect width="208.5" height="28.5" x=".5" y=".5" stroke="none" clip-path="url(#clipPath4)"/></g><g transform="translate(610,150)"><rect width="208.5" height="28.5" x=".5" y=".5" fill="none" clip-path="url(#clipPath4)"/><text x="39" y="18.109" stroke="none" clip-path="url(#clipPath4)" font-family="sans-serif" font-size="14" xml:space="preserve">10 XRP / 15 FOO</text></g><g fill="#FFF" fill-opacity="0" stroke="#FFF" stroke-opacity="0" transform="translate(610,120)"><rect width="208.5" height="28.5" x=".5" y=".5" stroke="none" clip-path="url(#clipPath4)"/></g><g transform="translate(610,120)"><rect width="208.5" height="28.5" x=".5" y=".5" fill="none" clip-path="url(#clipPath4)"/><text x="48" y="18.109" stroke="none" clip-path="url(#clipPath4)" font-family="sans-serif" font-size="14" xml:space="preserve">1 XRP / 2 FOO</text></g><g fill="#FFF" fill-opacity="0" stroke="#FFF" stroke-opacity="0" transform="translate(140,110)"><rect width="218.5" height="118.5" x=".5" y=".5" stroke="none" clip-path="url(#clipPath16)"/></g><g transform="translate(140,110)"><rect width="218.5" height="118.5" x=".5" y=".5" fill="none" clip-path="url(#clipPath16)"/><text x="92" y="18.109" stroke="none" clip-path="url(#clipPath16)" font-family="sans-serif" font-size="14" xml:space="preserve">オファー</text><path fill="none" d="M1 24.1094 L219 24.1094" clip-path="url(#clipPath16)"/><text x="5" y="39.219" stroke="none" clip-path="url(#clipPath16)" font-family="sans-serif" font-size="14" xml:space="preserve">購入: 100 FOO.WayGate</text><text x="5" y="55.328" stroke="none" clip-path="url(#clipPath16)" font-family="sans-serif" font-size="14" xml:space="preserve">利用: 1000 XRP</text></g><g stroke-dasharray="1 2" stroke-linecap="butt" stroke-miterlimit="5" font-family="sans-serif" font-size="14"><path fill="none" d="M1 77.4375 L219 77.4375" clip-path="url(#clipPath16)" transform="translate(140,110)"/><text x="5" y="92.547" stroke="none" clip-path="url(#clipPath16)" transform="translate(140,110)" xml:space="preserve">(取引レート:</text><text x="5" y="108.656" stroke="none" clip-path="url(#clipPath16)" transform="translate(140,110)" xml:space="preserve">10.0 XRP/FOO.WayGate)</text></g><g><path fill="none" d="M10.5 10.5 L449.5471 150.1968" clip-path="url(#clipPath17)" transform="translate(130,410)"/><path stroke="none" d="M437.3244 153.1288 L450.0235 150.3484 L441.266 140.7408 Z" clip-path="url(#clipPath17)" transform="translate(130,410)"/><path fill="none" d="M437.3244 153.1288 L450.0235 150.3484 L441.266 140.7408 Z" clip-path="url(#clipPath17)" transform="translate(130,410)"/></g><g><path fill="none" d="M10.5 10.5 L159.5 10.5" clip-path="url(#clipPath18)" transform="translate(1110,160)"/><path stroke="none" d="M148.7417 17 L160 10.5 L148.7417 4 Z" clip-path="url(#clipPath18)" transform="translate(1110,160)"/><path fill="none" d="M148.7417 17 L160 10.5 L148.7417 4 Z" clip-path="url(#clipPath18)" transform="translate(1110,160)"/></g><g><path fill="none" d="M10.5 10.5 L10.5 79.5" clip-path="url(#clipPath19)" transform="translate(710,270)"/><path stroke="none" d="M4 68.7417 L10.5 80 L17 68.7417 Z" clip-path="url(#clipPath19)" transform="translate(710,270)"/><path fill="none" d="M4 68.7417 L10.5 80 L17 68.7417 Z" clip-path="url(#clipPath19)" transform="translate(710,270)"/></g><g><path fill="none" d="M390.5 10.5 L11.4037 190.0719" clip-path="url(#clipPath20)" transform="translate(110,190)"/><path stroke="none" d="M18.3439 179.5921 L10.9519 190.2859 L23.909 191.3407 Z" clip-path="url(#clipPath20)" transform="translate(110,190)"/><path fill="none" d="M18.3439 179.5921 L10.9519 190.2859 L23.909 191.3407 Z" clip-path="url(#clipPath20)" transform="translate(110,190)"/></g><g><path fill="none" d="M10.5 10.5 L59.5 10.5" clip-path="url(#clipPath8)" transform="translate(70,130)"/><path stroke="none" d="M48.7417 17 L60 10.5 L48.7417 4 Z" clip-path="url(#clipPath8)" transform="translate(70,130)"/><path fill="none" d="M48.7417 17 L60 10.5 L48.7417 4 Z" clip-path="url(#clipPath8)" transform="translate(70,130)"/></g><g><path fill="none" d="M10.5 10.5 L89.5 10.5" clip-path="url(#clipPath21)" transform="translate(360,150)"/><path stroke="none" d="M78.7417 17 L90 10.5 L78.7417 4 Z" clip-path="url(#clipPath21)" transform="translate(360,150)"/><path fill="none" d="M78.7417 17 L90 10.5 L78.7417 4 Z" clip-path="url(#clipPath21)" transform="translate(360,150)"/></g><g stroke-dasharray="1 2" stroke-linecap="butt" stroke-miterlimit="5"><path fill="none" d="M20.5 100.5 L10.5 100.5" clip-path="url(#clipPath22)" transform="translate(580,110)"/><path fill="none" d="M10.5 100.5 L10.5 10.5" clip-path="url(#clipPath22)" transform="translate(580,110)"/><path fill="none" d="M10.5 10.5 L20.5 10.5" clip-path="url(#clipPath22)" transform="translate(580,110)"/></g></g></svg>