<svg xmlns="http://www.w3.org/2000/svg" xmlns:xlink="http://www.w3.org/1999/xlink" width="940" height="730" fill="#000" fill-opacity="1" stroke="#000" stroke-dasharray="none" stroke-dashoffset="0" stroke-linecap="square" stroke-linejoin="miter" stroke-miterlimit="10" stroke-opacity="1" stroke-width="1" color-interpolation="auto" color-rendering="auto" font-family="'Dialog'" font-size="12" font-style="normal" font-weight="normal" image-rendering="auto" shape-rendering="auto" text-rendering="auto" viewBox="30 20 940 730"><g><defs id="defs1"><clipPath id="clipPath1" clipPathUnits="userSpaceOnUse"><path d="M0 0 L2147483647 0 L2147483647 2147483647 L0 2147483647 L0 0 Z"/></clipPath><clipPath id="clipPath2" clipPathUnits="userSpaceOnUse"><path d="M0 0 L0 50 L210 50 L210 0 Z"/></clipPath><clipPath id="clipPath3" clipPathUnits="userSpaceOnUse"><path d="M0 0 L0 70 L150 70 L150 0 Z"/></clipPath><clipPath id="clipPath4" clipPathUnits="userSpaceOnUse"><path d="M0 0 L0 40 L160 40 L160 0 Z"/></clipPath><clipPath id="clipPath5" clipPathUnits="userSpaceOnUse"><path d="M0 0 L0 40 L140 40 L140 0 Z"/></clipPath><clipPath id="clipPath6" clipPathUnits="userSpaceOnUse"><path d="M0 0 L0 80 L150 80 L150 0 Z"/></clipPath><clipPath id="clipPath7" clipPathUnits="userSpaceOnUse"><path d="M0 0 L0 80 L20 80 L20 0 Z"/></clipPath><clipPath id="clipPath8" clipPathUnits="userSpaceOnUse"><path d="M0 0 L0 70 L110 70 L110 0 Z"/></clipPath><clipPath id="clipPath9" clipPathUnits="userSpaceOnUse"><path d="M0 0 L0 70 L20 70 L20 0 Z"/></clipPath><clipPath id="clipPath10" clipPathUnits="userSpaceOnUse"><path d="M0 0 L0 70 L140 70 L140 0 Z"/></clipPath><clipPath id="clipPath11" clipPathUnits="userSpaceOnUse"><path d="M0 0 L0 70 L180 70 L180 0 Z"/></clipPath><clipPath id="clipPath12" clipPathUnits="userSpaceOnUse"><path d="M0 0 L0 270 L80 270 L80 0 Z"/></clipPath><clipPath id="clipPath13" clipPathUnits="userSpaceOnUse"><path d="M0 0 L0 50 L130 50 L130 0 Z"/></clipPath><clipPath id="clipPath14" clipPathUnits="userSpaceOnUse"><path d="M0 0 L0 60 L410 60 L410 0 Z"/></clipPath><clipPath id="clipPath15" clipPathUnits="userSpaceOnUse"><path d="M0 0 L0 380 L410 380 L410 0 Z"/></clipPath><clipPath id="clipPath16" clipPathUnits="userSpaceOnUse"><path d="M0 0 L0 30 L50 30 L50 0 Z"/></clipPath><clipPath id="clipPath17" clipPathUnits="userSpaceOnUse"><path d="M0 0 L0 410 L120 410 L120 0 Z"/></clipPath><clipPath id="clipPath18" clipPathUnits="userSpaceOnUse"><path d="M0 0 L0 80 L70 80 L70 0 Z"/></clipPath><clipPath id="clipPath19" clipPathUnits="userSpaceOnUse"><path d="M0 0 L0 280 L210 280 L210 0 Z"/></clipPath><clipPath id="clipPath20" clipPathUnits="userSpaceOnUse"><path d="M0 0 L0 70 L210 70 L210 0 Z"/></clipPath><clipPath id="clipPath21" clipPathUnits="userSpaceOnUse"><path d="M0 0 L0 70 L60 70 L60 0 Z"/></clipPath><clipPath id="clipPath22" clipPathUnits="userSpaceOnUse"><path d="M0 0 L0 30 L60 30 L60 0 Z"/></clipPath><clipPath id="clipPath23" clipPathUnits="userSpaceOnUse"><path d="M0 0 L0 80 L60 80 L60 0 Z"/></clipPath><clipPath id="clipPath24" clipPathUnits="userSpaceOnUse"><path d="M0 0 L0 220 L410 220 L410 0 Z"/></clipPath><clipPath id="clipPath25" clipPathUnits="userSpaceOnUse"><path d="M0 0 L0 50 L160 50 L160 0 Z"/></clipPath><clipPath id="clipPath26" clipPathUnits="userSpaceOnUse"><path d="M0 0 L0 170 L460 170 L460 0 Z"/></clipPath><clipPath id="clipPath27" clipPathUnits="userSpaceOnUse"><path d="M0 0 L0 50 L180 50 L180 0 Z"/></clipPath></defs><g fill="#0f0" stroke="#0f0"><path stroke="none" d="M0.5 0.5 L198.5 0.5 L209 12.5 L209 49 L0.5 49 Z" clip-path="url(#clipPath2)" transform="translate(630,600)"/><path fill="none" stroke="#000" d="M0.5 0.5 L198.5 0.5 L209 12.5 L209 49 L0.5 49 Z" clip-path="url(#clipPath2)" transform="translate(630,600)"/><path fill="none" stroke="#000" d="M198.5 0.5 L198.5 12.5 L209 12.5" clip-path="url(#clipPath2)" transform="translate(630,600)"/></g><g font-family="sans-serif" font-size="14"><text x="5" y="18.109" stroke="none" clip-path="url(#clipPath2)" transform="translate(630,600)" xml:space="preserve">アカウントは</text><text x="5" y="34.219" stroke="none" clip-path="url(#clipPath2)" transform="translate(630,600)" xml:space="preserve">マスターキーペアを利用</text></g><g fill="#0f0" stroke="#0f0"><path stroke="none" d="M0.5 0.5 L198.5 0.5 L209 12.5 L209 49 L0.5 49 Z" clip-path="url(#clipPath2)" transform="translate(590,200)"/><path fill="none" stroke="#000" d="M0.5 0.5 L198.5 0.5 L209 12.5 L209 49 L0.5 49 Z" clip-path="url(#clipPath2)" transform="translate(590,200)"/><path fill="none" stroke="#000" d="M198.5 0.5 L198.5 12.5 L209 12.5" clip-path="url(#clipPath2)" transform="translate(590,200)"/></g><g font-family="sans-serif" font-size="14"><text x="5" y="18.109" stroke="none" clip-path="url(#clipPath2)" transform="translate(590,200)" xml:space="preserve">バリデータは</text><text x="5" y="34.219" stroke="none" clip-path="url(#clipPath2)" transform="translate(590,200)" xml:space="preserve">ルートキーペアを利用</text></g><g fill="#FFF" fill-opacity="0" stroke="#FFF" stroke-opacity="0" transform="translate(330,660)"><rect width="148.5" height="68.5" x=".5" y=".5" stroke="none" clip-path="url(#clipPath3)"/></g><g transform="translate(330,660)"><rect width="148.5" height="68.5" x=".5" y=".5" fill="none" clip-path="url(#clipPath3)"/><text x="25" y="29.5" stroke="none" clip-path="url(#clipPath3)" font-family="sans-serif" font-size="14" xml:space="preserve">マスター秘密鍵</text><path fill="none" d="M1 35.5 L149 35.5" clip-path="url(#clipPath3)"/><text x="45" y="50.609" stroke="none" clip-path="url(#clipPath3)" font-family="sans-serif" font-size="14" xml:space="preserve">(32バイト)</text></g><g fill="#FFF" fill-opacity="0" stroke="#FFF" stroke-opacity="0"><path stroke="none" d="M0.5 0.5 L128.5 0.5 L159 20.5 L128.5 39 L0.5 39 Z" clip-path="url(#clipPath4)" transform="translate(150,670)"/></g><g><path fill="none" d="M0.5 0.5 L128.5 0.5 L159 20.5 L128.5 39 L0.5 39 Z" clip-path="url(#clipPath4)" transform="translate(150,670)"/><text x="36" y="17" stroke="none" clip-path="url(#clipPath4)" font-family="sans-serif" font-size="14" transform="translate(150,670)" xml:space="preserve">加算・剰余</text><text x="20" y="33.109" stroke="none" clip-path="url(#clipPath4)" font-family="sans-serif" font-size="14" transform="translate(150,670)" xml:space="preserve">グループオーダー</text></g><g fill="#FFF" fill-opacity="0" stroke="#FFF" stroke-opacity="0" transform="translate(800,290)"><rect width="148.5" height="68.5" x=".5" y=".5" stroke="none" clip-path="url(#clipPath3)"/></g><g transform="translate(800,290)"><rect width="148.5" height="68.5" x=".5" y=".5" fill="none" clip-path="url(#clipPath3)"/><text x="30" y="21.445" stroke="none" clip-path="url(#clipPath3)" font-family="sans-serif" font-size="14" xml:space="preserve">マスター公開鍵</text><path fill="none" d="M1 27.4453 L149 27.4453" clip-path="url(#clipPath3)"/><text x="31" y="42.555" stroke="none" clip-path="url(#clipPath3)" font-family="sans-serif" font-size="14" xml:space="preserve">(33バイト圧縮)</text></g><g fill="#FFF" fill-opacity="0" stroke="#FFF" stroke-opacity="0"><path stroke="none" d="M0.5 0.5 L112.5 0.5 L139 20.5 L112.5 39 L0.5 39 Z" clip-path="url(#clipPath5)" transform="translate(660,300)"/></g><g><path fill="none" d="M0.5 0.5 L112.5 0.5 L139 20.5 L112.5 39 L0.5 39 Z" clip-path="url(#clipPath5)" transform="translate(660,300)"/><text x="35" y="17" stroke="none" clip-path="url(#clipPath5)" font-family="sans-serif" font-size="14" transform="translate(660,300)" xml:space="preserve">楕円曲線</text><text x="16" y="33.109" stroke="none" clip-path="url(#clipPath5)" font-family="sans-serif" font-size="14" transform="translate(660,300)" xml:space="preserve">ポイントの追加</text></g><g fill="#FFF" fill-opacity="0" stroke="#FFF" stroke-opacity="0" transform="translate(330,550)"><rect width="148.5" height="78.5" x=".5" y=".5" stroke="none" clip-path="url(#clipPath6)"/></g><g transform="translate(330,550)"><rect width="148.5" height="78.5" x=".5" y=".5" fill="none" clip-path="url(#clipPath6)"/><text x="61" y="18.391" stroke="none" clip-path="url(#clipPath6)" font-family="sans-serif" font-size="14" xml:space="preserve">中間</text><text x="52" y="34.5" stroke="none" clip-path="url(#clipPath6)" font-family="sans-serif" font-size="14" xml:space="preserve">公開鍵</text><path fill="none" d="M1 40.5 L149 40.5" clip-path="url(#clipPath6)"/><text x="25" y="55.609" stroke="none" clip-path="url(#clipPath6)" font-family="sans-serif" font-size="14" xml:space="preserve">(33バイト圧縮)</text></g><g fill="#FFF" fill-opacity="0" stroke="#FFF" stroke-opacity="0" transform="translate(80,550)"><rect width="148.5" height="78.5" x=".5" y=".5" stroke="none" clip-path="url(#clipPath6)"/></g><g transform="translate(80,550)"><rect width="148.5" height="78.5" x=".5" y=".5" fill="none" clip-path="url(#clipPath6)"/><text x="61" y="18.391" stroke="none" clip-path="url(#clipPath6)" font-family="sans-serif" font-size="14" xml:space="preserve">中間</text><text x="52" y="34.5" stroke="none" clip-path="url(#clipPath6)" font-family="sans-serif" font-size="14" xml:space="preserve">秘密鍵</text><path fill="none" d="M1 40.5 L149 40.5" clip-path="url(#clipPath6)"/><text x="39" y="55.609" stroke="none" clip-path="url(#clipPath6)" font-family="sans-serif" font-size="14" xml:space="preserve">(32バイト)</text></g><g stroke-width="5"><path fill="none" d="M10.5 0.5 L10.5 79" clip-path="url(#clipPath7)" transform="translate(500,330)"/></g><g fill="#ff0" stroke="#ff0"><path stroke="none" d="M0.5 0.5 L198.5 0.5 L209 12.5 L209 49 L0.5 49 Z" clip-path="url(#clipPath2)" transform="translate(150,430)"/><path fill="none" stroke="#000" d="M0.5 0.5 L198.5 0.5 L209 12.5 L209 49 L0.5 49 Z" clip-path="url(#clipPath2)" transform="translate(150,430)"/><path fill="none" stroke="#000" d="M198.5 0.5 L198.5 12.5 L209 12.5" clip-path="url(#clipPath2)" transform="translate(150,430)"/></g><g font-family="sans-serif" font-size="10"><text x="5" y="14.375" stroke="none" clip-path="url(#clipPath2)" transform="translate(150,430)" xml:space="preserve">SHA-512Halfで有効な秘密鍵が</text><text x="5" y="26.75" stroke="none" clip-path="url(#clipPath2)" transform="translate(150,430)" xml:space="preserve">作成されない場合は、キーシーケンスを</text><text x="5" y="39.125" stroke="none" clip-path="url(#clipPath2)" transform="translate(150,430)" xml:space="preserve">増やして再試行してください。</text></g><g fill="#ff0" stroke="#ff0"><path stroke="none" d="M0.5 0.5 L198.5 0.5 L209 12.5 L209 49 L0.5 49 Z" clip-path="url(#clipPath2)" transform="translate(140,140)"/><path fill="none" stroke="#000" d="M0.5 0.5 L198.5 0.5 L209 12.5 L209 49 L0.5 49 Z" clip-path="url(#clipPath2)" transform="translate(140,140)"/><path fill="none" stroke="#000" d="M198.5 0.5 L198.5 12.5 L209 12.5" clip-path="url(#clipPath2)" transform="translate(140,140)"/></g><g font-family="sans-serif" font-size="10"><text x="5" y="14.375" stroke="none" clip-path="url(#clipPath2)" transform="translate(140,140)" xml:space="preserve">SHA-512Halfで有効な秘密鍵が</text><text x="5" y="26.75" stroke="none" clip-path="url(#clipPath2)" transform="translate(140,140)" xml:space="preserve">作成されない場合は、キーシーケンスを</text><text x="5" y="39.125" stroke="none" clip-path="url(#clipPath2)" transform="translate(140,140)" xml:space="preserve">増やして再試行してください。</text></g><g fill="#FFF" fill-opacity="0" stroke="#FFF" stroke-opacity="0" transform="translate(370,330)"><rect width="108.5" height="68.5" x=".5" y=".5" stroke="none" clip-path="url(#clipPath8)"/></g><g transform="translate(370,330)"><rect width="108.5" height="68.5" x=".5" y=".5" fill="none" clip-path="url(#clipPath8)"/><text x="21" y="13.391" stroke="none" clip-path="url(#clipPath8)" font-family="sans-serif" font-size="14" xml:space="preserve">ファミリー</text><text x="40" y="29.5" stroke="none" clip-path="url(#clipPath8)" font-family="sans-serif" font-size="14" xml:space="preserve">番号</text><path fill="none" d="M1 35.5 L109 35.5" clip-path="url(#clipPath8)"/><text x="23" y="50.609" stroke="none" clip-path="url(#clipPath8)" font-family="sans-serif" font-size="14" xml:space="preserve">(4バイト:</text><text x="31" y="66.719" stroke="none" clip-path="url(#clipPath8)" font-family="sans-serif" font-size="14" xml:space="preserve">全て0)</text></g><g fill="#FFF" fill-opacity="0" stroke="#FFF" stroke-opacity="0" transform="translate(370,410)"><rect width="108.5" height="68.5" x=".5" y=".5" stroke="none" clip-path="url(#clipPath8)"/></g><g transform="translate(370,410)"><rect width="108.5" height="68.5" x=".5" y=".5" fill="none" clip-path="url(#clipPath8)"/><text x="35" y="13.391" stroke="none" clip-path="url(#clipPath8)" font-family="sans-serif" font-size="14" xml:space="preserve">整数鍵</text><text x="20" y="29.5" stroke="none" clip-path="url(#clipPath8)" font-family="sans-serif" font-size="14" xml:space="preserve">シーケンス</text><path fill="none" d="M1 35.5 L109 35.5" clip-path="url(#clipPath8)"/><text x="23" y="50.609" stroke="none" clip-path="url(#clipPath8)" font-family="sans-serif" font-size="14" xml:space="preserve">(4バイト:</text><text x="15" y="66.719" stroke="none" clip-path="url(#clipPath8)" font-family="sans-serif" font-size="14" xml:space="preserve">デフォルト0)</text></g><g fill="#FFF" fill-opacity="0" stroke="#FFF" stroke-opacity="0" transform="translate(370,120)"><rect width="108.5" height="68.5" x=".5" y=".5" stroke="none" clip-path="url(#clipPath8)"/></g><g transform="translate(370,120)"><rect width="108.5" height="68.5" x=".5" y=".5" fill="none" clip-path="url(#clipPath8)"/><text x="28" y="13.391" stroke="none" clip-path="url(#clipPath8)" font-family="sans-serif" font-size="14" xml:space="preserve">ルート鍵</text><text x="20" y="29.5" stroke="none" clip-path="url(#clipPath8)" font-family="sans-serif" font-size="14" xml:space="preserve">シーケンス</text><path fill="none" d="M1 35.5 L109 35.5" clip-path="url(#clipPath8)"/><text x="23" y="50.609" stroke="none" clip-path="url(#clipPath8)" font-family="sans-serif" font-size="14" xml:space="preserve">(4バイト:</text><text x="15" y="66.719" stroke="none" clip-path="url(#clipPath8)" font-family="sans-serif" font-size="14" xml:space="preserve">デフォルト0)</text></g><g stroke-width="5"><path fill="none" d="M10.5 0.5 L10.5 69" clip-path="url(#clipPath9)" transform="translate(500,80)"/></g><g fill="#FFF" fill-opacity="0" stroke="#FFF" stroke-opacity="0" transform="translate(330,250)"><rect width="148.5" height="68.5" x=".5" y=".5" stroke="none" clip-path="url(#clipPath3)"/></g><g transform="translate(330,250)"><rect width="148.5" height="68.5" x=".5" y=".5" fill="none" clip-path="url(#clipPath3)"/><text x="35" y="21.445" stroke="none" clip-path="url(#clipPath3)" font-family="sans-serif" font-size="14" xml:space="preserve">ルート公開鍵</text><path fill="none" d="M1 27.4453 L149 27.4453" clip-path="url(#clipPath3)"/><text x="28" y="42.555" stroke="none" clip-path="url(#clipPath3)" font-family="sans-serif" font-size="14" xml:space="preserve">(33バイト圧縮)</text></g><g fill="#FFF" fill-opacity="0" stroke="#FFF" stroke-opacity="0" transform="translate(50,250)"><rect width="148.5" height="68.5" x=".5" y=".5" stroke="none" clip-path="url(#clipPath3)"/></g><g transform="translate(50,250)"><rect width="148.5" height="68.5" x=".5" y=".5" fill="none" clip-path="url(#clipPath3)"/><text x="35" y="29.5" stroke="none" clip-path="url(#clipPath3)" font-family="sans-serif" font-size="14" xml:space="preserve">ルート秘密鍵</text><path fill="none" d="M1 35.5 L149 35.5" clip-path="url(#clipPath3)"/><text x="42" y="50.609" stroke="none" clip-path="url(#clipPath3)" font-family="sans-serif" font-size="14" xml:space="preserve">(32バイト)</text></g><g fill="#FFF" fill-opacity="0" stroke="#FFF" stroke-opacity="0" transform="translate(340,40)"><rect width="138.5" height="68.5" x=".5" y=".5" stroke="none" clip-path="url(#clipPath10)"/></g><g transform="translate(340,40)"><rect width="138.5" height="68.5" x=".5" y=".5" fill="none" clip-path="url(#clipPath10)"/><text x="52" y="29.5" stroke="none" clip-path="url(#clipPath10)" font-family="sans-serif" font-size="14" xml:space="preserve">シード</text><path fill="none" d="M1 35.5 L139 35.5" clip-path="url(#clipPath10)"/><text x="38" y="50.609" stroke="none" clip-path="url(#clipPath10)" font-family="sans-serif" font-size="14" xml:space="preserve">(16バイト)</text></g><g fill="#FFF" fill-opacity="0" stroke="#FFF" stroke-opacity="0" transform="translate(50,40)"><rect width="138.5" height="68.5" x=".5" y=".5" stroke="none" clip-path="url(#clipPath10)"/></g><g stroke-dasharray="8 5" stroke-linecap="butt" stroke-miterlimit="5" transform="translate(50,40)"><rect width="138.5" height="68.5" x=".5" y=".5" fill="none" clip-path="url(#clipPath10)"/><text x="30" y="21.445" stroke="none" clip-path="url(#clipPath10)" font-family="sans-serif" font-size="14" xml:space="preserve">パスフレーズ</text></g><g font-family="sans-serif" font-size="14"><path fill="none" d="M1 27.4453 L139 27.4453" clip-path="url(#clipPath10)" transform="translate(50,40)"/><text x="55" y="42.555" stroke="none" clip-path="url(#clipPath10)" transform="translate(50,40)" xml:space="preserve">(任意)</text><text x="30" y="58.664" stroke="none" clip-path="url(#clipPath10)" transform="translate(50,40)" xml:space="preserve">任意の文字列</text></g><g fill="#25A768" stroke="#25A768" stroke-dasharray="1 2" stroke-linecap="butt" stroke-miterlimit="5"><path fill="none" d="M11.4662 50.2423 L160.5 10.5" clip-path="url(#clipPath11)" transform="translate(470,630)"/><path fill="none" stroke-dasharray="none" stroke-linecap="square" stroke-miterlimit="10" d="M23.5361 53.7508 L10.9831 50.3712 L20.1865 41.1898" clip-path="url(#clipPath11)" transform="translate(470,630)"/></g><g fill="#25A768" stroke="#25A768" stroke-dasharray="1 2" stroke-linecap="butt" stroke-miterlimit="5"><path fill="none" d="M60.296 11.479 L10.5 250.5" clip-path="url(#clipPath12)" transform="translate(760,350)"/><path fill="none" stroke-dasharray="none" stroke-linecap="square" stroke-miterlimit="10" d="M51.7385 20.6855 L60.398 10.9895 L64.4652 23.3369" clip-path="url(#clipPath12)" transform="translate(760,350)"/></g><g fill="#25A768" stroke="#25A768" stroke-dasharray="1 2" stroke-linecap="butt" stroke-miterlimit="5"><path fill="none" d="M11.4806 30.3039 L110.5 10.5" clip-path="url(#clipPath13)" transform="translate(480,230)"/><path fill="none" stroke-dasharray="none" stroke-linecap="square" stroke-miterlimit="10" d="M23.3047 34.5678 L10.9903 30.4019 L20.7552 21.8202" clip-path="url(#clipPath13)" transform="translate(480,230)"/></g><g fill="#25A768" stroke="#25A768" stroke-dasharray="1 2" stroke-linecap="butt" stroke-miterlimit="5"><path fill="none" d="M11.4969 40.4213 L390.5 10.5" clip-path="url(#clipPath14)" transform="translate(200,210)"/><path fill="none" stroke-dasharray="none" stroke-linecap="square" stroke-miterlimit="10" d="M22.7334 46.0544 L10.9984 40.4606 L21.7103 33.0948" clip-path="url(#clipPath14)" transform="translate(200,210)"/></g><g stroke-dasharray="8 5" stroke-linecap="butt" stroke-miterlimit="5"><path fill="none" d="M10.5 350.5 L390.5 350.5" clip-path="url(#clipPath15)" transform="translate(470,350)"/><path fill="none" d="M390.5 350.5 L390.5 11.5" clip-path="url(#clipPath15)" transform="translate(470,350)"/><path fill="none" stroke-dasharray="none" stroke-linecap="square" stroke-miterlimit="10" d="M397 22.2583 L390.5 11 L384 22.2583" clip-path="url(#clipPath15)" transform="translate(470,350)"/></g><g font-family="sans-serif" font-size="14"><text x="125.257" y="346" stroke="none" clip-path="url(#clipPath15)" transform="translate(470,350)" xml:space="preserve">(公開鍵の導出は</text><text x="130" y="365" stroke="none" clip-path="url(#clipPath15)" transform="translate(470,350)" xml:space="preserve">同じ結果となる)</text></g><g><path fill="none" d="M29.5 10.5 L10.5 10.5" clip-path="url(#clipPath16)" transform="translate(300,680)"/><path fill="none" d="M18.7417 4 L30 10.5 L18.7417 17" clip-path="url(#clipPath16)" transform="translate(300,680)"/></g><g><path fill="none" d="M99.5 390.5 L10.5 390.5" clip-path="url(#clipPath17)" transform="translate(50,310)"/><path fill="none" d="M10.5 390.5 L10.5 10.5" clip-path="url(#clipPath17)" transform="translate(50,310)"/><path fill="none" d="M88.7417 384 L100 390.5 L88.7417 397" clip-path="url(#clipPath17)" transform="translate(50,310)"/></g><g><path fill="none" d="M49.5 60.5 L10.5 60.5" clip-path="url(#clipPath18)" transform="translate(100,620)"/><path fill="none" d="M10.5 60.5 L10.5 10.5" clip-path="url(#clipPath18)" transform="translate(100,620)"/><path fill="none" d="M38.7417 54 L50 60.5 L38.7417 67" clip-path="url(#clipPath18)" transform="translate(100,620)"/></g><g><path fill="none" d="M189.5 10.5 L150.5 10.5" clip-path="url(#clipPath19)" transform="translate(470,320)"/><path fill="none" d="M150.5 10.5 L150.5 260.5" clip-path="url(#clipPath19)" transform="translate(470,320)"/><path fill="none" d="M150.5 260.5 L10.5 260.5" clip-path="url(#clipPath19)" transform="translate(470,320)"/><path fill="none" d="M178.7417 4 L190 10.5 L178.7417 17" clip-path="url(#clipPath19)" transform="translate(470,320)"/></g><g><path fill="none" d="M189.5 50.5 L150.5 50.5" clip-path="url(#clipPath20)" transform="translate(470,260)"/><path fill="none" d="M150.5 50.5 L150.5 10.5" clip-path="url(#clipPath20)" transform="translate(470,260)"/><path fill="none" d="M150.5 10.5 L10.5 10.5" clip-path="url(#clipPath20)" transform="translate(470,260)"/><path fill="none" d="M178.7417 44 L190 50.5 L178.7417 57" clip-path="url(#clipPath20)" transform="translate(470,260)"/></g><g><path fill="none" d="M10.5 20.5 L109.5 20.5" clip-path="url(#clipPath13)" transform="translate(220,580)"/><path fill="none" d="M98.7417 27 L110 20.5 L98.7417 14" clip-path="url(#clipPath13)" transform="translate(220,580)"/><text x="30" y="16" stroke="none" clip-path="url(#clipPath13)" font-family="sans-serif" font-size="14" transform="translate(220,580)" xml:space="preserve">公開鍵の</text><text x="45" y="35" stroke="none" clip-path="url(#clipPath13)" font-family="sans-serif" font-size="14" transform="translate(220,580)" xml:space="preserve">導出</text></g><g><path fill="none" d="M10.5 50.5 L20.5 50.5" clip-path="url(#clipPath21)" transform="translate(470,380)"/><path fill="none" d="M20.5 50.5 L20.5 10.5" clip-path="url(#clipPath21)" transform="translate(470,380)"/><path fill="none" d="M20.5 10.5 L39.5 10.5" clip-path="url(#clipPath21)" transform="translate(470,380)"/><path fill="none" d="M28.7417 17 L40 10.5 L28.7417 4" clip-path="url(#clipPath21)" transform="translate(470,380)"/></g><g><path fill="none" d="M10.5 10.5 L39.5 10.5" clip-path="url(#clipPath22)" transform="translate(470,360)"/><path fill="none" d="M28.7417 17 L40 10.5 L28.7417 4" clip-path="url(#clipPath22)" transform="translate(470,360)"/></g><g><path fill="none" d="M10.5 10.5 L20.5 10.5" clip-path="url(#clipPath23)" transform="translate(470,290)"/><path fill="none" d="M20.5 10.5 L20.5 60.5" clip-path="url(#clipPath23)" transform="translate(470,290)"/><path fill="none" d="M20.5 60.5 L39.5 60.5" clip-path="url(#clipPath23)" transform="translate(470,290)"/><path fill="none" d="M28.7417 67 L40 60.5 L28.7417 54" clip-path="url(#clipPath23)" transform="translate(470,290)"/></g><g><path fill="none" d="M10.5 199.5 L10.5 160.5" clip-path="url(#clipPath24)" transform="translate(140,350)"/><path fill="none" d="M10.5 160.5 L390.5 160.5" clip-path="url(#clipPath24)" transform="translate(140,350)"/><path fill="none" d="M390.5 160.5 L390.5 10.5" clip-path="url(#clipPath24)" transform="translate(140,350)"/><path fill="none" d="M390.5 10.5 L370.5 10.5" clip-path="url(#clipPath24)" transform="translate(140,350)"/><path fill="none" d="M17 188.7417 L10.5 200 L4 188.7417" clip-path="url(#clipPath24)" transform="translate(140,350)"/><text x="155.979" y="156" stroke="none" clip-path="url(#clipPath24)" font-family="sans-serif" font-size="14" transform="translate(140,350)" xml:space="preserve">SHA-512Half</text></g><g><path fill="none" d="M10.5 10.5 L39.5 10.5" clip-path="url(#clipPath22)" transform="translate(470,120)"/><path fill="none" d="M28.7417 17 L40 10.5 L28.7417 4" clip-path="url(#clipPath22)" transform="translate(470,120)"/></g><g><path fill="none" d="M10.5 10.5 L39.5 10.5" clip-path="url(#clipPath22)" transform="translate(470,90)"/><path fill="none" d="M28.7417 17 L40 10.5 L28.7417 4" clip-path="url(#clipPath22)" transform="translate(470,90)"/></g><g><path fill="none" d="M10.5 20.5 L139.5 20.5" clip-path="url(#clipPath25)" transform="translate(190,270)"/><path fill="none" d="M128.7417 27 L140 20.5 L128.7417 14" clip-path="url(#clipPath25)" transform="translate(190,270)"/><text x="45" y="16" stroke="none" clip-path="url(#clipPath25)" font-family="sans-serif" font-size="14" transform="translate(190,270)" xml:space="preserve">公開鍵の</text><text x="60" y="35" stroke="none" clip-path="url(#clipPath25)" font-family="sans-serif" font-size="14" transform="translate(190,270)" xml:space="preserve">導出</text></g><g><path fill="none" d="M10.5 149.5 L10.5 110.5" clip-path="url(#clipPath26)" transform="translate(110,100)"/><path fill="none" d="M10.5 110.5 L440.5 110.5" clip-path="url(#clipPath26)" transform="translate(110,100)"/><path fill="none" d="M440.5 110.5 L440.5 10.5" clip-path="url(#clipPath26)" transform="translate(110,100)"/><path fill="none" d="M440.5 10.5 L400.5 10.5" clip-path="url(#clipPath26)" transform="translate(110,100)"/><path fill="none" d="M17 138.7417 L10.5 150 L4 138.7417" clip-path="url(#clipPath26)" transform="translate(110,100)"/><text x="180.979" y="106" stroke="none" clip-path="url(#clipPath26)" font-family="sans-serif" font-size="14" transform="translate(110,100)" xml:space="preserve">SHA-512Half</text></g><g stroke-dasharray="8 5" stroke-linecap="butt" stroke-miterlimit="5"><path fill="none" d="M10.5 20.5 L159.5 20.5" clip-path="url(#clipPath27)" transform="translate(180,60)"/><path fill="none" stroke-dasharray="none" stroke-linecap="square" stroke-miterlimit="10" d="M148.7417 27 L160 20.5 L148.7417 14" clip-path="url(#clipPath27)" transform="translate(180,60)"/></g><g font-family="sans-serif" font-size="14"><text x="25" y="16" stroke="none" clip-path="url(#clipPath27)" transform="translate(180,60)" xml:space="preserve">SHA-512, 最初の</text><text x="30" y="35" stroke="none" clip-path="url(#clipPath27)" transform="translate(180,60)" xml:space="preserve">16バイトを保持</text></g></g></svg>