<svg xmlns="http://www.w3.org/2000/svg" xmlns:xlink="http://www.w3.org/1999/xlink" width="580" height="390" fill="#000" fill-opacity="1" stroke="#000" stroke-dasharray="none" stroke-dashoffset="0" stroke-linecap="square" stroke-linejoin="miter" stroke-miterlimit="10" stroke-opacity="1" stroke-width="1" color-interpolation="auto" color-rendering="auto" font-family="'Dialog'" font-size="12" font-style="normal" font-weight="normal" image-rendering="auto" shape-rendering="auto" text-rendering="auto" viewBox="20 20 580 390"><g><defs id="defs1"><clipPath id="clipPath1" clipPathUnits="userSpaceOnUse"><path d="M0 0 L2147483647 0 L2147483647 2147483647 L0 2147483647 L0 0 Z"/></clipPath><clipPath id="clipPath2" clipPathUnits="userSpaceOnUse"><path d="M0 0 L0 30 L320 30 L320 0 Z"/></clipPath><clipPath id="clipPath3" clipPathUnits="userSpaceOnUse"><path d="M0 0 L0 20 L50 20 L50 0 Z"/></clipPath><clipPath id="clipPath4" clipPathUnits="userSpaceOnUse"><path d="M0 0 L0 20 L110 20 L110 0 Z"/></clipPath><clipPath id="clipPath5" clipPathUnits="userSpaceOnUse"><path d="M0 0 L0 20 L160 20 L160 0 Z"/></clipPath><clipPath id="clipPath6" clipPathUnits="userSpaceOnUse"><path d="M0 0 L0 20 L40 20 L40 0 Z"/></clipPath><clipPath id="clipPath7" clipPathUnits="userSpaceOnUse"><path d="M0 0 L0 20 L60 20 L60 0 Z"/></clipPath><clipPath id="clipPath8" clipPathUnits="userSpaceOnUse"><path d="M0 0 L0 20 L30 20 L30 0 Z"/></clipPath><clipPath id="clipPath9" clipPathUnits="userSpaceOnUse"><path d="M0 0 L0 20 L80 20 L80 0 Z"/></clipPath><clipPath id="clipPath10" clipPathUnits="userSpaceOnUse"><path d="M0 0 L0 30 L160 30 L160 0 Z"/></clipPath><clipPath id="clipPath11" clipPathUnits="userSpaceOnUse"><path d="M0 0 L0 40 L110 40 L110 0 Z"/></clipPath><clipPath id="clipPath12" clipPathUnits="userSpaceOnUse"><path d="M0 0 L0 40 L60 40 L60 0 Z"/></clipPath><clipPath id="clipPath13" clipPathUnits="userSpaceOnUse"><path d="M0 0 L0 30 L100 30 L100 0 Z"/></clipPath><clipPath id="clipPath14" clipPathUnits="userSpaceOnUse"><path d="M0 0 L0 30 L130 30 L130 0 Z"/></clipPath></defs><g font-family="sans-serif" font-size="14"><text x="5" y="18.109" stroke="none" clip-path="url(#clipPath2)" transform="translate(170,300)" xml:space="preserve">オファーディレクトリ用の特殊ID</text></g><g fill="#FFF" fill-opacity="0" stroke="#FFF" stroke-opacity="0" transform="translate(530,360)"><rect width="48.5" height="18.5" x=".5" y=".5" stroke="none" clip-path="url(#clipPath3)"/></g><g transform="translate(530,360)"><rect width="48.5" height="18.5" x=".5" y=".5" fill="none" clip-path="url(#clipPath3)"/><text x="1" y="15.055" stroke="none" clip-path="url(#clipPath3)" font-family="sans-serif" font-size="14" xml:space="preserve">fx rate</text></g><g fill="#0f0" stroke="#0f0" transform="translate(420,360)"><rect width="108.5" height="18.5" x=".5" y=".5" stroke="none" clip-path="url(#clipPath4)"/><rect width="108.5" height="18.5" x=".5" y=".5" fill="none" stroke="#000" clip-path="url(#clipPath4)"/></g><g fill="#FFF" fill-opacity="0" stroke="#FFF" stroke-opacity="0" transform="translate(110,360)"><rect width="158.5" height="18.5" x=".5" y=".5" stroke="none" clip-path="url(#clipPath5)"/></g><g transform="translate(110,360)"><rect width="158.5" height="18.5" x=".5" y=".5" fill="none" clip-path="url(#clipPath5)"/></g><g fill="#0f0" stroke="#0f0" transform="translate(40,360)"><rect width="38.5" height="18.5" x=".5" y=".5" stroke="none" clip-path="url(#clipPath6)"/><rect width="38.5" height="18.5" x=".5" y=".5" fill="none" stroke="#000" clip-path="url(#clipPath6)"/></g><g fill="#FFF" fill-opacity="0" stroke="#FFF" stroke-opacity="0" transform="translate(530,330)"><rect width="48.5" height="18.5" x=".5" y=".5" stroke="none" clip-path="url(#clipPath3)"/></g><g transform="translate(530,330)"><rect width="48.5" height="18.5" x=".5" y=".5" fill="none" clip-path="url(#clipPath3)"/><text x="1" y="15.055" stroke="none" clip-path="url(#clipPath3)" font-family="sans-serif" font-size="14" xml:space="preserve">fx rate</text></g><g fill="#0f0" stroke="#0f0" transform="translate(420,330)"><rect width="108.5" height="18.5" x=".5" y=".5" stroke="none" clip-path="url(#clipPath4)"/><rect width="108.5" height="18.5" x=".5" y=".5" fill="none" stroke="#000" clip-path="url(#clipPath4)"/></g><g fill="#FFF" fill-opacity="0" stroke="#FFF" stroke-opacity="0" transform="translate(110,330)"><rect width="158.5" height="18.5" x=".5" y=".5" stroke="none" clip-path="url(#clipPath5)"/></g><g transform="translate(110,330)"><rect width="158.5" height="18.5" x=".5" y=".5" fill="none" clip-path="url(#clipPath5)"/></g><g fill="#0f0" stroke="#0f0" transform="translate(40,330)"><rect width="38.5" height="18.5" x=".5" y=".5" stroke="none" clip-path="url(#clipPath6)"/><rect width="38.5" height="18.5" x=".5" y=".5" fill="none" stroke="#000" clip-path="url(#clipPath6)"/></g><g fill="#ff0" stroke="#ff0" transform="translate(420,260)"><rect width="158.5" height="18.5" x=".5" y=".5" stroke="none" clip-path="url(#clipPath5)"/><rect width="158.5" height="18.5" x=".5" y=".5" fill="none" stroke="#000" clip-path="url(#clipPath5)"/></g><g fill="#FFF" fill-opacity="0" stroke="#FFF" stroke-opacity="0" transform="translate(220,260)"><rect width="58.5" height="18.5" x=".5" y=".5" stroke="none" clip-path="url(#clipPath7)"/></g><g transform="translate(220,260)"><rect width="58.5" height="18.5" x=".5" y=".5" fill="none" clip-path="url(#clipPath7)"/></g><g fill="#FFF" fill-opacity="0" stroke="#FFF" stroke-opacity="0" transform="translate(150,260)"><rect width="58.5" height="18.5" x=".5" y=".5" stroke="none" clip-path="url(#clipPath7)"/></g><g transform="translate(150,260)"><rect width="58.5" height="18.5" x=".5" y=".5" fill="none" clip-path="url(#clipPath7)"/></g><g fill="#FFF" fill-opacity="0" stroke="#FFF" stroke-opacity="0" transform="translate(110,260)"><rect width="28.5" height="18.5" x=".5" y=".5" stroke="none" clip-path="url(#clipPath8)"/></g><g transform="translate(110,260)"><rect width="28.5" height="18.5" x=".5" y=".5" fill="none" clip-path="url(#clipPath8)"/></g><g fill="#ff0" stroke="#ff0" transform="translate(40,260)"><rect width="38.5" height="18.5" x=".5" y=".5" stroke="none" clip-path="url(#clipPath6)"/><rect width="38.5" height="18.5" x=".5" y=".5" fill="none" stroke="#000" clip-path="url(#clipPath6)"/></g><g fill="#ff0" stroke="#ff0" transform="translate(420,230)"><rect width="158.5" height="18.5" x=".5" y=".5" stroke="none" clip-path="url(#clipPath5)"/><rect width="158.5" height="18.5" x=".5" y=".5" fill="none" stroke="#000" clip-path="url(#clipPath5)"/></g><g fill="#FFF" fill-opacity="0" stroke="#FFF" stroke-opacity="0" transform="translate(220,230)"><rect width="58.5" height="18.5" x=".5" y=".5" stroke="none" clip-path="url(#clipPath7)"/></g><g transform="translate(220,230)"><rect width="58.5" height="18.5" x=".5" y=".5" fill="none" clip-path="url(#clipPath7)"/></g><g fill="#FFF" fill-opacity="0" stroke="#FFF" stroke-opacity="0" transform="translate(150,230)"><rect width="58.5" height="18.5" x=".5" y=".5" stroke="none" clip-path="url(#clipPath7)"/></g><g transform="translate(150,230)"><rect width="58.5" height="18.5" x=".5" y=".5" fill="none" clip-path="url(#clipPath7)"/></g><g fill="#FFF" fill-opacity="0" stroke="#FFF" stroke-opacity="0" transform="translate(110,230)"><rect width="28.5" height="18.5" x=".5" y=".5" stroke="none" clip-path="url(#clipPath8)"/></g><g transform="translate(110,230)"><rect width="28.5" height="18.5" x=".5" y=".5" fill="none" clip-path="url(#clipPath8)"/></g><g fill="#ff0" stroke="#ff0" transform="translate(40,230)"><rect width="38.5" height="18.5" x=".5" y=".5" stroke="none" clip-path="url(#clipPath6)"/><rect width="38.5" height="18.5" x=".5" y=".5" fill="none" stroke="#000" clip-path="url(#clipPath6)"/></g><g fill="#FFF" fill-opacity="0" stroke="#FFF" stroke-opacity="0" transform="translate(220,200)"><rect width="58.5" height="18.5" x=".5" y=".5" stroke="none" clip-path="url(#clipPath7)"/></g><g transform="translate(220,200)"><rect width="58.5" height="18.5" x=".5" y=".5" fill="none" clip-path="url(#clipPath7)"/></g><g fill="#ff0" stroke="#ff0" transform="translate(420,200)"><rect width="158.5" height="18.5" x=".5" y=".5" stroke="none" clip-path="url(#clipPath5)"/><rect width="158.5" height="18.5" x=".5" y=".5" fill="none" stroke="#000" clip-path="url(#clipPath5)"/></g><g fill="#FFF" fill-opacity="0" stroke="#FFF" stroke-opacity="0" transform="translate(150,200)"><rect width="58.5" height="18.5" x=".5" y=".5" stroke="none" clip-path="url(#clipPath7)"/></g><g transform="translate(150,200)"><rect width="58.5" height="18.5" x=".5" y=".5" fill="none" clip-path="url(#clipPath7)"/></g><g fill="#FFF" fill-opacity="0" stroke="#FFF" stroke-opacity="0" transform="translate(110,200)"><rect width="28.5" height="18.5" x=".5" y=".5" stroke="none" clip-path="url(#clipPath8)"/></g><g transform="translate(110,200)"><rect width="28.5" height="18.5" x=".5" y=".5" fill="none" clip-path="url(#clipPath8)"/></g><g fill="#ff0" stroke="#ff0" transform="translate(40,200)"><rect width="38.5" height="18.5" x=".5" y=".5" stroke="none" clip-path="url(#clipPath6)"/><rect width="38.5" height="18.5" x=".5" y=".5" fill="none" stroke="#000" clip-path="url(#clipPath6)"/></g><g fill="#00f" stroke="#00f" transform="translate(420,170)"><rect width="158.5" height="18.5" x=".5" y=".5" stroke="none" clip-path="url(#clipPath5)"/><rect width="158.5" height="18.5" x=".5" y=".5" fill="none" stroke="#000" clip-path="url(#clipPath5)"/></g><g fill="#FFF" fill-opacity="0" stroke="#FFF" stroke-opacity="0" transform="translate(200,170)"><rect width="58.5" height="18.5" x=".5" y=".5" stroke="none" clip-path="url(#clipPath7)"/></g><g transform="translate(200,170)"><rect width="58.5" height="18.5" x=".5" y=".5" fill="none" clip-path="url(#clipPath7)"/></g><g fill="#FFF" fill-opacity="0" stroke="#FFF" stroke-opacity="0" transform="translate(110,170)"><rect width="78.5" height="18.5" x=".5" y=".5" stroke="none" clip-path="url(#clipPath9)"/></g><g transform="translate(110,170)"><rect width="78.5" height="18.5" x=".5" y=".5" fill="none" clip-path="url(#clipPath9)"/></g><g fill="#00f" stroke="#00f" transform="translate(40,170)"><rect width="38.5" height="18.5" x=".5" y=".5" stroke="none" clip-path="url(#clipPath6)"/><rect width="38.5" height="18.5" x=".5" y=".5" fill="none" stroke="#000" clip-path="url(#clipPath6)"/></g><g fill="#FFF" fill-opacity="0" stroke="#FFF" stroke-opacity="0" transform="translate(180,140)"><rect width="58.5" height="18.5" x=".5" y=".5" stroke="none" clip-path="url(#clipPath7)"/></g><g transform="translate(180,140)"><rect width="58.5" height="18.5" x=".5" y=".5" fill="none" clip-path="url(#clipPath7)"/></g><g fill="#00f" stroke="#00f" transform="translate(420,140)"><rect width="158.5" height="18.5" x=".5" y=".5" stroke="none" clip-path="url(#clipPath5)"/><rect width="158.5" height="18.5" x=".5" y=".5" fill="none" stroke="#000" clip-path="url(#clipPath5)"/></g><g fill="#FFF" fill-opacity="0" stroke="#FFF" stroke-opacity="0" transform="translate(110,140)"><rect width="58.5" height="18.5" x=".5" y=".5" stroke="none" clip-path="url(#clipPath7)"/></g><g transform="translate(110,140)"><rect width="58.5" height="18.5" x=".5" y=".5" fill="none" clip-path="url(#clipPath7)"/></g><g fill="#00f" stroke="#00f" transform="translate(40,140)"><rect width="38.5" height="18.5" x=".5" y=".5" stroke="none" clip-path="url(#clipPath6)"/><rect width="38.5" height="18.5" x=".5" y=".5" fill="none" stroke="#000" clip-path="url(#clipPath6)"/></g><g fill="red" stroke="red" transform="translate(420,110)"><rect width="158.5" height="18.5" x=".5" y=".5" stroke="none" clip-path="url(#clipPath5)"/><rect width="158.5" height="18.5" x=".5" y=".5" fill="none" stroke="#000" clip-path="url(#clipPath5)"/></g><g fill="#FFF" fill-opacity="0" stroke="#FFF" stroke-opacity="0" transform="translate(110,110)"><rect width="158.5" height="18.5" x=".5" y=".5" stroke="none" clip-path="url(#clipPath5)"/></g><g transform="translate(110,110)"><rect width="158.5" height="18.5" x=".5" y=".5" fill="none" clip-path="url(#clipPath5)"/></g><g fill="red" stroke="red" transform="translate(40,110)"><rect width="38.5" height="18.5" x=".5" y=".5" stroke="none" clip-path="url(#clipPath6)"/><rect width="38.5" height="18.5" x=".5" y=".5" fill="none" stroke="#000" clip-path="url(#clipPath6)"/></g><g font-family="sans-serif" font-size="14"><text x="5" y="18.109" stroke="none" clip-path="url(#clipPath10)" transform="translate(420,40)" xml:space="preserve">一意なオブジェクトID</text></g><g fill="red" stroke="red" transform="translate(420,80)"><rect width="158.5" height="18.5" x=".5" y=".5" stroke="none" clip-path="url(#clipPath5)"/><rect width="158.5" height="18.5" x=".5" y=".5" fill="none" stroke="#000" clip-path="url(#clipPath5)"/></g><g font-family="sans-serif" font-size="14"><text x="5" y="18.109" stroke="none" clip-path="url(#clipPath11)" transform="translate(300,40)" xml:space="preserve">SHA512Half</text><text x="5" y="34.219" stroke="none" clip-path="url(#clipPath11)" transform="translate(300,40)" xml:space="preserve">ハッシュ関数</text></g><g font-family="sans-serif" font-size="14"><text x="5" y="18.109" stroke="none" clip-path="url(#clipPath12)" transform="translate(40,40)" xml:space="preserve">スペース</text><text x="5" y="34.219" stroke="none" clip-path="url(#clipPath12)" transform="translate(40,40)" xml:space="preserve">キー</text></g><g fill="red" stroke="red" transform="translate(40,80)"><rect width="38.5" height="18.5" x=".5" y=".5" stroke="none" clip-path="url(#clipPath6)"/><rect width="38.5" height="18.5" x=".5" y=".5" fill="none" stroke="#000" clip-path="url(#clipPath6)"/></g><g font-family="sans-serif" font-size="14"><text x="5" y="18.109" stroke="none" clip-path="url(#clipPath13)" transform="translate(110,40)" xml:space="preserve">キー入力</text></g><g fill="#FFF" fill-opacity="0" stroke="#FFF" stroke-opacity="0" transform="translate(110,80)"><rect width="158.5" height="18.5" x=".5" y=".5" stroke="none" clip-path="url(#clipPath5)"/></g><g transform="translate(110,80)"><rect width="158.5" height="18.5" x=".5" y=".5" fill="none" clip-path="url(#clipPath5)"/></g><g><path fill="none" d="M109.5 10.5 L10.5 10.5" clip-path="url(#clipPath14)" transform="translate(290,360)"/><path stroke="none" d="M98.7417 4 L110 10.5 L98.7417 17 Z" clip-path="url(#clipPath14)" transform="translate(290,360)"/><path fill="none" d="M98.7417 4 L110 10.5 L98.7417 17 Z" clip-path="url(#clipPath14)" transform="translate(290,360)"/></g><g><path fill="none" d="M109.5 10.5 L10.5 10.5" clip-path="url(#clipPath14)" transform="translate(290,330)"/><path stroke="none" d="M98.7417 4 L110 10.5 L98.7417 17 Z" clip-path="url(#clipPath14)" transform="translate(290,330)"/><path fill="none" d="M98.7417 4 L110 10.5 L98.7417 17 Z" clip-path="url(#clipPath14)" transform="translate(290,330)"/></g><g><path fill="none" d="M109.5 10.5 L10.5 10.5" clip-path="url(#clipPath14)" transform="translate(290,260)"/><path stroke="none" d="M98.7417 4 L110 10.5 L98.7417 17 Z" clip-path="url(#clipPath14)" transform="translate(290,260)"/><path fill="none" d="M98.7417 4 L110 10.5 L98.7417 17 Z" clip-path="url(#clipPath14)" transform="translate(290,260)"/></g><g><path fill="none" d="M109.5 10.5 L10.5 10.5" clip-path="url(#clipPath14)" transform="translate(290,230)"/><path stroke="none" d="M98.7417 4 L110 10.5 L98.7417 17 Z" clip-path="url(#clipPath14)" transform="translate(290,230)"/><path fill="none" d="M98.7417 4 L110 10.5 L98.7417 17 Z" clip-path="url(#clipPath14)" transform="translate(290,230)"/></g><g><path fill="none" d="M109.5 10.5 L10.5 10.5" clip-path="url(#clipPath14)" transform="translate(290,200)"/><path stroke="none" d="M98.7417 4 L110 10.5 L98.7417 17 Z" clip-path="url(#clipPath14)" transform="translate(290,200)"/><path fill="none" d="M98.7417 4 L110 10.5 L98.7417 17 Z" clip-path="url(#clipPath14)" transform="translate(290,200)"/></g><g><path fill="none" d="M109.5 10.5 L10.5 10.5" clip-path="url(#clipPath14)" transform="translate(290,170)"/><path stroke="none" d="M98.7417 4 L110 10.5 L98.7417 17 Z" clip-path="url(#clipPath14)" transform="translate(290,170)"/><path fill="none" d="M98.7417 4 L110 10.5 L98.7417 17 Z" clip-path="url(#clipPath14)" transform="translate(290,170)"/></g><g><path fill="none" d="M109.5 10.5 L10.5 10.5" clip-path="url(#clipPath14)" transform="translate(290,140)"/><path stroke="none" d="M98.7417 4 L110 10.5 L98.7417 17 Z" clip-path="url(#clipPath14)" transform="translate(290,140)"/><path fill="none" d="M98.7417 4 L110 10.5 L98.7417 17 Z" clip-path="url(#clipPath14)" transform="translate(290,140)"/></g><g><path fill="none" d="M109.5 10.5 L10.5 10.5" clip-path="url(#clipPath14)" transform="translate(290,110)"/><path stroke="none" d="M98.7417 4 L110 10.5 L98.7417 17 Z" clip-path="url(#clipPath14)" transform="translate(290,110)"/><path fill="none" d="M98.7417 4 L110 10.5 L98.7417 17 Z" clip-path="url(#clipPath14)" transform="translate(290,110)"/></g><g><path fill="none" d="M109.5 10.5 L10.5 10.5" clip-path="url(#clipPath14)" transform="translate(290,80)"/><path stroke="none" d="M98.7417 4 L110 10.5 L98.7417 17 Z" clip-path="url(#clipPath14)" transform="translate(290,80)"/><path fill="none" d="M98.7417 4 L110 10.5 L98.7417 17 Z" clip-path="url(#clipPath14)" transform="translate(290,80)"/></g></g></svg>