<svg xmlns="http://www.w3.org/2000/svg" xmlns:xlink="http://www.w3.org/1999/xlink" width="710" height="670" fill="#000" fill-opacity="1" stroke="#000" stroke-dasharray="none" stroke-dashoffset="0" stroke-linecap="square" stroke-linejoin="miter" stroke-miterlimit="10" stroke-opacity="1" stroke-width="1" color-interpolation="auto" color-rendering="auto" font-family="'Dialog'" font-size="12" font-style="normal" font-weight="normal" image-rendering="auto" shape-rendering="auto" text-rendering="auto" viewBox="20 20 710 670"><g><defs id="defs1"><clipPath id="clipPath1" clipPathUnits="userSpaceOnUse"><path d="M0 0 L2147483647 0 L2147483647 2147483647 L0 2147483647 L0 0 Z"/></clipPath><clipPath id="clipPath2" clipPathUnits="userSpaceOnUse"><path d="M0 0 L0 220 L310 220 L310 0 Z"/></clipPath><clipPath id="clipPath3" clipPathUnits="userSpaceOnUse"><path d="M0 0 L0 180 L250 180 L250 0 Z"/></clipPath><clipPath id="clipPath4" clipPathUnits="userSpaceOnUse"><path d="M0 0 L0 220 L250 220 L250 0 Z"/></clipPath><clipPath id="clipPath5" clipPathUnits="userSpaceOnUse"><path d="M0 0 L0 20 L20 20 L20 0 Z"/></clipPath><clipPath id="clipPath6" clipPathUnits="userSpaceOnUse"><path d="M0 0 L0 30 L270 30 L270 0 Z"/></clipPath><clipPath id="clipPath7" clipPathUnits="userSpaceOnUse"><path d="M0 0 L0 130 L140 130 L140 0 Z"/></clipPath></defs><g fill="#FFF" fill-opacity="0" stroke="#FFF" stroke-opacity="0" transform="translate(360,80)"><rect width="308.5" height="218.5" x=".5" y=".5" stroke="none" clip-path="url(#clipPath2)"/></g><g transform="translate(360,80)"><rect width="308.5" height="218.5" x=".5" y=".5" fill="none" clip-path="url(#clipPath2)"/><path fill="none" d="M1 -10.1094 L309 -10.1094" clip-path="url(#clipPath2)"/><text x="5" y="28.109" stroke="none" clip-path="url(#clipPath2)" font-family="sans-serif" font-size="14" xml:space="preserve">無効候補:</text><text x="5" y="44.219" stroke="none" clip-path="url(#clipPath2)" font-family="sans-serif" font-size="14" xml:space="preserve">(なし)</text><text x="5" y="76.438" stroke="none" clip-path="url(#clipPath2)" font-family="sans-serif" font-size="14" xml:space="preserve">再有効候補:</text><text x="5" y="92.547" stroke="none" clip-path="url(#clipPath2)" font-family="sans-serif" font-size="14" font-weight="bold" xml:space="preserve">UnsteadyB</text><path fill="none" d="M1 114.6562 L309 114.6562" clip-path="url(#clipPath2)"/><text x="5" y="129.766" stroke="none" clip-path="url(#clipPath2)" font-family="sans-serif" font-size="14" xml:space="preserve">無効:</text><text x="5" y="145.875" stroke="none" clip-path="url(#clipPath2)" font-family="sans-serif" font-size="14" xml:space="preserve">UnsteadyB</text><text x="5" y="161.984" stroke="none" clip-path="url(#clipPath2)" font-family="sans-serif" font-size="14" font-weight="bold" xml:space="preserve">MissingA</text></g><g fill="#FFF" fill-opacity="0" stroke="#FFF" stroke-opacity="0" transform="translate(50,450)"><rect width="248.5" height="178.5" x=".5" y=".5" stroke="none" clip-path="url(#clipPath3)"/></g><g stroke-dasharray="8 5" stroke-linecap="butt" stroke-miterlimit="5" transform="translate(50,450)"><rect width="248.5" height="178.5" x=".5" y=".5" fill="none" clip-path="url(#clipPath3)"/></g><g fill="#FFF" fill-opacity="0" stroke="#FFF" stroke-opacity="0" transform="translate(50,450)"><rect width="248.5" height="218.5" x=".5" y=".5" stroke="none" clip-path="url(#clipPath4)"/></g><g stroke-dasharray="8 5" stroke-linecap="butt" stroke-miterlimit="5" transform="translate(50,450)"><rect width="248.5" height="218.5" x=".5" y=".5" fill="none" clip-path="url(#clipPath4)"/><text x="71" y="18.109" stroke="none" clip-path="url(#clipPath4)" font-family="sans-serif" font-size="14" xml:space="preserve">定足数: 29/36</text></g><g fill="#FFF" fill-opacity="0" stroke="#FFF" stroke-opacity="0" transform="translate(350,640)"><rect width="18.5" height="18.5" x=".5" y=".5" stroke="none" clip-path="url(#clipPath5)"/></g><g fill="#787878" stroke="#787878" stroke-dasharray="8 5" stroke-linecap="butt" stroke-miterlimit="5" transform="translate(350,640)"><rect width="18.5" height="18.5" x=".5" y=".5" fill="none" clip-path="url(#clipPath5)"/></g><g fill="#FFF" fill-opacity="0" stroke="#FFF" stroke-opacity="0" transform="translate(180,640)"><rect width="18.5" height="18.5" x=".5" y=".5" stroke="none" clip-path="url(#clipPath5)"/></g><g transform="translate(180,640)"><rect width="18.5" height="18.5" x=".5" y=".5" fill="none" clip-path="url(#clipPath5)"/></g><g fill="#FFF" fill-opacity="0" stroke="#FFF" stroke-opacity="0" transform="translate(150,640)"><rect width="18.5" height="18.5" x=".5" y=".5" stroke="none" clip-path="url(#clipPath5)"/></g><g transform="translate(150,640)"><rect width="18.5" height="18.5" x=".5" y=".5" fill="none" clip-path="url(#clipPath5)"/></g><g fill="#FFF" fill-opacity="0" stroke="#FFF" stroke-opacity="0" transform="translate(120,640)"><rect width="18.5" height="18.5" x=".5" y=".5" stroke="none" clip-path="url(#clipPath5)"/></g><g transform="translate(120,640)"><rect width="18.5" height="18.5" x=".5" y=".5" fill="none" clip-path="url(#clipPath5)"/></g><g fill="#FFF" fill-opacity="0" stroke="#FFF" stroke-opacity="0" transform="translate(90,640)"><rect width="18.5" height="18.5" x=".5" y=".5" stroke="none" clip-path="url(#clipPath5)"/></g><g transform="translate(90,640)"><rect width="18.5" height="18.5" x=".5" y=".5" fill="none" clip-path="url(#clipPath5)"/></g><g fill="#FFF" fill-opacity="0" stroke="#FFF" stroke-opacity="0" transform="translate(60,640)"><rect width="18.5" height="18.5" x=".5" y=".5" stroke="none" clip-path="url(#clipPath5)"/></g><g transform="translate(60,640)"><rect width="18.5" height="18.5" x=".5" y=".5" fill="none" clip-path="url(#clipPath5)"/></g><g fill="#FFF" fill-opacity="0" stroke="#FFF" stroke-opacity="0" transform="translate(320,640)"><rect width="18.5" height="18.5" x=".5" y=".5" stroke="none" clip-path="url(#clipPath5)"/></g><g fill="#00f" stroke="#00f" stroke-dasharray="8 5" stroke-linecap="butt" stroke-miterlimit="5" transform="translate(320,640)"><rect width="18.5" height="18.5" x=".5" y=".5" fill="none" clip-path="url(#clipPath5)"/></g><g fill="#FFF" fill-opacity="0" stroke="#FFF" stroke-opacity="0" transform="translate(240,600)"><rect width="18.5" height="18.5" x=".5" y=".5" stroke="none" clip-path="url(#clipPath5)"/></g><g transform="translate(240,600)"><rect width="18.5" height="18.5" x=".5" y=".5" fill="none" clip-path="url(#clipPath5)"/></g><g fill="#FFF" fill-opacity="0" stroke="#FFF" stroke-opacity="0" transform="translate(210,600)"><rect width="18.5" height="18.5" x=".5" y=".5" stroke="none" clip-path="url(#clipPath5)"/></g><g transform="translate(210,600)"><rect width="18.5" height="18.5" x=".5" y=".5" fill="none" clip-path="url(#clipPath5)"/></g><g fill="#FFF" fill-opacity="0" stroke="#FFF" stroke-opacity="0" transform="translate(180,600)"><rect width="18.5" height="18.5" x=".5" y=".5" stroke="none" clip-path="url(#clipPath5)"/></g><g transform="translate(180,600)"><rect width="18.5" height="18.5" x=".5" y=".5" fill="none" clip-path="url(#clipPath5)"/></g><g fill="#FFF" fill-opacity="0" stroke="#FFF" stroke-opacity="0" transform="translate(150,600)"><rect width="18.5" height="18.5" x=".5" y=".5" stroke="none" clip-path="url(#clipPath5)"/></g><g transform="translate(150,600)"><rect width="18.5" height="18.5" x=".5" y=".5" fill="none" clip-path="url(#clipPath5)"/></g><g fill="#FFF" fill-opacity="0" stroke="#FFF" stroke-opacity="0" transform="translate(120,600)"><rect width="18.5" height="18.5" x=".5" y=".5" stroke="none" clip-path="url(#clipPath5)"/></g><g transform="translate(120,600)"><rect width="18.5" height="18.5" x=".5" y=".5" fill="none" clip-path="url(#clipPath5)"/></g><g fill="#FFF" fill-opacity="0" stroke="#FFF" stroke-opacity="0" transform="translate(90,600)"><rect width="18.5" height="18.5" x=".5" y=".5" stroke="none" clip-path="url(#clipPath5)"/></g><g transform="translate(90,600)"><rect width="18.5" height="18.5" x=".5" y=".5" fill="none" clip-path="url(#clipPath5)"/></g><g fill="#FFF" fill-opacity="0" stroke="#FFF" stroke-opacity="0" transform="translate(60,600)"><rect width="18.5" height="18.5" x=".5" y=".5" stroke="none" clip-path="url(#clipPath5)"/></g><g transform="translate(60,600)"><rect width="18.5" height="18.5" x=".5" y=".5" fill="none" clip-path="url(#clipPath5)"/></g><g fill="#FFF" fill-opacity="0" stroke="#FFF" stroke-opacity="0" transform="translate(270,560)"><rect width="18.5" height="18.5" x=".5" y=".5" stroke="none" clip-path="url(#clipPath5)"/></g><g transform="translate(270,560)"><rect width="18.5" height="18.5" x=".5" y=".5" fill="none" clip-path="url(#clipPath5)"/></g><g fill="#FFF" fill-opacity="0" stroke="#FFF" stroke-opacity="0" transform="translate(240,560)"><rect width="18.5" height="18.5" x=".5" y=".5" stroke="none" clip-path="url(#clipPath5)"/></g><g transform="translate(240,560)"><rect width="18.5" height="18.5" x=".5" y=".5" fill="none" clip-path="url(#clipPath5)"/></g><g fill="#FFF" fill-opacity="0" stroke="#FFF" stroke-opacity="0" transform="translate(210,560)"><rect width="18.5" height="18.5" x=".5" y=".5" stroke="none" clip-path="url(#clipPath5)"/></g><g transform="translate(210,560)"><rect width="18.5" height="18.5" x=".5" y=".5" fill="none" clip-path="url(#clipPath5)"/></g><g fill="#FFF" fill-opacity="0" stroke="#FFF" stroke-opacity="0" transform="translate(180,560)"><rect width="18.5" height="18.5" x=".5" y=".5" stroke="none" clip-path="url(#clipPath5)"/></g><g transform="translate(180,560)"><rect width="18.5" height="18.5" x=".5" y=".5" fill="none" clip-path="url(#clipPath5)"/></g><g fill="#FFF" fill-opacity="0" stroke="#FFF" stroke-opacity="0" transform="translate(150,560)"><rect width="18.5" height="18.5" x=".5" y=".5" stroke="none" clip-path="url(#clipPath5)"/></g><g transform="translate(150,560)"><rect width="18.5" height="18.5" x=".5" y=".5" fill="none" clip-path="url(#clipPath5)"/></g><g fill="#FFF" fill-opacity="0" stroke="#FFF" stroke-opacity="0" transform="translate(120,560)"><rect width="18.5" height="18.5" x=".5" y=".5" stroke="none" clip-path="url(#clipPath5)"/></g><g transform="translate(120,560)"><rect width="18.5" height="18.5" x=".5" y=".5" fill="none" clip-path="url(#clipPath5)"/></g><g fill="#FFF" fill-opacity="0" stroke="#FFF" stroke-opacity="0" transform="translate(90,560)"><rect width="18.5" height="18.5" x=".5" y=".5" stroke="none" clip-path="url(#clipPath5)"/></g><g transform="translate(90,560)"><rect width="18.5" height="18.5" x=".5" y=".5" fill="none" clip-path="url(#clipPath5)"/></g><g fill="#FFF" fill-opacity="0" stroke="#FFF" stroke-opacity="0" transform="translate(60,560)"><rect width="18.5" height="18.5" x=".5" y=".5" stroke="none" clip-path="url(#clipPath5)"/></g><g transform="translate(60,560)"><rect width="18.5" height="18.5" x=".5" y=".5" fill="none" clip-path="url(#clipPath5)"/></g><g fill="#FFF" fill-opacity="0" stroke="#FFF" stroke-opacity="0" transform="translate(270,520)"><rect width="18.5" height="18.5" x=".5" y=".5" stroke="none" clip-path="url(#clipPath5)"/></g><g transform="translate(270,520)"><rect width="18.5" height="18.5" x=".5" y=".5" fill="none" clip-path="url(#clipPath5)"/></g><g fill="#FFF" fill-opacity="0" stroke="#FFF" stroke-opacity="0" transform="translate(240,520)"><rect width="18.5" height="18.5" x=".5" y=".5" stroke="none" clip-path="url(#clipPath5)"/></g><g transform="translate(240,520)"><rect width="18.5" height="18.5" x=".5" y=".5" fill="none" clip-path="url(#clipPath5)"/></g><g fill="#FFF" fill-opacity="0" stroke="#FFF" stroke-opacity="0" transform="translate(210,520)"><rect width="18.5" height="18.5" x=".5" y=".5" stroke="none" clip-path="url(#clipPath5)"/></g><g transform="translate(210,520)"><rect width="18.5" height="18.5" x=".5" y=".5" fill="none" clip-path="url(#clipPath5)"/></g><g fill="#FFF" fill-opacity="0" stroke="#FFF" stroke-opacity="0" transform="translate(180,520)"><rect width="18.5" height="18.5" x=".5" y=".5" stroke="none" clip-path="url(#clipPath5)"/></g><g transform="translate(180,520)"><rect width="18.5" height="18.5" x=".5" y=".5" fill="none" clip-path="url(#clipPath5)"/></g><g fill="#FFF" fill-opacity="0" stroke="#FFF" stroke-opacity="0" transform="translate(150,520)"><rect width="18.5" height="18.5" x=".5" y=".5" stroke="none" clip-path="url(#clipPath5)"/></g><g transform="translate(150,520)"><rect width="18.5" height="18.5" x=".5" y=".5" fill="none" clip-path="url(#clipPath5)"/></g><g fill="#FFF" fill-opacity="0" stroke="#FFF" stroke-opacity="0" transform="translate(120,520)"><rect width="18.5" height="18.5" x=".5" y=".5" stroke="none" clip-path="url(#clipPath5)"/></g><g transform="translate(120,520)"><rect width="18.5" height="18.5" x=".5" y=".5" fill="none" clip-path="url(#clipPath5)"/></g><g fill="#FFF" fill-opacity="0" stroke="#FFF" stroke-opacity="0" transform="translate(90,520)"><rect width="18.5" height="18.5" x=".5" y=".5" stroke="none" clip-path="url(#clipPath5)"/></g><g transform="translate(90,520)"><rect width="18.5" height="18.5" x=".5" y=".5" fill="none" clip-path="url(#clipPath5)"/></g><g fill="#FFF" fill-opacity="0" stroke="#FFF" stroke-opacity="0" transform="translate(60,520)"><rect width="18.5" height="18.5" x=".5" y=".5" stroke="none" clip-path="url(#clipPath5)"/></g><g transform="translate(60,520)"><rect width="18.5" height="18.5" x=".5" y=".5" fill="none" clip-path="url(#clipPath5)"/></g><g fill="#FFF" fill-opacity="0" stroke="#FFF" stroke-opacity="0" transform="translate(270,480)"><rect width="18.5" height="18.5" x=".5" y=".5" stroke="none" clip-path="url(#clipPath5)"/></g><g transform="translate(270,480)"><rect width="18.5" height="18.5" x=".5" y=".5" fill="none" clip-path="url(#clipPath5)"/></g><g fill="#FFF" fill-opacity="0" stroke="#FFF" stroke-opacity="0" transform="translate(240,480)"><rect width="18.5" height="18.5" x=".5" y=".5" stroke="none" clip-path="url(#clipPath5)"/></g><g transform="translate(240,480)"><rect width="18.5" height="18.5" x=".5" y=".5" fill="none" clip-path="url(#clipPath5)"/></g><g fill="#FFF" fill-opacity="0" stroke="#FFF" stroke-opacity="0" transform="translate(210,480)"><rect width="18.5" height="18.5" x=".5" y=".5" stroke="none" clip-path="url(#clipPath5)"/></g><g transform="translate(210,480)"><rect width="18.5" height="18.5" x=".5" y=".5" fill="none" clip-path="url(#clipPath5)"/></g><g fill="#FFF" fill-opacity="0" stroke="#FFF" stroke-opacity="0" transform="translate(180,480)"><rect width="18.5" height="18.5" x=".5" y=".5" stroke="none" clip-path="url(#clipPath5)"/></g><g transform="translate(180,480)"><rect width="18.5" height="18.5" x=".5" y=".5" fill="none" clip-path="url(#clipPath5)"/></g><g fill="#FFF" fill-opacity="0" stroke="#FFF" stroke-opacity="0" transform="translate(150,480)"><rect width="18.5" height="18.5" x=".5" y=".5" stroke="none" clip-path="url(#clipPath5)"/></g><g transform="translate(150,480)"><rect width="18.5" height="18.5" x=".5" y=".5" fill="none" clip-path="url(#clipPath5)"/></g><g fill="#FFF" fill-opacity="0" stroke="#FFF" stroke-opacity="0" transform="translate(120,480)"><rect width="18.5" height="18.5" x=".5" y=".5" stroke="none" clip-path="url(#clipPath5)"/></g><g transform="translate(120,480)"><rect width="18.5" height="18.5" x=".5" y=".5" fill="none" clip-path="url(#clipPath5)"/></g><g fill="#FFF" fill-opacity="0" stroke="#FFF" stroke-opacity="0" transform="translate(90,480)"><rect width="18.5" height="18.5" x=".5" y=".5" stroke="none" clip-path="url(#clipPath5)"/></g><g transform="translate(90,480)"><rect width="18.5" height="18.5" x=".5" y=".5" fill="none" clip-path="url(#clipPath5)"/></g><g font-family="sans-serif" font-size="18"><text x="5" y="21.875" stroke="none" clip-path="url(#clipPath6)" transform="translate(50,410)" xml:space="preserve">Effective UNL</text></g><g fill="#FFF" fill-opacity="0" stroke="#FFF" stroke-opacity="0" transform="translate(60,480)"><rect width="18.5" height="18.5" x=".5" y=".5" stroke="none" clip-path="url(#clipPath5)"/></g><g transform="translate(60,480)"><rect width="18.5" height="18.5" x=".5" y=".5" fill="none" clip-path="url(#clipPath5)"/></g><g fill="#ff0" stroke="#ff0"><path stroke="none" d="M0.5 0.5 L128.5 0.5 L139 12.5 L139 129 L0.5 129 Z" clip-path="url(#clipPath7)" transform="translate(570,120)"/><path fill="none" stroke="#000" d="M0.5 0.5 L128.5 0.5 L139 12.5 L139 129 L0.5 129 Z" clip-path="url(#clipPath7)" transform="translate(570,120)"/><path fill="none" stroke="#000" d="M128.5 0.5 L128.5 12.5 L139 12.5" clip-path="url(#clipPath7)" transform="translate(570,120)"/></g><g font-family="sans-serif" font-size="14"><text x="5" y="18.109" stroke="none" clip-path="url(#clipPath7)" transform="translate(570,120)" xml:space="preserve">MissingAは</text><text x="5" y="34.219" stroke="none" clip-path="url(#clipPath7)" transform="translate(570,120)" xml:space="preserve">予定通り</text><text x="5" y="50.328" stroke="none" clip-path="url(#clipPath7)" transform="translate(570,120)" xml:space="preserve">無効リストに移動</text><text x="5" y="82.547" stroke="none" clip-path="url(#clipPath7)" transform="translate(570,120)" xml:space="preserve">UnsteadyB</text><text x="5" y="98.656" stroke="none" clip-path="url(#clipPath7)" transform="translate(570,120)" xml:space="preserve">は再有効候補となる</text></g><g fill="#FFF" fill-opacity="0" stroke="#FFF" stroke-opacity="0" transform="translate(40,80)"><rect width="248.5" height="178.5" x=".5" y=".5" stroke="none" clip-path="url(#clipPath3)"/></g><g stroke-dasharray="8 5" stroke-linecap="butt" stroke-miterlimit="5" transform="translate(40,80)"><rect width="248.5" height="178.5" x=".5" y=".5" fill="none" clip-path="url(#clipPath3)"/></g><g fill="#FFF" fill-opacity="0" stroke="#FFF" stroke-opacity="0" transform="translate(40,80)"><rect width="248.5" height="218.5" x=".5" y=".5" stroke="none" clip-path="url(#clipPath4)"/></g><g stroke-dasharray="8 5" stroke-linecap="butt" stroke-miterlimit="5" transform="translate(40,80)"><rect width="248.5" height="218.5" x=".5" y=".5" fill="none" clip-path="url(#clipPath4)"/><text x="71" y="18.109" stroke="none" clip-path="url(#clipPath4)" font-family="sans-serif" font-size="14" xml:space="preserve">定足数: 31/38</text></g><g font-family="sans-serif" font-size="18"><text x="5" y="21.875" stroke="none" clip-path="url(#clipPath6)" transform="translate(360,40)" xml:space="preserve">Negative UNL (オンレジャー)</text></g><g fill="#FFF" fill-opacity="0" stroke="#FFF" stroke-opacity="0" transform="translate(200,270)"><rect width="18.5" height="18.5" x=".5" y=".5" stroke="none" clip-path="url(#clipPath5)"/></g><g fill="#00f" stroke="#00f" stroke-dasharray="8 5" stroke-linecap="butt" stroke-miterlimit="5" transform="translate(200,270)"><rect width="18.5" height="18.5" x=".5" y=".5" fill="none" clip-path="url(#clipPath5)"/></g><g fill="#FFF" fill-opacity="0" stroke="#FFF" stroke-opacity="0" transform="translate(170,270)"><rect width="18.5" height="18.5" x=".5" y=".5" stroke="none" clip-path="url(#clipPath5)"/></g><g transform="translate(170,270)"><rect width="18.5" height="18.5" x=".5" y=".5" fill="none" clip-path="url(#clipPath5)"/></g><g fill="#FFF" fill-opacity="0" stroke="#FFF" stroke-opacity="0" transform="translate(140,270)"><rect width="18.5" height="18.5" x=".5" y=".5" stroke="none" clip-path="url(#clipPath5)"/></g><g transform="translate(140,270)"><rect width="18.5" height="18.5" x=".5" y=".5" fill="none" clip-path="url(#clipPath5)"/></g><g fill="#FFF" fill-opacity="0" stroke="#FFF" stroke-opacity="0" transform="translate(110,270)"><rect width="18.5" height="18.5" x=".5" y=".5" stroke="none" clip-path="url(#clipPath5)"/></g><g transform="translate(110,270)"><rect width="18.5" height="18.5" x=".5" y=".5" fill="none" clip-path="url(#clipPath5)"/></g><g fill="#FFF" fill-opacity="0" stroke="#FFF" stroke-opacity="0" transform="translate(80,270)"><rect width="18.5" height="18.5" x=".5" y=".5" stroke="none" clip-path="url(#clipPath5)"/></g><g transform="translate(80,270)"><rect width="18.5" height="18.5" x=".5" y=".5" fill="none" clip-path="url(#clipPath5)"/></g><g fill="#FFF" fill-opacity="0" stroke="#FFF" stroke-opacity="0" transform="translate(50,270)"><rect width="18.5" height="18.5" x=".5" y=".5" stroke="none" clip-path="url(#clipPath5)"/></g><g transform="translate(50,270)"><rect width="18.5" height="18.5" x=".5" y=".5" fill="none" clip-path="url(#clipPath5)"/></g><g fill="#FFF" fill-opacity="0" stroke="#FFF" stroke-opacity="0" transform="translate(230,270)"><rect width="18.5" height="18.5" x=".5" y=".5" stroke="none" clip-path="url(#clipPath5)"/></g><g fill="#787878" stroke="#787878" stroke-dasharray="8 5" stroke-linecap="butt" stroke-miterlimit="5" transform="translate(230,270)"><rect width="18.5" height="18.5" x=".5" y=".5" fill="none" clip-path="url(#clipPath5)"/></g><g fill="#FFF" fill-opacity="0" stroke="#FFF" stroke-opacity="0" transform="translate(230,230)"><rect width="18.5" height="18.5" x=".5" y=".5" stroke="none" clip-path="url(#clipPath5)"/></g><g transform="translate(230,230)"><rect width="18.5" height="18.5" x=".5" y=".5" fill="none" clip-path="url(#clipPath5)"/></g><g fill="#FFF" fill-opacity="0" stroke="#FFF" stroke-opacity="0" transform="translate(200,230)"><rect width="18.5" height="18.5" x=".5" y=".5" stroke="none" clip-path="url(#clipPath5)"/></g><g transform="translate(200,230)"><rect width="18.5" height="18.5" x=".5" y=".5" fill="none" clip-path="url(#clipPath5)"/></g><g fill="#FFF" fill-opacity="0" stroke="#FFF" stroke-opacity="0" transform="translate(170,230)"><rect width="18.5" height="18.5" x=".5" y=".5" stroke="none" clip-path="url(#clipPath5)"/></g><g transform="translate(170,230)"><rect width="18.5" height="18.5" x=".5" y=".5" fill="none" clip-path="url(#clipPath5)"/></g><g fill="#FFF" fill-opacity="0" stroke="#FFF" stroke-opacity="0" transform="translate(140,230)"><rect width="18.5" height="18.5" x=".5" y=".5" stroke="none" clip-path="url(#clipPath5)"/></g><g transform="translate(140,230)"><rect width="18.5" height="18.5" x=".5" y=".5" fill="none" clip-path="url(#clipPath5)"/></g><g fill="#FFF" fill-opacity="0" stroke="#FFF" stroke-opacity="0" transform="translate(110,230)"><rect width="18.5" height="18.5" x=".5" y=".5" stroke="none" clip-path="url(#clipPath5)"/></g><g transform="translate(110,230)"><rect width="18.5" height="18.5" x=".5" y=".5" fill="none" clip-path="url(#clipPath5)"/></g><g fill="#FFF" fill-opacity="0" stroke="#FFF" stroke-opacity="0" transform="translate(80,230)"><rect width="18.5" height="18.5" x=".5" y=".5" stroke="none" clip-path="url(#clipPath5)"/></g><g transform="translate(80,230)"><rect width="18.5" height="18.5" x=".5" y=".5" fill="none" clip-path="url(#clipPath5)"/></g><g fill="#FFF" fill-opacity="0" stroke="#FFF" stroke-opacity="0" transform="translate(50,230)"><rect width="18.5" height="18.5" x=".5" y=".5" stroke="none" clip-path="url(#clipPath5)"/></g><g transform="translate(50,230)"><rect width="18.5" height="18.5" x=".5" y=".5" fill="none" clip-path="url(#clipPath5)"/></g><g fill="#FFF" fill-opacity="0" stroke="#FFF" stroke-opacity="0" transform="translate(260,190)"><rect width="18.5" height="18.5" x=".5" y=".5" stroke="none" clip-path="url(#clipPath5)"/></g><g transform="translate(260,190)"><rect width="18.5" height="18.5" x=".5" y=".5" fill="none" clip-path="url(#clipPath5)"/></g><g fill="#FFF" fill-opacity="0" stroke="#FFF" stroke-opacity="0" transform="translate(230,190)"><rect width="18.5" height="18.5" x=".5" y=".5" stroke="none" clip-path="url(#clipPath5)"/></g><g transform="translate(230,190)"><rect width="18.5" height="18.5" x=".5" y=".5" fill="none" clip-path="url(#clipPath5)"/></g><g fill="#FFF" fill-opacity="0" stroke="#FFF" stroke-opacity="0" transform="translate(200,190)"><rect width="18.5" height="18.5" x=".5" y=".5" stroke="none" clip-path="url(#clipPath5)"/></g><g transform="translate(200,190)"><rect width="18.5" height="18.5" x=".5" y=".5" fill="none" clip-path="url(#clipPath5)"/></g><g fill="#FFF" fill-opacity="0" stroke="#FFF" stroke-opacity="0" transform="translate(170,190)"><rect width="18.5" height="18.5" x=".5" y=".5" stroke="none" clip-path="url(#clipPath5)"/></g><g transform="translate(170,190)"><rect width="18.5" height="18.5" x=".5" y=".5" fill="none" clip-path="url(#clipPath5)"/></g><g fill="#FFF" fill-opacity="0" stroke="#FFF" stroke-opacity="0" transform="translate(140,190)"><rect width="18.5" height="18.5" x=".5" y=".5" stroke="none" clip-path="url(#clipPath5)"/></g><g transform="translate(140,190)"><rect width="18.5" height="18.5" x=".5" y=".5" fill="none" clip-path="url(#clipPath5)"/></g><g fill="#FFF" fill-opacity="0" stroke="#FFF" stroke-opacity="0" transform="translate(110,190)"><rect width="18.5" height="18.5" x=".5" y=".5" stroke="none" clip-path="url(#clipPath5)"/></g><g transform="translate(110,190)"><rect width="18.5" height="18.5" x=".5" y=".5" fill="none" clip-path="url(#clipPath5)"/></g><g fill="#FFF" fill-opacity="0" stroke="#FFF" stroke-opacity="0" transform="translate(80,190)"><rect width="18.5" height="18.5" x=".5" y=".5" stroke="none" clip-path="url(#clipPath5)"/></g><g transform="translate(80,190)"><rect width="18.5" height="18.5" x=".5" y=".5" fill="none" clip-path="url(#clipPath5)"/></g><g fill="#FFF" fill-opacity="0" stroke="#FFF" stroke-opacity="0" transform="translate(50,190)"><rect width="18.5" height="18.5" x=".5" y=".5" stroke="none" clip-path="url(#clipPath5)"/></g><g transform="translate(50,190)"><rect width="18.5" height="18.5" x=".5" y=".5" fill="none" clip-path="url(#clipPath5)"/></g><g fill="#FFF" fill-opacity="0" stroke="#FFF" stroke-opacity="0" transform="translate(260,150)"><rect width="18.5" height="18.5" x=".5" y=".5" stroke="none" clip-path="url(#clipPath5)"/></g><g transform="translate(260,150)"><rect width="18.5" height="18.5" x=".5" y=".5" fill="none" clip-path="url(#clipPath5)"/></g><g fill="#FFF" fill-opacity="0" stroke="#FFF" stroke-opacity="0" transform="translate(230,150)"><rect width="18.5" height="18.5" x=".5" y=".5" stroke="none" clip-path="url(#clipPath5)"/></g><g transform="translate(230,150)"><rect width="18.5" height="18.5" x=".5" y=".5" fill="none" clip-path="url(#clipPath5)"/></g><g fill="#FFF" fill-opacity="0" stroke="#FFF" stroke-opacity="0" transform="translate(200,150)"><rect width="18.5" height="18.5" x=".5" y=".5" stroke="none" clip-path="url(#clipPath5)"/></g><g transform="translate(200,150)"><rect width="18.5" height="18.5" x=".5" y=".5" fill="none" clip-path="url(#clipPath5)"/></g><g fill="#FFF" fill-opacity="0" stroke="#FFF" stroke-opacity="0" transform="translate(170,150)"><rect width="18.5" height="18.5" x=".5" y=".5" stroke="none" clip-path="url(#clipPath5)"/></g><g transform="translate(170,150)"><rect width="18.5" height="18.5" x=".5" y=".5" fill="none" clip-path="url(#clipPath5)"/></g><g fill="#FFF" fill-opacity="0" stroke="#FFF" stroke-opacity="0" transform="translate(140,150)"><rect width="18.5" height="18.5" x=".5" y=".5" stroke="none" clip-path="url(#clipPath5)"/></g><g transform="translate(140,150)"><rect width="18.5" height="18.5" x=".5" y=".5" fill="none" clip-path="url(#clipPath5)"/></g><g fill="#FFF" fill-opacity="0" stroke="#FFF" stroke-opacity="0" transform="translate(110,150)"><rect width="18.5" height="18.5" x=".5" y=".5" stroke="none" clip-path="url(#clipPath5)"/></g><g transform="translate(110,150)"><rect width="18.5" height="18.5" x=".5" y=".5" fill="none" clip-path="url(#clipPath5)"/></g><g fill="#FFF" fill-opacity="0" stroke="#FFF" stroke-opacity="0" transform="translate(80,150)"><rect width="18.5" height="18.5" x=".5" y=".5" stroke="none" clip-path="url(#clipPath5)"/></g><g transform="translate(80,150)"><rect width="18.5" height="18.5" x=".5" y=".5" fill="none" clip-path="url(#clipPath5)"/></g><g fill="#FFF" fill-opacity="0" stroke="#FFF" stroke-opacity="0" transform="translate(50,150)"><rect width="18.5" height="18.5" x=".5" y=".5" stroke="none" clip-path="url(#clipPath5)"/></g><g transform="translate(50,150)"><rect width="18.5" height="18.5" x=".5" y=".5" fill="none" clip-path="url(#clipPath5)"/></g><g fill="#FFF" fill-opacity="0" stroke="#FFF" stroke-opacity="0" transform="translate(260,110)"><rect width="18.5" height="18.5" x=".5" y=".5" stroke="none" clip-path="url(#clipPath5)"/></g><g transform="translate(260,110)"><rect width="18.5" height="18.5" x=".5" y=".5" fill="none" clip-path="url(#clipPath5)"/></g><g fill="#FFF" fill-opacity="0" stroke="#FFF" stroke-opacity="0" transform="translate(230,110)"><rect width="18.5" height="18.5" x=".5" y=".5" stroke="none" clip-path="url(#clipPath5)"/></g><g transform="translate(230,110)"><rect width="18.5" height="18.5" x=".5" y=".5" fill="none" clip-path="url(#clipPath5)"/></g><g fill="#FFF" fill-opacity="0" stroke="#FFF" stroke-opacity="0" transform="translate(200,110)"><rect width="18.5" height="18.5" x=".5" y=".5" stroke="none" clip-path="url(#clipPath5)"/></g><g transform="translate(200,110)"><rect width="18.5" height="18.5" x=".5" y=".5" fill="none" clip-path="url(#clipPath5)"/></g><g fill="#FFF" fill-opacity="0" stroke="#FFF" stroke-opacity="0" transform="translate(170,110)"><rect width="18.5" height="18.5" x=".5" y=".5" stroke="none" clip-path="url(#clipPath5)"/></g><g transform="translate(170,110)"><rect width="18.5" height="18.5" x=".5" y=".5" fill="none" clip-path="url(#clipPath5)"/></g><g fill="#FFF" fill-opacity="0" stroke="#FFF" stroke-opacity="0" transform="translate(140,110)"><rect width="18.5" height="18.5" x=".5" y=".5" stroke="none" clip-path="url(#clipPath5)"/></g><g transform="translate(140,110)"><rect width="18.5" height="18.5" x=".5" y=".5" fill="none" clip-path="url(#clipPath5)"/></g><g fill="#FFF" fill-opacity="0" stroke="#FFF" stroke-opacity="0" transform="translate(110,110)"><rect width="18.5" height="18.5" x=".5" y=".5" stroke="none" clip-path="url(#clipPath5)"/></g><g transform="translate(110,110)"><rect width="18.5" height="18.5" x=".5" y=".5" fill="none" clip-path="url(#clipPath5)"/></g><g fill="#FFF" fill-opacity="0" stroke="#FFF" stroke-opacity="0" transform="translate(80,110)"><rect width="18.5" height="18.5" x=".5" y=".5" stroke="none" clip-path="url(#clipPath5)"/></g><g transform="translate(80,110)"><rect width="18.5" height="18.5" x=".5" y=".5" fill="none" clip-path="url(#clipPath5)"/></g><g font-family="sans-serif" font-size="18"><text x="5" y="21.875" stroke="none" clip-path="url(#clipPath6)" transform="translate(40,40)" xml:space="preserve">UNLの設定</text></g><g fill="#FFF" fill-opacity="0" stroke="#FFF" stroke-opacity="0" transform="translate(50,110)"><rect width="18.5" height="18.5" x=".5" y=".5" stroke="none" clip-path="url(#clipPath5)"/></g><g transform="translate(50,110)"><rect width="18.5" height="18.5" x=".5" y=".5" fill="none" clip-path="url(#clipPath5)"/></g></g></svg>