<svg xmlns="http://www.w3.org/2000/svg" xmlns:xlink="http://www.w3.org/1999/xlink" width="740" height="400" fill="#000" fill-opacity="1" stroke="#000" stroke-dasharray="none" stroke-dashoffset="0" stroke-linecap="square" stroke-linejoin="miter" stroke-miterlimit="10" stroke-opacity="1" stroke-width="1" color-interpolation="auto" color-rendering="auto" font-family="'Dialog'" font-size="12" font-style="normal" font-weight="normal" image-rendering="auto" shape-rendering="auto" text-rendering="auto" viewBox="20 20 740 400"><g><defs id="defs1"><clipPath id="clipPath1" clipPathUnits="userSpaceOnUse"><path d="M0 0 L2147483647 0 L2147483647 2147483647 L0 2147483647 L0 0 Z"/></clipPath><clipPath id="clipPath2" clipPathUnits="userSpaceOnUse"><path d="M0 0 L0 220 L310 220 L310 0 Z"/></clipPath><clipPath id="clipPath3" clipPathUnits="userSpaceOnUse"><path d="M0 0 L0 80 L140 80 L140 0 Z"/></clipPath><clipPath id="clipPath4" clipPathUnits="userSpaceOnUse"><path d="M0 0 L0 70 L130 70 L130 0 Z"/></clipPath><clipPath id="clipPath5" clipPathUnits="userSpaceOnUse"><path d="M0 0 L0 180 L250 180 L250 0 Z"/></clipPath><clipPath id="clipPath6" clipPathUnits="userSpaceOnUse"><path d="M0 0 L0 220 L250 220 L250 0 Z"/></clipPath><clipPath id="clipPath7" clipPathUnits="userSpaceOnUse"><path d="M0 0 L0 30 L270 30 L270 0 Z"/></clipPath><clipPath id="clipPath8" clipPathUnits="userSpaceOnUse"><path d="M0 0 L0 20 L20 20 L20 0 Z"/></clipPath><clipPath id="clipPath9" clipPathUnits="userSpaceOnUse"><path d="M0 0 L0 70 L40 70 L40 0 Z"/></clipPath></defs><g fill="#FFF" fill-opacity="0" stroke="#FFF" stroke-opacity="0" transform="translate(360,80)"><rect width="308.5" height="218.5" x=".5" y=".5" stroke="none" clip-path="url(#clipPath2)"/></g><g transform="translate(360,80)"><rect width="308.5" height="218.5" x=".5" y=".5" fill="none" clip-path="url(#clipPath2)"/><path fill="none" d="M1 -10.1094 L309 -10.1094" clip-path="url(#clipPath2)"/><text x="5" y="28.109" stroke="none" clip-path="url(#clipPath2)" font-family="sans-serif" font-size="14" xml:space="preserve">To Disable:</text><text x="5" y="44.219" stroke="none" clip-path="url(#clipPath2)" font-family="sans-serif" font-size="14" xml:space="preserve">MissingA</text><text x="5" y="76.438" stroke="none" clip-path="url(#clipPath2)" font-family="sans-serif" font-size="14" xml:space="preserve">To Re-Enable:</text><text x="5" y="92.547" stroke="none" clip-path="url(#clipPath2)" font-family="sans-serif" font-size="14" xml:space="preserve">(none)</text><path fill="none" d="M1 114.6562 L309 114.6562" clip-path="url(#clipPath2)"/><text x="5" y="129.766" stroke="none" clip-path="url(#clipPath2)" font-family="sans-serif" font-size="14" xml:space="preserve">Disabled:</text><text x="5" y="145.875" stroke="none" clip-path="url(#clipPath2)" font-family="sans-serif" font-size="14" font-weight="bold" xml:space="preserve">UnsteadyB</text></g><g fill="#ff0" stroke="#ff0"><path stroke="none" d="M0.5 0.5 L128.5 0.5 L139 12.5 L139 79 L0.5 79 Z" clip-path="url(#clipPath3)" transform="translate(600,200)"/><path fill="none" stroke="#000" d="M0.5 0.5 L128.5 0.5 L139 12.5 L139 79 L0.5 79 Z" clip-path="url(#clipPath3)" transform="translate(600,200)"/><path fill="none" stroke="#000" d="M128.5 0.5 L128.5 12.5 L139 12.5" clip-path="url(#clipPath3)" transform="translate(600,200)"/></g><g font-family="sans-serif" font-size="14"><text x="5" y="18.109" stroke="none" clip-path="url(#clipPath3)" transform="translate(600,200)" xml:space="preserve">UnsteadyB gets</text><text x="5" y="34.219" stroke="none" clip-path="url(#clipPath3)" transform="translate(600,200)" xml:space="preserve">moved to the</text><text x="5" y="50.328" stroke="none" clip-path="url(#clipPath3)" transform="translate(600,200)" xml:space="preserve">actively disabled</text><text x="5" y="66.438" stroke="none" clip-path="url(#clipPath3)" transform="translate(600,200)" xml:space="preserve">list.</text></g><g fill="#ff0" stroke="#ff0"><path stroke="none" d="M0.5 0.5 L128.5 0.5 L139 12.5 L139 79 L0.5 79 Z" clip-path="url(#clipPath3)" transform="translate(600,100)"/><path fill="none" stroke="#000" d="M0.5 0.5 L128.5 0.5 L139 12.5 L139 79 L0.5 79 Z" clip-path="url(#clipPath3)" transform="translate(600,100)"/><path fill="none" stroke="#000" d="M128.5 0.5 L128.5 12.5 L139 12.5" clip-path="url(#clipPath3)" transform="translate(600,100)"/></g><g font-family="sans-serif" font-size="14"><text x="5" y="18.109" stroke="none" clip-path="url(#clipPath3)" transform="translate(600,100)" xml:space="preserve">MissingA is now</text><text x="5" y="34.219" stroke="none" clip-path="url(#clipPath3)" transform="translate(600,100)" xml:space="preserve">also scheduled to</text><text x="5" y="50.328" stroke="none" clip-path="url(#clipPath3)" transform="translate(600,100)" xml:space="preserve">be disabled.</text></g><g fill="#ff0" stroke="#ff0"><path stroke="none" d="M0.5 0.5 L118.5 0.5 L129 12.5 L129 69 L0.5 69 Z" clip-path="url(#clipPath4)" transform="translate(210,330)"/><path fill="none" stroke="#000" d="M0.5 0.5 L118.5 0.5 L129 12.5 L129 69 L0.5 69 Z" clip-path="url(#clipPath4)" transform="translate(210,330)"/><path fill="none" stroke="#000" d="M118.5 0.5 L118.5 12.5 L129 12.5" clip-path="url(#clipPath4)" transform="translate(210,330)"/></g><g font-family="sans-serif" font-size="14"><text x="5" y="18.109" stroke="none" clip-path="url(#clipPath4)" transform="translate(210,330)" xml:space="preserve">MissingA and</text><text x="5" y="34.219" stroke="none" clip-path="url(#clipPath4)" transform="translate(210,330)" xml:space="preserve">UnsteadyB are</text><text x="5" y="50.328" stroke="none" clip-path="url(#clipPath4)" transform="translate(210,330)" xml:space="preserve">still offline.</text></g><g fill="#FFF" fill-opacity="0" stroke="#FFF" stroke-opacity="0" transform="translate(40,80)"><rect width="248.5" height="178.5" x=".5" y=".5" stroke="none" clip-path="url(#clipPath5)"/></g><g stroke-dasharray="8 5" stroke-linecap="butt" stroke-miterlimit="5" transform="translate(40,80)"><rect width="248.5" height="178.5" x=".5" y=".5" fill="none" clip-path="url(#clipPath5)"/></g><g fill="#FFF" fill-opacity="0" stroke="#FFF" stroke-opacity="0" transform="translate(40,80)"><rect width="248.5" height="218.5" x=".5" y=".5" stroke="none" clip-path="url(#clipPath6)"/></g><g stroke-dasharray="8 5" stroke-linecap="butt" stroke-miterlimit="5" transform="translate(40,80)"><rect width="248.5" height="218.5" x=".5" y=".5" fill="none" clip-path="url(#clipPath6)"/><text x="71" y="18.109" stroke="none" clip-path="url(#clipPath6)" font-family="sans-serif" font-size="14" xml:space="preserve">Quorum: 31/38</text></g><g font-family="sans-serif" font-size="18"><text x="5" y="21.875" stroke="none" clip-path="url(#clipPath7)" transform="translate(360,40)" xml:space="preserve">Negative UNL (on-ledger)</text></g><g fill="#FFF" fill-opacity="0" stroke="#FFF" stroke-opacity="0" transform="translate(200,270)"><rect width="18.5" height="18.5" x=".5" y=".5" stroke="none" clip-path="url(#clipPath8)"/></g><g fill="#787878" stroke="#787878" stroke-dasharray="8 5" stroke-linecap="butt" stroke-miterlimit="5" transform="translate(200,270)"><rect width="18.5" height="18.5" x=".5" y=".5" fill="none" clip-path="url(#clipPath8)"/></g><g fill="#FFF" fill-opacity="0" stroke="#FFF" stroke-opacity="0" transform="translate(170,270)"><rect width="18.5" height="18.5" x=".5" y=".5" stroke="none" clip-path="url(#clipPath8)"/></g><g transform="translate(170,270)"><rect width="18.5" height="18.5" x=".5" y=".5" fill="none" clip-path="url(#clipPath8)"/></g><g fill="#FFF" fill-opacity="0" stroke="#FFF" stroke-opacity="0" transform="translate(140,270)"><rect width="18.5" height="18.5" x=".5" y=".5" stroke="none" clip-path="url(#clipPath8)"/></g><g transform="translate(140,270)"><rect width="18.5" height="18.5" x=".5" y=".5" fill="none" clip-path="url(#clipPath8)"/></g><g fill="#FFF" fill-opacity="0" stroke="#FFF" stroke-opacity="0" transform="translate(110,270)"><rect width="18.5" height="18.5" x=".5" y=".5" stroke="none" clip-path="url(#clipPath8)"/></g><g transform="translate(110,270)"><rect width="18.5" height="18.5" x=".5" y=".5" fill="none" clip-path="url(#clipPath8)"/></g><g fill="#FFF" fill-opacity="0" stroke="#FFF" stroke-opacity="0" transform="translate(80,270)"><rect width="18.5" height="18.5" x=".5" y=".5" stroke="none" clip-path="url(#clipPath8)"/></g><g transform="translate(80,270)"><rect width="18.5" height="18.5" x=".5" y=".5" fill="none" clip-path="url(#clipPath8)"/></g><g fill="#FFF" fill-opacity="0" stroke="#FFF" stroke-opacity="0" transform="translate(50,270)"><rect width="18.5" height="18.5" x=".5" y=".5" stroke="none" clip-path="url(#clipPath8)"/></g><g transform="translate(50,270)"><rect width="18.5" height="18.5" x=".5" y=".5" fill="none" clip-path="url(#clipPath8)"/></g><g fill="#FFF" fill-opacity="0" stroke="#FFF" stroke-opacity="0" transform="translate(230,270)"><rect width="18.5" height="18.5" x=".5" y=".5" stroke="none" clip-path="url(#clipPath8)"/></g><g fill="#787878" stroke="#787878" stroke-dasharray="8 5" stroke-linecap="butt" stroke-miterlimit="5" transform="translate(230,270)"><rect width="18.5" height="18.5" x=".5" y=".5" fill="none" clip-path="url(#clipPath8)"/></g><g fill="#FFF" fill-opacity="0" stroke="#FFF" stroke-opacity="0" transform="translate(230,230)"><rect width="18.5" height="18.5" x=".5" y=".5" stroke="none" clip-path="url(#clipPath8)"/></g><g transform="translate(230,230)"><rect width="18.5" height="18.5" x=".5" y=".5" fill="none" clip-path="url(#clipPath8)"/></g><g fill="#FFF" fill-opacity="0" stroke="#FFF" stroke-opacity="0" transform="translate(200,230)"><rect width="18.5" height="18.5" x=".5" y=".5" stroke="none" clip-path="url(#clipPath8)"/></g><g transform="translate(200,230)"><rect width="18.5" height="18.5" x=".5" y=".5" fill="none" clip-path="url(#clipPath8)"/></g><g fill="#FFF" fill-opacity="0" stroke="#FFF" stroke-opacity="0" transform="translate(170,230)"><rect width="18.5" height="18.5" x=".5" y=".5" stroke="none" clip-path="url(#clipPath8)"/></g><g transform="translate(170,230)"><rect width="18.5" height="18.5" x=".5" y=".5" fill="none" clip-path="url(#clipPath8)"/></g><g fill="#FFF" fill-opacity="0" stroke="#FFF" stroke-opacity="0" transform="translate(140,230)"><rect width="18.5" height="18.5" x=".5" y=".5" stroke="none" clip-path="url(#clipPath8)"/></g><g transform="translate(140,230)"><rect width="18.5" height="18.5" x=".5" y=".5" fill="none" clip-path="url(#clipPath8)"/></g><g fill="#FFF" fill-opacity="0" stroke="#FFF" stroke-opacity="0" transform="translate(110,230)"><rect width="18.5" height="18.5" x=".5" y=".5" stroke="none" clip-path="url(#clipPath8)"/></g><g transform="translate(110,230)"><rect width="18.5" height="18.5" x=".5" y=".5" fill="none" clip-path="url(#clipPath8)"/></g><g fill="#FFF" fill-opacity="0" stroke="#FFF" stroke-opacity="0" transform="translate(80,230)"><rect width="18.5" height="18.5" x=".5" y=".5" stroke="none" clip-path="url(#clipPath8)"/></g><g transform="translate(80,230)"><rect width="18.5" height="18.5" x=".5" y=".5" fill="none" clip-path="url(#clipPath8)"/></g><g fill="#FFF" fill-opacity="0" stroke="#FFF" stroke-opacity="0" transform="translate(50,230)"><rect width="18.5" height="18.5" x=".5" y=".5" stroke="none" clip-path="url(#clipPath8)"/></g><g transform="translate(50,230)"><rect width="18.5" height="18.5" x=".5" y=".5" fill="none" clip-path="url(#clipPath8)"/></g><g fill="#FFF" fill-opacity="0" stroke="#FFF" stroke-opacity="0" transform="translate(260,190)"><rect width="18.5" height="18.5" x=".5" y=".5" stroke="none" clip-path="url(#clipPath8)"/></g><g transform="translate(260,190)"><rect width="18.5" height="18.5" x=".5" y=".5" fill="none" clip-path="url(#clipPath8)"/></g><g fill="#FFF" fill-opacity="0" stroke="#FFF" stroke-opacity="0" transform="translate(230,190)"><rect width="18.5" height="18.5" x=".5" y=".5" stroke="none" clip-path="url(#clipPath8)"/></g><g transform="translate(230,190)"><rect width="18.5" height="18.5" x=".5" y=".5" fill="none" clip-path="url(#clipPath8)"/></g><g fill="#FFF" fill-opacity="0" stroke="#FFF" stroke-opacity="0" transform="translate(200,190)"><rect width="18.5" height="18.5" x=".5" y=".5" stroke="none" clip-path="url(#clipPath8)"/></g><g transform="translate(200,190)"><rect width="18.5" height="18.5" x=".5" y=".5" fill="none" clip-path="url(#clipPath8)"/></g><g fill="#FFF" fill-opacity="0" stroke="#FFF" stroke-opacity="0" transform="translate(170,190)"><rect width="18.5" height="18.5" x=".5" y=".5" stroke="none" clip-path="url(#clipPath8)"/></g><g transform="translate(170,190)"><rect width="18.5" height="18.5" x=".5" y=".5" fill="none" clip-path="url(#clipPath8)"/></g><g fill="#FFF" fill-opacity="0" stroke="#FFF" stroke-opacity="0" transform="translate(140,190)"><rect width="18.5" height="18.5" x=".5" y=".5" stroke="none" clip-path="url(#clipPath8)"/></g><g transform="translate(140,190)"><rect width="18.5" height="18.5" x=".5" y=".5" fill="none" clip-path="url(#clipPath8)"/></g><g fill="#FFF" fill-opacity="0" stroke="#FFF" stroke-opacity="0" transform="translate(110,190)"><rect width="18.5" height="18.5" x=".5" y=".5" stroke="none" clip-path="url(#clipPath8)"/></g><g transform="translate(110,190)"><rect width="18.5" height="18.5" x=".5" y=".5" fill="none" clip-path="url(#clipPath8)"/></g><g fill="#FFF" fill-opacity="0" stroke="#FFF" stroke-opacity="0" transform="translate(80,190)"><rect width="18.5" height="18.5" x=".5" y=".5" stroke="none" clip-path="url(#clipPath8)"/></g><g transform="translate(80,190)"><rect width="18.5" height="18.5" x=".5" y=".5" fill="none" clip-path="url(#clipPath8)"/></g><g fill="#FFF" fill-opacity="0" stroke="#FFF" stroke-opacity="0" transform="translate(50,190)"><rect width="18.5" height="18.5" x=".5" y=".5" stroke="none" clip-path="url(#clipPath8)"/></g><g transform="translate(50,190)"><rect width="18.5" height="18.5" x=".5" y=".5" fill="none" clip-path="url(#clipPath8)"/></g><g fill="#FFF" fill-opacity="0" stroke="#FFF" stroke-opacity="0" transform="translate(260,150)"><rect width="18.5" height="18.5" x=".5" y=".5" stroke="none" clip-path="url(#clipPath8)"/></g><g transform="translate(260,150)"><rect width="18.5" height="18.5" x=".5" y=".5" fill="none" clip-path="url(#clipPath8)"/></g><g fill="#FFF" fill-opacity="0" stroke="#FFF" stroke-opacity="0" transform="translate(230,150)"><rect width="18.5" height="18.5" x=".5" y=".5" stroke="none" clip-path="url(#clipPath8)"/></g><g transform="translate(230,150)"><rect width="18.5" height="18.5" x=".5" y=".5" fill="none" clip-path="url(#clipPath8)"/></g><g fill="#FFF" fill-opacity="0" stroke="#FFF" stroke-opacity="0" transform="translate(200,150)"><rect width="18.5" height="18.5" x=".5" y=".5" stroke="none" clip-path="url(#clipPath8)"/></g><g transform="translate(200,150)"><rect width="18.5" height="18.5" x=".5" y=".5" fill="none" clip-path="url(#clipPath8)"/></g><g fill="#FFF" fill-opacity="0" stroke="#FFF" stroke-opacity="0" transform="translate(170,150)"><rect width="18.5" height="18.5" x=".5" y=".5" stroke="none" clip-path="url(#clipPath8)"/></g><g transform="translate(170,150)"><rect width="18.5" height="18.5" x=".5" y=".5" fill="none" clip-path="url(#clipPath8)"/></g><g fill="#FFF" fill-opacity="0" stroke="#FFF" stroke-opacity="0" transform="translate(140,150)"><rect width="18.5" height="18.5" x=".5" y=".5" stroke="none" clip-path="url(#clipPath8)"/></g><g transform="translate(140,150)"><rect width="18.5" height="18.5" x=".5" y=".5" fill="none" clip-path="url(#clipPath8)"/></g><g fill="#FFF" fill-opacity="0" stroke="#FFF" stroke-opacity="0" transform="translate(110,150)"><rect width="18.5" height="18.5" x=".5" y=".5" stroke="none" clip-path="url(#clipPath8)"/></g><g transform="translate(110,150)"><rect width="18.5" height="18.5" x=".5" y=".5" fill="none" clip-path="url(#clipPath8)"/></g><g fill="#FFF" fill-opacity="0" stroke="#FFF" stroke-opacity="0" transform="translate(80,150)"><rect width="18.5" height="18.5" x=".5" y=".5" stroke="none" clip-path="url(#clipPath8)"/></g><g transform="translate(80,150)"><rect width="18.5" height="18.5" x=".5" y=".5" fill="none" clip-path="url(#clipPath8)"/></g><g fill="#FFF" fill-opacity="0" stroke="#FFF" stroke-opacity="0" transform="translate(50,150)"><rect width="18.5" height="18.5" x=".5" y=".5" stroke="none" clip-path="url(#clipPath8)"/></g><g transform="translate(50,150)"><rect width="18.5" height="18.5" x=".5" y=".5" fill="none" clip-path="url(#clipPath8)"/></g><g fill="#FFF" fill-opacity="0" stroke="#FFF" stroke-opacity="0" transform="translate(260,110)"><rect width="18.5" height="18.5" x=".5" y=".5" stroke="none" clip-path="url(#clipPath8)"/></g><g transform="translate(260,110)"><rect width="18.5" height="18.5" x=".5" y=".5" fill="none" clip-path="url(#clipPath8)"/></g><g fill="#FFF" fill-opacity="0" stroke="#FFF" stroke-opacity="0" transform="translate(230,110)"><rect width="18.5" height="18.5" x=".5" y=".5" stroke="none" clip-path="url(#clipPath8)"/></g><g transform="translate(230,110)"><rect width="18.5" height="18.5" x=".5" y=".5" fill="none" clip-path="url(#clipPath8)"/></g><g fill="#FFF" fill-opacity="0" stroke="#FFF" stroke-opacity="0" transform="translate(200,110)"><rect width="18.5" height="18.5" x=".5" y=".5" stroke="none" clip-path="url(#clipPath8)"/></g><g transform="translate(200,110)"><rect width="18.5" height="18.5" x=".5" y=".5" fill="none" clip-path="url(#clipPath8)"/></g><g fill="#FFF" fill-opacity="0" stroke="#FFF" stroke-opacity="0" transform="translate(170,110)"><rect width="18.5" height="18.5" x=".5" y=".5" stroke="none" clip-path="url(#clipPath8)"/></g><g transform="translate(170,110)"><rect width="18.5" height="18.5" x=".5" y=".5" fill="none" clip-path="url(#clipPath8)"/></g><g fill="#FFF" fill-opacity="0" stroke="#FFF" stroke-opacity="0" transform="translate(140,110)"><rect width="18.5" height="18.5" x=".5" y=".5" stroke="none" clip-path="url(#clipPath8)"/></g><g transform="translate(140,110)"><rect width="18.5" height="18.5" x=".5" y=".5" fill="none" clip-path="url(#clipPath8)"/></g><g fill="#FFF" fill-opacity="0" stroke="#FFF" stroke-opacity="0" transform="translate(110,110)"><rect width="18.5" height="18.5" x=".5" y=".5" stroke="none" clip-path="url(#clipPath8)"/></g><g transform="translate(110,110)"><rect width="18.5" height="18.5" x=".5" y=".5" fill="none" clip-path="url(#clipPath8)"/></g><g fill="#FFF" fill-opacity="0" stroke="#FFF" stroke-opacity="0" transform="translate(80,110)"><rect width="18.5" height="18.5" x=".5" y=".5" stroke="none" clip-path="url(#clipPath8)"/></g><g transform="translate(80,110)"><rect width="18.5" height="18.5" x=".5" y=".5" fill="none" clip-path="url(#clipPath8)"/></g><g font-family="sans-serif" font-size="18"><text x="5" y="21.875" stroke="none" clip-path="url(#clipPath7)" transform="translate(40,40)" xml:space="preserve">Configured UNL</text></g><g fill="#FFF" fill-opacity="0" stroke="#FFF" stroke-opacity="0" transform="translate(50,110)"><rect width="18.5" height="18.5" x=".5" y=".5" stroke="none" clip-path="url(#clipPath8)"/></g><g transform="translate(50,110)"><rect width="18.5" height="18.5" x=".5" y=".5" fill="none" clip-path="url(#clipPath8)"/></g><g><path fill="none" d="M10.7425 11.4701 L20.5 50.5" clip-path="url(#clipPath9)" transform="translate(230,280)"/><path fill="none" d="M7.0459 23.4837 L10.6213 10.9851 L19.6577 20.3308" clip-path="url(#clipPath9)" transform="translate(230,280)"/></g><g><path fill="none" d="M10.7425 11.4701 L20.5 50.5" clip-path="url(#clipPath9)" transform="translate(200,280)"/><path fill="none" d="M7.0459 23.4837 L10.6213 10.9851 L19.6577 20.3308" clip-path="url(#clipPath9)" transform="translate(200,280)"/></g></g></svg>