<svg xmlns="http://www.w3.org/2000/svg" xmlns:xlink="http://www.w3.org/1999/xlink" width="670" height="620" fill="#000" fill-opacity="1" stroke="#000" stroke-dasharray="none" stroke-dashoffset="0" stroke-linecap="square" stroke-linejoin="miter" stroke-miterlimit="10" stroke-opacity="1" stroke-width="1" color-interpolation="auto" color-rendering="auto" font-family="'Dialog'" font-size="12" font-style="normal" font-weight="normal" image-rendering="auto" shape-rendering="auto" text-rendering="auto" viewBox="20 20 670 620"><g><defs id="defs1"><clipPath id="clipPath1" clipPathUnits="userSpaceOnUse"><path d="M0 0 L2147483647 0 L2147483647 2147483647 L0 2147483647 L0 0 Z"/></clipPath><clipPath id="clipPath2" clipPathUnits="userSpaceOnUse"><path d="M0 0 L0 220 L310 220 L310 0 Z"/></clipPath><clipPath id="clipPath3" clipPathUnits="userSpaceOnUse"><path d="M0 0 L0 180 L250 180 L250 0 Z"/></clipPath><clipPath id="clipPath4" clipPathUnits="userSpaceOnUse"><path d="M0 0 L0 220 L250 220 L250 0 Z"/></clipPath><clipPath id="clipPath5" clipPathUnits="userSpaceOnUse"><path d="M0 0 L0 20 L20 20 L20 0 Z"/></clipPath><clipPath id="clipPath6" clipPathUnits="userSpaceOnUse"><path d="M0 0 L0 30 L270 30 L270 0 Z"/></clipPath><clipPath id="clipPath7" clipPathUnits="userSpaceOnUse"><path d="M0 0 L0 70 L140 70 L140 0 Z"/></clipPath><clipPath id="clipPath8" clipPathUnits="userSpaceOnUse"><path d="M0 0 L0 190 L80 190 L80 0 Z"/></clipPath><clipPath id="clipPath9" clipPathUnits="userSpaceOnUse"><path d="M0 0 L0 150 L200 150 L200 0 Z"/></clipPath></defs><g fill="#FFF" fill-opacity="0" stroke="#FFF" stroke-opacity="0" transform="translate(360,80)"><rect width="308.5" height="218.5" x=".5" y=".5" stroke="none" clip-path="url(#clipPath2)"/></g><g transform="translate(360,80)"><rect width="308.5" height="218.5" x=".5" y=".5" fill="none" clip-path="url(#clipPath2)"/><path fill="none" d="M1 -10.1094 L309 -10.1094" clip-path="url(#clipPath2)"/><text x="5" y="28.109" stroke="none" clip-path="url(#clipPath2)" font-family="sans-serif" font-size="14" xml:space="preserve">無効候補:</text><text x="5" y="44.219" stroke="none" clip-path="url(#clipPath2)" font-family="sans-serif" font-size="14" xml:space="preserve">(なし)</text><text x="5" y="76.438" stroke="none" clip-path="url(#clipPath2)" font-family="sans-serif" font-size="14" xml:space="preserve">再有効候補:</text><text x="5" y="92.547" stroke="none" clip-path="url(#clipPath2)" font-family="sans-serif" font-size="14" xml:space="preserve">(なし)</text><path fill="none" d="M1 114.6562 L309 114.6562" clip-path="url(#clipPath2)"/><text x="5" y="129.766" stroke="none" clip-path="url(#clipPath2)" font-family="sans-serif" font-size="14" xml:space="preserve">無効:</text><text x="5" y="145.875" stroke="none" clip-path="url(#clipPath2)" font-family="sans-serif" font-size="14" xml:space="preserve">MissingA</text></g><g fill="#FFF" fill-opacity="0" stroke="#FFF" stroke-opacity="0" transform="translate(40,400)"><rect width="248.5" height="178.5" x=".5" y=".5" stroke="none" clip-path="url(#clipPath3)"/></g><g stroke-dasharray="8 5" stroke-linecap="butt" stroke-miterlimit="5" transform="translate(40,400)"><rect width="248.5" height="178.5" x=".5" y=".5" fill="none" clip-path="url(#clipPath3)"/></g><g fill="#FFF" fill-opacity="0" stroke="#FFF" stroke-opacity="0" transform="translate(40,400)"><rect width="248.5" height="218.5" x=".5" y=".5" stroke="none" clip-path="url(#clipPath4)"/></g><g stroke-dasharray="8 5" stroke-linecap="butt" stroke-miterlimit="5" transform="translate(40,400)"><rect width="248.5" height="218.5" x=".5" y=".5" fill="none" clip-path="url(#clipPath4)"/><text x="71" y="18.109" stroke="none" clip-path="url(#clipPath4)" font-family="sans-serif" font-size="14" xml:space="preserve">定足数: 30/37</text></g><g fill="#FFF" fill-opacity="0" stroke="#FFF" stroke-opacity="0" transform="translate(340,590)"><rect width="18.5" height="18.5" x=".5" y=".5" stroke="none" clip-path="url(#clipPath5)"/></g><g fill="#787878" stroke="#787878" stroke-dasharray="8 5" stroke-linecap="butt" stroke-miterlimit="5" transform="translate(340,590)"><rect width="18.5" height="18.5" x=".5" y=".5" fill="none" clip-path="url(#clipPath5)"/></g><g fill="#FFF" fill-opacity="0" stroke="#FFF" stroke-opacity="0" transform="translate(170,590)"><rect width="18.5" height="18.5" x=".5" y=".5" stroke="none" clip-path="url(#clipPath5)"/></g><g transform="translate(170,590)"><rect width="18.5" height="18.5" x=".5" y=".5" fill="none" clip-path="url(#clipPath5)"/></g><g fill="#FFF" fill-opacity="0" stroke="#FFF" stroke-opacity="0" transform="translate(140,590)"><rect width="18.5" height="18.5" x=".5" y=".5" stroke="none" clip-path="url(#clipPath5)"/></g><g transform="translate(140,590)"><rect width="18.5" height="18.5" x=".5" y=".5" fill="none" clip-path="url(#clipPath5)"/></g><g fill="#FFF" fill-opacity="0" stroke="#FFF" stroke-opacity="0" transform="translate(110,590)"><rect width="18.5" height="18.5" x=".5" y=".5" stroke="none" clip-path="url(#clipPath5)"/></g><g transform="translate(110,590)"><rect width="18.5" height="18.5" x=".5" y=".5" fill="none" clip-path="url(#clipPath5)"/></g><g fill="#FFF" fill-opacity="0" stroke="#FFF" stroke-opacity="0" transform="translate(80,590)"><rect width="18.5" height="18.5" x=".5" y=".5" stroke="none" clip-path="url(#clipPath5)"/></g><g transform="translate(80,590)"><rect width="18.5" height="18.5" x=".5" y=".5" fill="none" clip-path="url(#clipPath5)"/></g><g fill="#FFF" fill-opacity="0" stroke="#FFF" stroke-opacity="0" transform="translate(50,590)"><rect width="18.5" height="18.5" x=".5" y=".5" stroke="none" clip-path="url(#clipPath5)"/></g><g transform="translate(50,590)"><rect width="18.5" height="18.5" x=".5" y=".5" fill="none" clip-path="url(#clipPath5)"/></g><g fill="#FFF" fill-opacity="0" stroke="#FFF" stroke-opacity="0" transform="translate(200,590)"><rect width="18.5" height="18.5" x=".5" y=".5" stroke="none" clip-path="url(#clipPath5)"/></g><g transform="translate(200,590)"><rect width="18.5" height="18.5" x=".5" y=".5" fill="none" clip-path="url(#clipPath5)"/></g><g fill="#FFF" fill-opacity="0" stroke="#FFF" stroke-opacity="0" transform="translate(230,550)"><rect width="18.5" height="18.5" x=".5" y=".5" stroke="none" clip-path="url(#clipPath5)"/></g><g transform="translate(230,550)"><rect width="18.5" height="18.5" x=".5" y=".5" fill="none" clip-path="url(#clipPath5)"/></g><g fill="#FFF" fill-opacity="0" stroke="#FFF" stroke-opacity="0" transform="translate(200,550)"><rect width="18.5" height="18.5" x=".5" y=".5" stroke="none" clip-path="url(#clipPath5)"/></g><g transform="translate(200,550)"><rect width="18.5" height="18.5" x=".5" y=".5" fill="none" clip-path="url(#clipPath5)"/></g><g fill="#FFF" fill-opacity="0" stroke="#FFF" stroke-opacity="0" transform="translate(170,550)"><rect width="18.5" height="18.5" x=".5" y=".5" stroke="none" clip-path="url(#clipPath5)"/></g><g transform="translate(170,550)"><rect width="18.5" height="18.5" x=".5" y=".5" fill="none" clip-path="url(#clipPath5)"/></g><g fill="#FFF" fill-opacity="0" stroke="#FFF" stroke-opacity="0" transform="translate(140,550)"><rect width="18.5" height="18.5" x=".5" y=".5" stroke="none" clip-path="url(#clipPath5)"/></g><g transform="translate(140,550)"><rect width="18.5" height="18.5" x=".5" y=".5" fill="none" clip-path="url(#clipPath5)"/></g><g fill="#FFF" fill-opacity="0" stroke="#FFF" stroke-opacity="0" transform="translate(110,550)"><rect width="18.5" height="18.5" x=".5" y=".5" stroke="none" clip-path="url(#clipPath5)"/></g><g transform="translate(110,550)"><rect width="18.5" height="18.5" x=".5" y=".5" fill="none" clip-path="url(#clipPath5)"/></g><g fill="#FFF" fill-opacity="0" stroke="#FFF" stroke-opacity="0" transform="translate(80,550)"><rect width="18.5" height="18.5" x=".5" y=".5" stroke="none" clip-path="url(#clipPath5)"/></g><g transform="translate(80,550)"><rect width="18.5" height="18.5" x=".5" y=".5" fill="none" clip-path="url(#clipPath5)"/></g><g fill="#FFF" fill-opacity="0" stroke="#FFF" stroke-opacity="0" transform="translate(50,550)"><rect width="18.5" height="18.5" x=".5" y=".5" stroke="none" clip-path="url(#clipPath5)"/></g><g transform="translate(50,550)"><rect width="18.5" height="18.5" x=".5" y=".5" fill="none" clip-path="url(#clipPath5)"/></g><g fill="#FFF" fill-opacity="0" stroke="#FFF" stroke-opacity="0" transform="translate(260,510)"><rect width="18.5" height="18.5" x=".5" y=".5" stroke="none" clip-path="url(#clipPath5)"/></g><g transform="translate(260,510)"><rect width="18.5" height="18.5" x=".5" y=".5" fill="none" clip-path="url(#clipPath5)"/></g><g fill="#FFF" fill-opacity="0" stroke="#FFF" stroke-opacity="0" transform="translate(230,510)"><rect width="18.5" height="18.5" x=".5" y=".5" stroke="none" clip-path="url(#clipPath5)"/></g><g transform="translate(230,510)"><rect width="18.5" height="18.5" x=".5" y=".5" fill="none" clip-path="url(#clipPath5)"/></g><g fill="#FFF" fill-opacity="0" stroke="#FFF" stroke-opacity="0" transform="translate(200,510)"><rect width="18.5" height="18.5" x=".5" y=".5" stroke="none" clip-path="url(#clipPath5)"/></g><g transform="translate(200,510)"><rect width="18.5" height="18.5" x=".5" y=".5" fill="none" clip-path="url(#clipPath5)"/></g><g fill="#FFF" fill-opacity="0" stroke="#FFF" stroke-opacity="0" transform="translate(170,510)"><rect width="18.5" height="18.5" x=".5" y=".5" stroke="none" clip-path="url(#clipPath5)"/></g><g transform="translate(170,510)"><rect width="18.5" height="18.5" x=".5" y=".5" fill="none" clip-path="url(#clipPath5)"/></g><g fill="#FFF" fill-opacity="0" stroke="#FFF" stroke-opacity="0" transform="translate(140,510)"><rect width="18.5" height="18.5" x=".5" y=".5" stroke="none" clip-path="url(#clipPath5)"/></g><g transform="translate(140,510)"><rect width="18.5" height="18.5" x=".5" y=".5" fill="none" clip-path="url(#clipPath5)"/></g><g fill="#FFF" fill-opacity="0" stroke="#FFF" stroke-opacity="0" transform="translate(110,510)"><rect width="18.5" height="18.5" x=".5" y=".5" stroke="none" clip-path="url(#clipPath5)"/></g><g transform="translate(110,510)"><rect width="18.5" height="18.5" x=".5" y=".5" fill="none" clip-path="url(#clipPath5)"/></g><g fill="#FFF" fill-opacity="0" stroke="#FFF" stroke-opacity="0" transform="translate(80,510)"><rect width="18.5" height="18.5" x=".5" y=".5" stroke="none" clip-path="url(#clipPath5)"/></g><g transform="translate(80,510)"><rect width="18.5" height="18.5" x=".5" y=".5" fill="none" clip-path="url(#clipPath5)"/></g><g fill="#FFF" fill-opacity="0" stroke="#FFF" stroke-opacity="0" transform="translate(50,510)"><rect width="18.5" height="18.5" x=".5" y=".5" stroke="none" clip-path="url(#clipPath5)"/></g><g transform="translate(50,510)"><rect width="18.5" height="18.5" x=".5" y=".5" fill="none" clip-path="url(#clipPath5)"/></g><g fill="#FFF" fill-opacity="0" stroke="#FFF" stroke-opacity="0" transform="translate(260,470)"><rect width="18.5" height="18.5" x=".5" y=".5" stroke="none" clip-path="url(#clipPath5)"/></g><g transform="translate(260,470)"><rect width="18.5" height="18.5" x=".5" y=".5" fill="none" clip-path="url(#clipPath5)"/></g><g fill="#FFF" fill-opacity="0" stroke="#FFF" stroke-opacity="0" transform="translate(230,470)"><rect width="18.5" height="18.5" x=".5" y=".5" stroke="none" clip-path="url(#clipPath5)"/></g><g transform="translate(230,470)"><rect width="18.5" height="18.5" x=".5" y=".5" fill="none" clip-path="url(#clipPath5)"/></g><g fill="#FFF" fill-opacity="0" stroke="#FFF" stroke-opacity="0" transform="translate(200,470)"><rect width="18.5" height="18.5" x=".5" y=".5" stroke="none" clip-path="url(#clipPath5)"/></g><g transform="translate(200,470)"><rect width="18.5" height="18.5" x=".5" y=".5" fill="none" clip-path="url(#clipPath5)"/></g><g fill="#FFF" fill-opacity="0" stroke="#FFF" stroke-opacity="0" transform="translate(170,470)"><rect width="18.5" height="18.5" x=".5" y=".5" stroke="none" clip-path="url(#clipPath5)"/></g><g transform="translate(170,470)"><rect width="18.5" height="18.5" x=".5" y=".5" fill="none" clip-path="url(#clipPath5)"/></g><g fill="#FFF" fill-opacity="0" stroke="#FFF" stroke-opacity="0" transform="translate(140,470)"><rect width="18.5" height="18.5" x=".5" y=".5" stroke="none" clip-path="url(#clipPath5)"/></g><g transform="translate(140,470)"><rect width="18.5" height="18.5" x=".5" y=".5" fill="none" clip-path="url(#clipPath5)"/></g><g fill="#FFF" fill-opacity="0" stroke="#FFF" stroke-opacity="0" transform="translate(110,470)"><rect width="18.5" height="18.5" x=".5" y=".5" stroke="none" clip-path="url(#clipPath5)"/></g><g transform="translate(110,470)"><rect width="18.5" height="18.5" x=".5" y=".5" fill="none" clip-path="url(#clipPath5)"/></g><g fill="#FFF" fill-opacity="0" stroke="#FFF" stroke-opacity="0" transform="translate(80,470)"><rect width="18.5" height="18.5" x=".5" y=".5" stroke="none" clip-path="url(#clipPath5)"/></g><g transform="translate(80,470)"><rect width="18.5" height="18.5" x=".5" y=".5" fill="none" clip-path="url(#clipPath5)"/></g><g fill="#FFF" fill-opacity="0" stroke="#FFF" stroke-opacity="0" transform="translate(50,470)"><rect width="18.5" height="18.5" x=".5" y=".5" stroke="none" clip-path="url(#clipPath5)"/></g><g transform="translate(50,470)"><rect width="18.5" height="18.5" x=".5" y=".5" fill="none" clip-path="url(#clipPath5)"/></g><g fill="#FFF" fill-opacity="0" stroke="#FFF" stroke-opacity="0" transform="translate(260,430)"><rect width="18.5" height="18.5" x=".5" y=".5" stroke="none" clip-path="url(#clipPath5)"/></g><g transform="translate(260,430)"><rect width="18.5" height="18.5" x=".5" y=".5" fill="none" clip-path="url(#clipPath5)"/></g><g fill="#FFF" fill-opacity="0" stroke="#FFF" stroke-opacity="0" transform="translate(230,430)"><rect width="18.5" height="18.5" x=".5" y=".5" stroke="none" clip-path="url(#clipPath5)"/></g><g transform="translate(230,430)"><rect width="18.5" height="18.5" x=".5" y=".5" fill="none" clip-path="url(#clipPath5)"/></g><g fill="#FFF" fill-opacity="0" stroke="#FFF" stroke-opacity="0" transform="translate(200,430)"><rect width="18.5" height="18.5" x=".5" y=".5" stroke="none" clip-path="url(#clipPath5)"/></g><g transform="translate(200,430)"><rect width="18.5" height="18.5" x=".5" y=".5" fill="none" clip-path="url(#clipPath5)"/></g><g fill="#FFF" fill-opacity="0" stroke="#FFF" stroke-opacity="0" transform="translate(170,430)"><rect width="18.5" height="18.5" x=".5" y=".5" stroke="none" clip-path="url(#clipPath5)"/></g><g transform="translate(170,430)"><rect width="18.5" height="18.5" x=".5" y=".5" fill="none" clip-path="url(#clipPath5)"/></g><g fill="#FFF" fill-opacity="0" stroke="#FFF" stroke-opacity="0" transform="translate(140,430)"><rect width="18.5" height="18.5" x=".5" y=".5" stroke="none" clip-path="url(#clipPath5)"/></g><g transform="translate(140,430)"><rect width="18.5" height="18.5" x=".5" y=".5" fill="none" clip-path="url(#clipPath5)"/></g><g fill="#FFF" fill-opacity="0" stroke="#FFF" stroke-opacity="0" transform="translate(110,430)"><rect width="18.5" height="18.5" x=".5" y=".5" stroke="none" clip-path="url(#clipPath5)"/></g><g transform="translate(110,430)"><rect width="18.5" height="18.5" x=".5" y=".5" fill="none" clip-path="url(#clipPath5)"/></g><g fill="#FFF" fill-opacity="0" stroke="#FFF" stroke-opacity="0" transform="translate(80,430)"><rect width="18.5" height="18.5" x=".5" y=".5" stroke="none" clip-path="url(#clipPath5)"/></g><g transform="translate(80,430)"><rect width="18.5" height="18.5" x=".5" y=".5" fill="none" clip-path="url(#clipPath5)"/></g><g font-family="sans-serif" font-size="18"><text x="5" y="21.875" stroke="none" clip-path="url(#clipPath6)" transform="translate(40,360)" xml:space="preserve">実質的なUNL</text></g><g fill="#FFF" fill-opacity="0" stroke="#FFF" stroke-opacity="0" transform="translate(50,430)"><rect width="18.5" height="18.5" x=".5" y=".5" stroke="none" clip-path="url(#clipPath5)"/></g><g transform="translate(50,430)"><rect width="18.5" height="18.5" x=".5" y=".5" fill="none" clip-path="url(#clipPath5)"/></g><g fill="#ff0" stroke="#ff0"><path stroke="none" d="M0.5 0.5 L128.5 0.5 L139 12.5 L139 69 L0.5 69 Z" clip-path="url(#clipPath7)" transform="translate(390,420)"/><path fill="none" stroke="#000" d="M0.5 0.5 L128.5 0.5 L139 12.5 L139 69 L0.5 69 Z" clip-path="url(#clipPath7)" transform="translate(390,420)"/><path fill="none" stroke="#000" d="M128.5 0.5 L128.5 12.5 L139 12.5" clip-path="url(#clipPath7)" transform="translate(390,420)"/></g><g font-family="sans-serif" font-size="14"><text x="5" y="18.109" stroke="none" clip-path="url(#clipPath7)" transform="translate(390,420)" xml:space="preserve">UnsteadyBは</text><text x="5" y="34.219" stroke="none" clip-path="url(#clipPath7)" transform="translate(390,420)" xml:space="preserve">予定通り有効化</text></g><g fill="#FFF" fill-opacity="0" stroke="#FFF" stroke-opacity="0" transform="translate(40,80)"><rect width="248.5" height="178.5" x=".5" y=".5" stroke="none" clip-path="url(#clipPath3)"/></g><g stroke-dasharray="8 5" stroke-linecap="butt" stroke-miterlimit="5" transform="translate(40,80)"><rect width="248.5" height="178.5" x=".5" y=".5" fill="none" clip-path="url(#clipPath3)"/></g><g fill="#FFF" fill-opacity="0" stroke="#FFF" stroke-opacity="0" transform="translate(40,80)"><rect width="248.5" height="218.5" x=".5" y=".5" stroke="none" clip-path="url(#clipPath4)"/></g><g stroke-dasharray="8 5" stroke-linecap="butt" stroke-miterlimit="5" transform="translate(40,80)"><rect width="248.5" height="218.5" x=".5" y=".5" fill="none" clip-path="url(#clipPath4)"/><text x="71" y="18.109" stroke="none" clip-path="url(#clipPath4)" font-family="sans-serif" font-size="14" xml:space="preserve">定足数: 31/38</text></g><g font-family="sans-serif" font-size="18"><text x="5" y="21.875" stroke="none" clip-path="url(#clipPath6)" transform="translate(360,40)" xml:space="preserve">Negative UNL (オンレジャー)</text></g><g fill="#FFF" fill-opacity="0" stroke="#FFF" stroke-opacity="0" transform="translate(200,270)"><rect width="18.5" height="18.5" x=".5" y=".5" stroke="none" clip-path="url(#clipPath5)"/></g><g transform="translate(200,270)"><rect width="18.5" height="18.5" x=".5" y=".5" fill="none" clip-path="url(#clipPath5)"/></g><g fill="#FFF" fill-opacity="0" stroke="#FFF" stroke-opacity="0" transform="translate(170,270)"><rect width="18.5" height="18.5" x=".5" y=".5" stroke="none" clip-path="url(#clipPath5)"/></g><g transform="translate(170,270)"><rect width="18.5" height="18.5" x=".5" y=".5" fill="none" clip-path="url(#clipPath5)"/></g><g fill="#FFF" fill-opacity="0" stroke="#FFF" stroke-opacity="0" transform="translate(140,270)"><rect width="18.5" height="18.5" x=".5" y=".5" stroke="none" clip-path="url(#clipPath5)"/></g><g transform="translate(140,270)"><rect width="18.5" height="18.5" x=".5" y=".5" fill="none" clip-path="url(#clipPath5)"/></g><g fill="#FFF" fill-opacity="0" stroke="#FFF" stroke-opacity="0" transform="translate(110,270)"><rect width="18.5" height="18.5" x=".5" y=".5" stroke="none" clip-path="url(#clipPath5)"/></g><g transform="translate(110,270)"><rect width="18.5" height="18.5" x=".5" y=".5" fill="none" clip-path="url(#clipPath5)"/></g><g fill="#FFF" fill-opacity="0" stroke="#FFF" stroke-opacity="0" transform="translate(80,270)"><rect width="18.5" height="18.5" x=".5" y=".5" stroke="none" clip-path="url(#clipPath5)"/></g><g transform="translate(80,270)"><rect width="18.5" height="18.5" x=".5" y=".5" fill="none" clip-path="url(#clipPath5)"/></g><g fill="#FFF" fill-opacity="0" stroke="#FFF" stroke-opacity="0" transform="translate(50,270)"><rect width="18.5" height="18.5" x=".5" y=".5" stroke="none" clip-path="url(#clipPath5)"/></g><g transform="translate(50,270)"><rect width="18.5" height="18.5" x=".5" y=".5" fill="none" clip-path="url(#clipPath5)"/></g><g fill="#FFF" fill-opacity="0" stroke="#FFF" stroke-opacity="0" transform="translate(230,270)"><rect width="18.5" height="18.5" x=".5" y=".5" stroke="none" clip-path="url(#clipPath5)"/></g><g fill="#787878" stroke="#787878" stroke-dasharray="8 5" stroke-linecap="butt" stroke-miterlimit="5" transform="translate(230,270)"><rect width="18.5" height="18.5" x=".5" y=".5" fill="none" clip-path="url(#clipPath5)"/></g><g fill="#FFF" fill-opacity="0" stroke="#FFF" stroke-opacity="0" transform="translate(230,230)"><rect width="18.5" height="18.5" x=".5" y=".5" stroke="none" clip-path="url(#clipPath5)"/></g><g transform="translate(230,230)"><rect width="18.5" height="18.5" x=".5" y=".5" fill="none" clip-path="url(#clipPath5)"/></g><g fill="#FFF" fill-opacity="0" stroke="#FFF" stroke-opacity="0" transform="translate(200,230)"><rect width="18.5" height="18.5" x=".5" y=".5" stroke="none" clip-path="url(#clipPath5)"/></g><g transform="translate(200,230)"><rect width="18.5" height="18.5" x=".5" y=".5" fill="none" clip-path="url(#clipPath5)"/></g><g fill="#FFF" fill-opacity="0" stroke="#FFF" stroke-opacity="0" transform="translate(170,230)"><rect width="18.5" height="18.5" x=".5" y=".5" stroke="none" clip-path="url(#clipPath5)"/></g><g transform="translate(170,230)"><rect width="18.5" height="18.5" x=".5" y=".5" fill="none" clip-path="url(#clipPath5)"/></g><g fill="#FFF" fill-opacity="0" stroke="#FFF" stroke-opacity="0" transform="translate(140,230)"><rect width="18.5" height="18.5" x=".5" y=".5" stroke="none" clip-path="url(#clipPath5)"/></g><g transform="translate(140,230)"><rect width="18.5" height="18.5" x=".5" y=".5" fill="none" clip-path="url(#clipPath5)"/></g><g fill="#FFF" fill-opacity="0" stroke="#FFF" stroke-opacity="0" transform="translate(110,230)"><rect width="18.5" height="18.5" x=".5" y=".5" stroke="none" clip-path="url(#clipPath5)"/></g><g transform="translate(110,230)"><rect width="18.5" height="18.5" x=".5" y=".5" fill="none" clip-path="url(#clipPath5)"/></g><g fill="#FFF" fill-opacity="0" stroke="#FFF" stroke-opacity="0" transform="translate(80,230)"><rect width="18.5" height="18.5" x=".5" y=".5" stroke="none" clip-path="url(#clipPath5)"/></g><g transform="translate(80,230)"><rect width="18.5" height="18.5" x=".5" y=".5" fill="none" clip-path="url(#clipPath5)"/></g><g fill="#FFF" fill-opacity="0" stroke="#FFF" stroke-opacity="0" transform="translate(50,230)"><rect width="18.5" height="18.5" x=".5" y=".5" stroke="none" clip-path="url(#clipPath5)"/></g><g transform="translate(50,230)"><rect width="18.5" height="18.5" x=".5" y=".5" fill="none" clip-path="url(#clipPath5)"/></g><g fill="#FFF" fill-opacity="0" stroke="#FFF" stroke-opacity="0" transform="translate(260,190)"><rect width="18.5" height="18.5" x=".5" y=".5" stroke="none" clip-path="url(#clipPath5)"/></g><g transform="translate(260,190)"><rect width="18.5" height="18.5" x=".5" y=".5" fill="none" clip-path="url(#clipPath5)"/></g><g fill="#FFF" fill-opacity="0" stroke="#FFF" stroke-opacity="0" transform="translate(230,190)"><rect width="18.5" height="18.5" x=".5" y=".5" stroke="none" clip-path="url(#clipPath5)"/></g><g transform="translate(230,190)"><rect width="18.5" height="18.5" x=".5" y=".5" fill="none" clip-path="url(#clipPath5)"/></g><g fill="#FFF" fill-opacity="0" stroke="#FFF" stroke-opacity="0" transform="translate(200,190)"><rect width="18.5" height="18.5" x=".5" y=".5" stroke="none" clip-path="url(#clipPath5)"/></g><g transform="translate(200,190)"><rect width="18.5" height="18.5" x=".5" y=".5" fill="none" clip-path="url(#clipPath5)"/></g><g fill="#FFF" fill-opacity="0" stroke="#FFF" stroke-opacity="0" transform="translate(170,190)"><rect width="18.5" height="18.5" x=".5" y=".5" stroke="none" clip-path="url(#clipPath5)"/></g><g transform="translate(170,190)"><rect width="18.5" height="18.5" x=".5" y=".5" fill="none" clip-path="url(#clipPath5)"/></g><g fill="#FFF" fill-opacity="0" stroke="#FFF" stroke-opacity="0" transform="translate(140,190)"><rect width="18.5" height="18.5" x=".5" y=".5" stroke="none" clip-path="url(#clipPath5)"/></g><g transform="translate(140,190)"><rect width="18.5" height="18.5" x=".5" y=".5" fill="none" clip-path="url(#clipPath5)"/></g><g fill="#FFF" fill-opacity="0" stroke="#FFF" stroke-opacity="0" transform="translate(110,190)"><rect width="18.5" height="18.5" x=".5" y=".5" stroke="none" clip-path="url(#clipPath5)"/></g><g transform="translate(110,190)"><rect width="18.5" height="18.5" x=".5" y=".5" fill="none" clip-path="url(#clipPath5)"/></g><g fill="#FFF" fill-opacity="0" stroke="#FFF" stroke-opacity="0" transform="translate(80,190)"><rect width="18.5" height="18.5" x=".5" y=".5" stroke="none" clip-path="url(#clipPath5)"/></g><g transform="translate(80,190)"><rect width="18.5" height="18.5" x=".5" y=".5" fill="none" clip-path="url(#clipPath5)"/></g><g fill="#FFF" fill-opacity="0" stroke="#FFF" stroke-opacity="0" transform="translate(50,190)"><rect width="18.5" height="18.5" x=".5" y=".5" stroke="none" clip-path="url(#clipPath5)"/></g><g transform="translate(50,190)"><rect width="18.5" height="18.5" x=".5" y=".5" fill="none" clip-path="url(#clipPath5)"/></g><g fill="#FFF" fill-opacity="0" stroke="#FFF" stroke-opacity="0" transform="translate(260,150)"><rect width="18.5" height="18.5" x=".5" y=".5" stroke="none" clip-path="url(#clipPath5)"/></g><g transform="translate(260,150)"><rect width="18.5" height="18.5" x=".5" y=".5" fill="none" clip-path="url(#clipPath5)"/></g><g fill="#FFF" fill-opacity="0" stroke="#FFF" stroke-opacity="0" transform="translate(230,150)"><rect width="18.5" height="18.5" x=".5" y=".5" stroke="none" clip-path="url(#clipPath5)"/></g><g transform="translate(230,150)"><rect width="18.5" height="18.5" x=".5" y=".5" fill="none" clip-path="url(#clipPath5)"/></g><g fill="#FFF" fill-opacity="0" stroke="#FFF" stroke-opacity="0" transform="translate(200,150)"><rect width="18.5" height="18.5" x=".5" y=".5" stroke="none" clip-path="url(#clipPath5)"/></g><g transform="translate(200,150)"><rect width="18.5" height="18.5" x=".5" y=".5" fill="none" clip-path="url(#clipPath5)"/></g><g fill="#FFF" fill-opacity="0" stroke="#FFF" stroke-opacity="0" transform="translate(170,150)"><rect width="18.5" height="18.5" x=".5" y=".5" stroke="none" clip-path="url(#clipPath5)"/></g><g transform="translate(170,150)"><rect width="18.5" height="18.5" x=".5" y=".5" fill="none" clip-path="url(#clipPath5)"/></g><g fill="#FFF" fill-opacity="0" stroke="#FFF" stroke-opacity="0" transform="translate(140,150)"><rect width="18.5" height="18.5" x=".5" y=".5" stroke="none" clip-path="url(#clipPath5)"/></g><g transform="translate(140,150)"><rect width="18.5" height="18.5" x=".5" y=".5" fill="none" clip-path="url(#clipPath5)"/></g><g fill="#FFF" fill-opacity="0" stroke="#FFF" stroke-opacity="0" transform="translate(110,150)"><rect width="18.5" height="18.5" x=".5" y=".5" stroke="none" clip-path="url(#clipPath5)"/></g><g transform="translate(110,150)"><rect width="18.5" height="18.5" x=".5" y=".5" fill="none" clip-path="url(#clipPath5)"/></g><g fill="#FFF" fill-opacity="0" stroke="#FFF" stroke-opacity="0" transform="translate(80,150)"><rect width="18.5" height="18.5" x=".5" y=".5" stroke="none" clip-path="url(#clipPath5)"/></g><g transform="translate(80,150)"><rect width="18.5" height="18.5" x=".5" y=".5" fill="none" clip-path="url(#clipPath5)"/></g><g fill="#FFF" fill-opacity="0" stroke="#FFF" stroke-opacity="0" transform="translate(50,150)"><rect width="18.5" height="18.5" x=".5" y=".5" stroke="none" clip-path="url(#clipPath5)"/></g><g transform="translate(50,150)"><rect width="18.5" height="18.5" x=".5" y=".5" fill="none" clip-path="url(#clipPath5)"/></g><g fill="#FFF" fill-opacity="0" stroke="#FFF" stroke-opacity="0" transform="translate(260,110)"><rect width="18.5" height="18.5" x=".5" y=".5" stroke="none" clip-path="url(#clipPath5)"/></g><g transform="translate(260,110)"><rect width="18.5" height="18.5" x=".5" y=".5" fill="none" clip-path="url(#clipPath5)"/></g><g fill="#FFF" fill-opacity="0" stroke="#FFF" stroke-opacity="0" transform="translate(230,110)"><rect width="18.5" height="18.5" x=".5" y=".5" stroke="none" clip-path="url(#clipPath5)"/></g><g transform="translate(230,110)"><rect width="18.5" height="18.5" x=".5" y=".5" fill="none" clip-path="url(#clipPath5)"/></g><g fill="#FFF" fill-opacity="0" stroke="#FFF" stroke-opacity="0" transform="translate(200,110)"><rect width="18.5" height="18.5" x=".5" y=".5" stroke="none" clip-path="url(#clipPath5)"/></g><g transform="translate(200,110)"><rect width="18.5" height="18.5" x=".5" y=".5" fill="none" clip-path="url(#clipPath5)"/></g><g fill="#FFF" fill-opacity="0" stroke="#FFF" stroke-opacity="0" transform="translate(170,110)"><rect width="18.5" height="18.5" x=".5" y=".5" stroke="none" clip-path="url(#clipPath5)"/></g><g transform="translate(170,110)"><rect width="18.5" height="18.5" x=".5" y=".5" fill="none" clip-path="url(#clipPath5)"/></g><g fill="#FFF" fill-opacity="0" stroke="#FFF" stroke-opacity="0" transform="translate(140,110)"><rect width="18.5" height="18.5" x=".5" y=".5" stroke="none" clip-path="url(#clipPath5)"/></g><g transform="translate(140,110)"><rect width="18.5" height="18.5" x=".5" y=".5" fill="none" clip-path="url(#clipPath5)"/></g><g fill="#FFF" fill-opacity="0" stroke="#FFF" stroke-opacity="0" transform="translate(110,110)"><rect width="18.5" height="18.5" x=".5" y=".5" stroke="none" clip-path="url(#clipPath5)"/></g><g transform="translate(110,110)"><rect width="18.5" height="18.5" x=".5" y=".5" fill="none" clip-path="url(#clipPath5)"/></g><g fill="#FFF" fill-opacity="0" stroke="#FFF" stroke-opacity="0" transform="translate(80,110)"><rect width="18.5" height="18.5" x=".5" y=".5" stroke="none" clip-path="url(#clipPath5)"/></g><g transform="translate(80,110)"><rect width="18.5" height="18.5" x=".5" y=".5" fill="none" clip-path="url(#clipPath5)"/></g><g font-family="sans-serif" font-size="18"><text x="5" y="21.875" stroke="none" clip-path="url(#clipPath6)" transform="translate(40,40)" xml:space="preserve">UNLの設定</text></g><g fill="#FFF" fill-opacity="0" stroke="#FFF" stroke-opacity="0" transform="translate(50,110)"><rect width="18.5" height="18.5" x=".5" y=".5" stroke="none" clip-path="url(#clipPath5)"/></g><g transform="translate(50,110)"><rect width="18.5" height="18.5" x=".5" y=".5" fill="none" clip-path="url(#clipPath5)"/></g><g><path fill="none" d="M10.7983 11.4545 L60.5 170.5" clip-path="url(#clipPath8)" transform="translate(370,250)"/><path fill="none" d="M7.8031 23.6619 L10.6491 10.9772 L20.2113 19.7843" clip-path="url(#clipPath8)" transform="translate(370,250)"/></g><g><path fill="none" d="M11.317 129.9233 L180.5 10.5" clip-path="url(#clipPath9)" transform="translate(210,470)"/><path fill="none" d="M23.8546 129.0295 L10.9085 130.2117 L16.3577 118.4089" clip-path="url(#clipPath9)" transform="translate(210,470)"/></g></g></svg>