<svg xmlns="http://www.w3.org/2000/svg" xmlns:xlink="http://www.w3.org/1999/xlink" width="670" height="300" fill="#000" fill-opacity="1" stroke="#000" stroke-dasharray="none" stroke-dashoffset="0" stroke-linecap="square" stroke-linejoin="miter" stroke-miterlimit="10" stroke-opacity="1" stroke-width="1" color-interpolation="auto" color-rendering="auto" font-family="'Dialog'" font-size="12" font-style="normal" font-weight="normal" image-rendering="auto" shape-rendering="auto" text-rendering="auto" viewBox="20 10 670 300"><g><defs id="defs1"><clipPath id="clipPath1" clipPathUnits="userSpaceOnUse"><path d="M0 0 L2147483647 0 L2147483647 2147483647 L0 2147483647 L0 0 Z"/></clipPath><clipPath id="clipPath2" clipPathUnits="userSpaceOnUse"><path d="M0 0 L0 180 L250 180 L250 0 Z"/></clipPath><clipPath id="clipPath3" clipPathUnits="userSpaceOnUse"><path d="M0 0 L0 220 L250 220 L250 0 Z"/></clipPath><clipPath id="clipPath4" clipPathUnits="userSpaceOnUse"><path d="M0 0 L0 30 L270 30 L270 0 Z"/></clipPath><clipPath id="clipPath5" clipPathUnits="userSpaceOnUse"><path d="M0 0 L0 20 L20 20 L20 0 Z"/></clipPath><clipPath id="clipPath6" clipPathUnits="userSpaceOnUse"><path d="M0 0 L0 220 L310 220 L310 0 Z"/></clipPath></defs><g fill="#FFF" fill-opacity="0" stroke="#FFF" stroke-opacity="0" transform="translate(40,70)"><rect width="248.5" height="178.5" x=".5" y=".5" stroke="none" clip-path="url(#clipPath2)"/></g><g stroke-dasharray="8 5" stroke-linecap="butt" stroke-miterlimit="5" transform="translate(40,70)"><rect width="248.5" height="178.5" x=".5" y=".5" fill="none" clip-path="url(#clipPath2)"/></g><g fill="#FFF" fill-opacity="0" stroke="#FFF" stroke-opacity="0" transform="translate(40,70)"><rect width="248.5" height="218.5" x=".5" y=".5" stroke="none" clip-path="url(#clipPath3)"/></g><g stroke-dasharray="8 5" stroke-linecap="butt" stroke-miterlimit="5" transform="translate(40,70)"><rect width="248.5" height="218.5" x=".5" y=".5" fill="none" clip-path="url(#clipPath3)"/><text x="71" y="18.109" stroke="none" clip-path="url(#clipPath3)" font-family="sans-serif" font-size="14" xml:space="preserve">Quorum: 31/38</text></g><g font-family="sans-serif" font-size="18"><text x="5" y="21.875" stroke="none" clip-path="url(#clipPath4)" transform="translate(360,30)" xml:space="preserve">Negative UNL (on-ledger)</text></g><g fill="#FFF" fill-opacity="0" stroke="#FFF" stroke-opacity="0" transform="translate(200,260)"><rect width="18.5" height="18.5" x=".5" y=".5" stroke="none" clip-path="url(#clipPath5)"/></g><g fill="#787878" stroke="#787878" transform="translate(200,260)"><rect width="18.5" height="18.5" x=".5" y=".5" fill="none" clip-path="url(#clipPath5)"/></g><g fill="#FFF" fill-opacity="0" stroke="#FFF" stroke-opacity="0" transform="translate(170,260)"><rect width="18.5" height="18.5" x=".5" y=".5" stroke="none" clip-path="url(#clipPath5)"/></g><g transform="translate(170,260)"><rect width="18.5" height="18.5" x=".5" y=".5" fill="none" clip-path="url(#clipPath5)"/></g><g fill="#FFF" fill-opacity="0" stroke="#FFF" stroke-opacity="0" transform="translate(140,260)"><rect width="18.5" height="18.5" x=".5" y=".5" stroke="none" clip-path="url(#clipPath5)"/></g><g transform="translate(140,260)"><rect width="18.5" height="18.5" x=".5" y=".5" fill="none" clip-path="url(#clipPath5)"/></g><g fill="#FFF" fill-opacity="0" stroke="#FFF" stroke-opacity="0" transform="translate(110,260)"><rect width="18.5" height="18.5" x=".5" y=".5" stroke="none" clip-path="url(#clipPath5)"/></g><g transform="translate(110,260)"><rect width="18.5" height="18.5" x=".5" y=".5" fill="none" clip-path="url(#clipPath5)"/></g><g fill="#FFF" fill-opacity="0" stroke="#FFF" stroke-opacity="0" transform="translate(80,260)"><rect width="18.5" height="18.5" x=".5" y=".5" stroke="none" clip-path="url(#clipPath5)"/></g><g transform="translate(80,260)"><rect width="18.5" height="18.5" x=".5" y=".5" fill="none" clip-path="url(#clipPath5)"/></g><g fill="#FFF" fill-opacity="0" stroke="#FFF" stroke-opacity="0" transform="translate(50,260)"><rect width="18.5" height="18.5" x=".5" y=".5" stroke="none" clip-path="url(#clipPath5)"/></g><g transform="translate(50,260)"><rect width="18.5" height="18.5" x=".5" y=".5" fill="none" clip-path="url(#clipPath5)"/></g><g fill="#FFF" fill-opacity="0" stroke="#FFF" stroke-opacity="0" transform="translate(230,260)"><rect width="18.5" height="18.5" x=".5" y=".5" stroke="none" clip-path="url(#clipPath5)"/></g><g fill="#787878" stroke="#787878" transform="translate(230,260)"><rect width="18.5" height="18.5" x=".5" y=".5" fill="none" clip-path="url(#clipPath5)"/></g><g fill="#FFF" fill-opacity="0" stroke="#FFF" stroke-opacity="0" transform="translate(230,220)"><rect width="18.5" height="18.5" x=".5" y=".5" stroke="none" clip-path="url(#clipPath5)"/></g><g transform="translate(230,220)"><rect width="18.5" height="18.5" x=".5" y=".5" fill="none" clip-path="url(#clipPath5)"/></g><g fill="#FFF" fill-opacity="0" stroke="#FFF" stroke-opacity="0" transform="translate(200,220)"><rect width="18.5" height="18.5" x=".5" y=".5" stroke="none" clip-path="url(#clipPath5)"/></g><g transform="translate(200,220)"><rect width="18.5" height="18.5" x=".5" y=".5" fill="none" clip-path="url(#clipPath5)"/></g><g fill="#FFF" fill-opacity="0" stroke="#FFF" stroke-opacity="0" transform="translate(170,220)"><rect width="18.5" height="18.5" x=".5" y=".5" stroke="none" clip-path="url(#clipPath5)"/></g><g transform="translate(170,220)"><rect width="18.5" height="18.5" x=".5" y=".5" fill="none" clip-path="url(#clipPath5)"/></g><g fill="#FFF" fill-opacity="0" stroke="#FFF" stroke-opacity="0" transform="translate(140,220)"><rect width="18.5" height="18.5" x=".5" y=".5" stroke="none" clip-path="url(#clipPath5)"/></g><g transform="translate(140,220)"><rect width="18.5" height="18.5" x=".5" y=".5" fill="none" clip-path="url(#clipPath5)"/></g><g fill="#FFF" fill-opacity="0" stroke="#FFF" stroke-opacity="0" transform="translate(110,220)"><rect width="18.5" height="18.5" x=".5" y=".5" stroke="none" clip-path="url(#clipPath5)"/></g><g transform="translate(110,220)"><rect width="18.5" height="18.5" x=".5" y=".5" fill="none" clip-path="url(#clipPath5)"/></g><g fill="#FFF" fill-opacity="0" stroke="#FFF" stroke-opacity="0" transform="translate(80,220)"><rect width="18.5" height="18.5" x=".5" y=".5" stroke="none" clip-path="url(#clipPath5)"/></g><g transform="translate(80,220)"><rect width="18.5" height="18.5" x=".5" y=".5" fill="none" clip-path="url(#clipPath5)"/></g><g fill="#FFF" fill-opacity="0" stroke="#FFF" stroke-opacity="0" transform="translate(50,220)"><rect width="18.5" height="18.5" x=".5" y=".5" stroke="none" clip-path="url(#clipPath5)"/></g><g transform="translate(50,220)"><rect width="18.5" height="18.5" x=".5" y=".5" fill="none" clip-path="url(#clipPath5)"/></g><g fill="#FFF" fill-opacity="0" stroke="#FFF" stroke-opacity="0" transform="translate(260,180)"><rect width="18.5" height="18.5" x=".5" y=".5" stroke="none" clip-path="url(#clipPath5)"/></g><g transform="translate(260,180)"><rect width="18.5" height="18.5" x=".5" y=".5" fill="none" clip-path="url(#clipPath5)"/></g><g fill="#FFF" fill-opacity="0" stroke="#FFF" stroke-opacity="0" transform="translate(230,180)"><rect width="18.5" height="18.5" x=".5" y=".5" stroke="none" clip-path="url(#clipPath5)"/></g><g transform="translate(230,180)"><rect width="18.5" height="18.5" x=".5" y=".5" fill="none" clip-path="url(#clipPath5)"/></g><g fill="#FFF" fill-opacity="0" stroke="#FFF" stroke-opacity="0" transform="translate(200,180)"><rect width="18.5" height="18.5" x=".5" y=".5" stroke="none" clip-path="url(#clipPath5)"/></g><g transform="translate(200,180)"><rect width="18.5" height="18.5" x=".5" y=".5" fill="none" clip-path="url(#clipPath5)"/></g><g fill="#FFF" fill-opacity="0" stroke="#FFF" stroke-opacity="0" transform="translate(170,180)"><rect width="18.5" height="18.5" x=".5" y=".5" stroke="none" clip-path="url(#clipPath5)"/></g><g transform="translate(170,180)"><rect width="18.5" height="18.5" x=".5" y=".5" fill="none" clip-path="url(#clipPath5)"/></g><g fill="#FFF" fill-opacity="0" stroke="#FFF" stroke-opacity="0" transform="translate(140,180)"><rect width="18.5" height="18.5" x=".5" y=".5" stroke="none" clip-path="url(#clipPath5)"/></g><g transform="translate(140,180)"><rect width="18.5" height="18.5" x=".5" y=".5" fill="none" clip-path="url(#clipPath5)"/></g><g fill="#FFF" fill-opacity="0" stroke="#FFF" stroke-opacity="0" transform="translate(110,180)"><rect width="18.5" height="18.5" x=".5" y=".5" stroke="none" clip-path="url(#clipPath5)"/></g><g transform="translate(110,180)"><rect width="18.5" height="18.5" x=".5" y=".5" fill="none" clip-path="url(#clipPath5)"/></g><g fill="#FFF" fill-opacity="0" stroke="#FFF" stroke-opacity="0" transform="translate(80,180)"><rect width="18.5" height="18.5" x=".5" y=".5" stroke="none" clip-path="url(#clipPath5)"/></g><g transform="translate(80,180)"><rect width="18.5" height="18.5" x=".5" y=".5" fill="none" clip-path="url(#clipPath5)"/></g><g fill="#FFF" fill-opacity="0" stroke="#FFF" stroke-opacity="0" transform="translate(50,180)"><rect width="18.5" height="18.5" x=".5" y=".5" stroke="none" clip-path="url(#clipPath5)"/></g><g transform="translate(50,180)"><rect width="18.5" height="18.5" x=".5" y=".5" fill="none" clip-path="url(#clipPath5)"/></g><g fill="#FFF" fill-opacity="0" stroke="#FFF" stroke-opacity="0" transform="translate(260,140)"><rect width="18.5" height="18.5" x=".5" y=".5" stroke="none" clip-path="url(#clipPath5)"/></g><g transform="translate(260,140)"><rect width="18.5" height="18.5" x=".5" y=".5" fill="none" clip-path="url(#clipPath5)"/></g><g fill="#FFF" fill-opacity="0" stroke="#FFF" stroke-opacity="0" transform="translate(230,140)"><rect width="18.5" height="18.5" x=".5" y=".5" stroke="none" clip-path="url(#clipPath5)"/></g><g transform="translate(230,140)"><rect width="18.5" height="18.5" x=".5" y=".5" fill="none" clip-path="url(#clipPath5)"/></g><g fill="#FFF" fill-opacity="0" stroke="#FFF" stroke-opacity="0" transform="translate(200,140)"><rect width="18.5" height="18.5" x=".5" y=".5" stroke="none" clip-path="url(#clipPath5)"/></g><g transform="translate(200,140)"><rect width="18.5" height="18.5" x=".5" y=".5" fill="none" clip-path="url(#clipPath5)"/></g><g fill="#FFF" fill-opacity="0" stroke="#FFF" stroke-opacity="0" transform="translate(170,140)"><rect width="18.5" height="18.5" x=".5" y=".5" stroke="none" clip-path="url(#clipPath5)"/></g><g transform="translate(170,140)"><rect width="18.5" height="18.5" x=".5" y=".5" fill="none" clip-path="url(#clipPath5)"/></g><g fill="#FFF" fill-opacity="0" stroke="#FFF" stroke-opacity="0" transform="translate(140,140)"><rect width="18.5" height="18.5" x=".5" y=".5" stroke="none" clip-path="url(#clipPath5)"/></g><g transform="translate(140,140)"><rect width="18.5" height="18.5" x=".5" y=".5" fill="none" clip-path="url(#clipPath5)"/></g><g fill="#FFF" fill-opacity="0" stroke="#FFF" stroke-opacity="0" transform="translate(110,140)"><rect width="18.5" height="18.5" x=".5" y=".5" stroke="none" clip-path="url(#clipPath5)"/></g><g transform="translate(110,140)"><rect width="18.5" height="18.5" x=".5" y=".5" fill="none" clip-path="url(#clipPath5)"/></g><g fill="#FFF" fill-opacity="0" stroke="#FFF" stroke-opacity="0" transform="translate(80,140)"><rect width="18.5" height="18.5" x=".5" y=".5" stroke="none" clip-path="url(#clipPath5)"/></g><g transform="translate(80,140)"><rect width="18.5" height="18.5" x=".5" y=".5" fill="none" clip-path="url(#clipPath5)"/></g><g fill="#FFF" fill-opacity="0" stroke="#FFF" stroke-opacity="0" transform="translate(50,140)"><rect width="18.5" height="18.5" x=".5" y=".5" stroke="none" clip-path="url(#clipPath5)"/></g><g transform="translate(50,140)"><rect width="18.5" height="18.5" x=".5" y=".5" fill="none" clip-path="url(#clipPath5)"/></g><g fill="#FFF" fill-opacity="0" stroke="#FFF" stroke-opacity="0" transform="translate(260,100)"><rect width="18.5" height="18.5" x=".5" y=".5" stroke="none" clip-path="url(#clipPath5)"/></g><g transform="translate(260,100)"><rect width="18.5" height="18.5" x=".5" y=".5" fill="none" clip-path="url(#clipPath5)"/></g><g fill="#FFF" fill-opacity="0" stroke="#FFF" stroke-opacity="0" transform="translate(230,100)"><rect width="18.5" height="18.5" x=".5" y=".5" stroke="none" clip-path="url(#clipPath5)"/></g><g transform="translate(230,100)"><rect width="18.5" height="18.5" x=".5" y=".5" fill="none" clip-path="url(#clipPath5)"/></g><g fill="#FFF" fill-opacity="0" stroke="#FFF" stroke-opacity="0" transform="translate(200,100)"><rect width="18.5" height="18.5" x=".5" y=".5" stroke="none" clip-path="url(#clipPath5)"/></g><g transform="translate(200,100)"><rect width="18.5" height="18.5" x=".5" y=".5" fill="none" clip-path="url(#clipPath5)"/></g><g fill="#FFF" fill-opacity="0" stroke="#FFF" stroke-opacity="0" transform="translate(170,100)"><rect width="18.5" height="18.5" x=".5" y=".5" stroke="none" clip-path="url(#clipPath5)"/></g><g transform="translate(170,100)"><rect width="18.5" height="18.5" x=".5" y=".5" fill="none" clip-path="url(#clipPath5)"/></g><g fill="#FFF" fill-opacity="0" stroke="#FFF" stroke-opacity="0" transform="translate(140,100)"><rect width="18.5" height="18.5" x=".5" y=".5" stroke="none" clip-path="url(#clipPath5)"/></g><g transform="translate(140,100)"><rect width="18.5" height="18.5" x=".5" y=".5" fill="none" clip-path="url(#clipPath5)"/></g><g fill="#FFF" fill-opacity="0" stroke="#FFF" stroke-opacity="0" transform="translate(110,100)"><rect width="18.5" height="18.5" x=".5" y=".5" stroke="none" clip-path="url(#clipPath5)"/></g><g transform="translate(110,100)"><rect width="18.5" height="18.5" x=".5" y=".5" fill="none" clip-path="url(#clipPath5)"/></g><g fill="#FFF" fill-opacity="0" stroke="#FFF" stroke-opacity="0" transform="translate(80,100)"><rect width="18.5" height="18.5" x=".5" y=".5" stroke="none" clip-path="url(#clipPath5)"/></g><g transform="translate(80,100)"><rect width="18.5" height="18.5" x=".5" y=".5" fill="none" clip-path="url(#clipPath5)"/></g><g fill="#FFF" fill-opacity="0" stroke="#FFF" stroke-opacity="0" transform="translate(360,70)"><rect width="308.5" height="218.5" x=".5" y=".5" stroke="none" clip-path="url(#clipPath6)"/></g><g transform="translate(360,70)"><rect width="308.5" height="218.5" x=".5" y=".5" fill="none" clip-path="url(#clipPath6)"/><path fill="none" d="M1 -10.1094 L309 -10.1094" clip-path="url(#clipPath6)"/><text x="5" y="28.109" stroke="none" clip-path="url(#clipPath6)" font-family="sans-serif" font-size="14" xml:space="preserve">To Disable:</text><text x="5" y="44.219" stroke="none" clip-path="url(#clipPath6)" font-family="sans-serif" font-size="14" xml:space="preserve">(none)</text><text x="5" y="76.438" stroke="none" clip-path="url(#clipPath6)" font-family="sans-serif" font-size="14" xml:space="preserve">To Re-Enable:</text><text x="5" y="92.547" stroke="none" clip-path="url(#clipPath6)" font-family="sans-serif" font-size="14" xml:space="preserve">(none)</text><path fill="none" d="M1 114.6562 L309 114.6562" clip-path="url(#clipPath6)"/><text x="5" y="129.766" stroke="none" clip-path="url(#clipPath6)" font-family="sans-serif" font-size="14" xml:space="preserve">Disabled:</text><text x="5" y="145.875" stroke="none" clip-path="url(#clipPath6)" font-family="sans-serif" font-size="14" xml:space="preserve">(none)</text></g><g font-family="sans-serif" font-size="18"><text x="5" y="21.875" stroke="none" clip-path="url(#clipPath4)" transform="translate(40,30)" xml:space="preserve">Configured UNL</text></g><g fill="#FFF" fill-opacity="0" stroke="#FFF" stroke-opacity="0" transform="translate(50,100)"><rect width="18.5" height="18.5" x=".5" y=".5" stroke="none" clip-path="url(#clipPath5)"/></g><g transform="translate(50,100)"><rect width="18.5" height="18.5" x=".5" y=".5" fill="none" clip-path="url(#clipPath5)"/></g></g></svg>