<svg xmlns="http://www.w3.org/2000/svg" xmlns:xlink="http://www.w3.org/1999/xlink" width="1200" height="1110" fill="#000" fill-opacity="1" stroke="#000" stroke-dasharray="none" stroke-dashoffset="0" stroke-linecap="square" stroke-linejoin="miter" stroke-miterlimit="10" stroke-opacity="1" stroke-width="1" color-interpolation="auto" color-rendering="auto" font-family="'Dialog'" font-size="12" font-style="normal" font-weight="normal" image-rendering="auto" shape-rendering="auto" text-rendering="auto" viewBox="160 180 1200 1110"><g><defs id="defs1"><clipPath id="clipPath1" clipPathUnits="userSpaceOnUse"><path d="M0 0 L2147483647 0 L2147483647 2147483647 L0 2147483647 L0 0 Z"/></clipPath><clipPath id="clipPath2" clipPathUnits="userSpaceOnUse"><path d="M0 0 L0 210 L210 210 L210 0 Z"/></clipPath><clipPath id="clipPath3" clipPathUnits="userSpaceOnUse"><path d="M0 0 L0 20 L20 20 L20 0 Z"/></clipPath><clipPath id="clipPath4" clipPathUnits="userSpaceOnUse"><path d="M0 0 L0 40 L40 40 L40 0 Z"/></clipPath><clipPath id="clipPath5" clipPathUnits="userSpaceOnUse"><path d="M0 0 L0 40 L170 40 L170 0 Z"/></clipPath><clipPath id="clipPath6" clipPathUnits="userSpaceOnUse"><path d="M0 0 L0 80 L210 80 L210 0 Z"/></clipPath><clipPath id="clipPath7" clipPathUnits="userSpaceOnUse"><path d="M0 0 L0 110 L250 110 L250 0 Z"/></clipPath><clipPath id="clipPath8" clipPathUnits="userSpaceOnUse"><path d="M0 0 L0 110 L250 110 L250 0 Z"/></clipPath><clipPath id="clipPath9" clipPathUnits="userSpaceOnUse"><path d="M0 0 L0 40 L180 40 L180 0 Z"/></clipPath><clipPath id="clipPath10" clipPathUnits="userSpaceOnUse"><path d="M0 0 L0 60 L190 60 L190 0 Z"/></clipPath><clipPath id="clipPath11" clipPathUnits="userSpaceOnUse"><path d="M0 0 L0 50 L500 50 L500 0 Z"/></clipPath><clipPath id="clipPath12" clipPathUnits="userSpaceOnUse"><path d="M0 0 L0 410 L170 410 L170 0 Z"/></clipPath><clipPath id="clipPath13" clipPathUnits="userSpaceOnUse"><path d="M0 0 L0 570 L210 570 L210 0 Z"/></clipPath><clipPath id="clipPath14" clipPathUnits="userSpaceOnUse"><path d="M0 0 L0 230 L220 230 L220 0 Z"/></clipPath><clipPath id="clipPath15" clipPathUnits="userSpaceOnUse"><path d="M0 0 L0 30 L90 30 L90 0 Z"/></clipPath><clipPath id="clipPath16" clipPathUnits="userSpaceOnUse"><path d="M0 0 L0 180 L150 180 L150 0 Z"/></clipPath><clipPath id="clipPath17" clipPathUnits="userSpaceOnUse"><path d="M0 0 L0 80 L250 80 L250 0 Z"/></clipPath><clipPath id="clipPath18" clipPathUnits="userSpaceOnUse"><path d="M0 0 L0 60 L210 60 L210 0 Z"/></clipPath><clipPath id="clipPath19" clipPathUnits="userSpaceOnUse"><path d="M0 0 L0 370 L190 370 L190 0 Z"/></clipPath><clipPath id="clipPath20" clipPathUnits="userSpaceOnUse"><path d="M0 0 L0 110 L30 110 L30 0 Z"/></clipPath><clipPath id="clipPath21" clipPathUnits="userSpaceOnUse"><path d="M0 0 L0 750 L70 750 L70 0 Z"/></clipPath><clipPath id="clipPath22" clipPathUnits="userSpaceOnUse"><path d="M0 0 L0 190 L390 190 L390 0 Z"/></clipPath><clipPath id="clipPath23" clipPathUnits="userSpaceOnUse"><path d="M0 0 L0 580 L280 580 L280 0 Z"/></clipPath><clipPath id="clipPath24" clipPathUnits="userSpaceOnUse"><path d="M0 0 L0 110 L730 110 L730 0 Z"/></clipPath><clipPath id="clipPath25" clipPathUnits="userSpaceOnUse"><path d="M0 0 L0 140 L250 140 L250 0 Z"/></clipPath><clipPath id="clipPath26" clipPathUnits="userSpaceOnUse"><path d="M0 0 L0 70 L290 70 L290 0 Z"/></clipPath><clipPath id="clipPath27" clipPathUnits="userSpaceOnUse"><path d="M0 0 L0 110 L220 110 L220 0 Z"/></clipPath><clipPath id="clipPath28" clipPathUnits="userSpaceOnUse"><path d="M0 0 L0 90 L310 90 L310 0 Z"/></clipPath><clipPath id="clipPath29" clipPathUnits="userSpaceOnUse"><path d="M0 0 L0 90 L220 90 L220 0 Z"/></clipPath><clipPath id="clipPath30" clipPathUnits="userSpaceOnUse"><path d="M0 0 L0 90 L240 90 L240 0 Z"/></clipPath><clipPath id="clipPath31" clipPathUnits="userSpaceOnUse"><path d="M0 0 L0 110 L330 110 L330 0 Z"/></clipPath></defs><g fill="#FFF" fill-opacity="0" stroke="#FFF" stroke-opacity="0" transform="translate(190,200)"><rect width="208.5" height="208.5" x=".5" y=".5" stroke="none" clip-path="url(#clipPath2)"/></g><g transform="translate(190,200)"><rect width="208.5" height="208.5" x=".5" y=".5" fill="none" clip-path="url(#clipPath2)"/><text x="79" y="18.109" stroke="none" clip-path="url(#clipPath2)" font-family="sans-serif" font-size="14" xml:space="preserve">Legend</text><path fill="none" d="M1 24.1094 L209 24.1094" clip-path="url(#clipPath2)"/></g><g fill="#FFF" fill-opacity="0" stroke="#FFF" stroke-opacity="0" transform="translate(440,1220)"><circle cx="9.75" cy="9.75" r="9.25" stroke="none" clip-path="url(#clipPath3)"/></g><g transform="translate(440,1220)"><circle cx="9.75" cy="9.75" r="9.25" fill="none" clip-path="url(#clipPath3)"/><circle cx="10" cy="10" r="6.227" stroke="none" clip-path="url(#clipPath3)"/></g><g fill="#FFF" fill-opacity="0" stroke="#FFF" stroke-opacity="0" transform="translate(440,1220)"><circle cx="10" cy="10" r="6.227" fill="none" clip-path="url(#clipPath3)"/></g><g fill="#FFF" fill-opacity="0" stroke="#FFF" stroke-opacity="0"><path stroke="none" d="M20.5 1.5 L39 20.5 L20.5 39 L1.5 20.5 Z" clip-path="url(#clipPath4)" transform="translate(800,1000)"/></g><g><path fill="none" d="M20.5 1.5 L39 20.5 L20.5 39 L1.5 20.5 Z" clip-path="url(#clipPath4)" transform="translate(800,1000)"/></g><g fill="#FFF" fill-opacity="0" stroke="#FFF" stroke-opacity="0" transform="translate(950,1190)"><rect width="168.5" height="38.5" x=".5" y=".5" stroke="none" clip-path="url(#clipPath5)" rx="8" ry="8"/></g><g transform="translate(950,1190)"><rect width="168.5" height="38.5" x=".5" y=".5" fill="none" clip-path="url(#clipPath5)" rx="8" ry="8"/><text x="10" y="25.055" stroke="none" clip-path="url(#clipPath5)" font-family="sans-serif" font-size="14" xml:space="preserve">Channelが有効期限切れ</text></g><g fill="#FFF" fill-opacity="0" stroke="#FFF" stroke-opacity="0" transform="translate(520,1190)"><rect width="208.5" height="78.5" x=".5" y=".5" stroke="none" clip-path="url(#clipPath6)" rx="16" ry="16"/></g><g transform="translate(520,1190)"><rect width="208.5" height="78.5" x=".5" y=".5" fill="none" clip-path="url(#clipPath6)" rx="16" ry="16"/><text x="28" y="20.891" stroke="none" clip-path="url(#clipPath6)" font-family="sans-serif" font-size="14" xml:space="preserve">Channelが閉鎖され、</text><text x="28" y="37" stroke="none" clip-path="url(#clipPath6)" font-family="sans-serif" font-size="14" xml:space="preserve">レジャーから削除される。</text><text x="28" y="53.109" stroke="none" clip-path="url(#clipPath6)" font-family="sans-serif" font-size="14" xml:space="preserve">未請求のXRPが支払元に</text><text x="28" y="69.219" stroke="none" clip-path="url(#clipPath6)" font-family="sans-serif" font-size="14" xml:space="preserve">返金される</text></g><g fill="#FFF" fill-opacity="0" stroke="#FFF" stroke-opacity="0"><path stroke="none" d="M20.5 1.5 L39 20.5 L20.5 39 L1.5 20.5 Z" clip-path="url(#clipPath4)" transform="translate(340,950)"/></g><g><path fill="none" d="M20.5 1.5 L39 20.5 L20.5 39 L1.5 20.5 Z" clip-path="url(#clipPath4)" transform="translate(340,950)"/></g><g fill="#FFF" fill-opacity="0" stroke="#FFF" stroke-opacity="0"><path stroke="none" d="M50.5 0.5 L90.5 40.5 L50.5 40.5 L90.5 0.5 Z" clip-path="url(#clipPath7)" transform="translate(970,1000)"/></g><g><path fill="none" d="M50.5 0.5 L90.5 40.5 L50.5 40.5 L90.5 0.5 Z" clip-path="url(#clipPath7)" transform="translate(970,1000)"/><text x="35" y="63.109" stroke="none" clip-path="url(#clipPath7)" font-family="sans-serif" font-size="14" transform="translate(970,1000)" xml:space="preserve">変更可能な</text><text x="43" y="79.219" stroke="none" clip-path="url(#clipPath7)" font-family="sans-serif" font-size="14" transform="translate(970,1000)" xml:space="preserve">有効期限</text><text x="0" y="95.328" stroke="none" clip-path="url(#clipPath7)" font-family="sans-serif" font-size="14" transform="translate(970,1000)" xml:space="preserve">(&quot;Expiration&quot;フィールド)</text></g><g fill="#FFF" fill-opacity="0" stroke="#FFF" stroke-opacity="0"><path stroke="none" d="M60.5 0.5 L100.5 40.5 L60.5 40.5 L100.5 0.5 Z" clip-path="url(#clipPath8)" transform="translate(1080,400)"/></g><g><path fill="none" d="M60.5 0.5 L100.5 40.5 L60.5 40.5 L100.5 0.5 Z" clip-path="url(#clipPath8)" transform="translate(1080,400)"/><text x="42" y="63.109" stroke="none" clip-path="url(#clipPath8)" font-family="sans-serif" font-size="14" transform="translate(1080,400)" xml:space="preserve">変更不可能な</text><text x="55" y="79.219" stroke="none" clip-path="url(#clipPath8)" font-family="sans-serif" font-size="14" transform="translate(1080,400)" xml:space="preserve">有効期限</text><text x="0" y="95.328" stroke="none" clip-path="url(#clipPath8)" font-family="sans-serif" font-size="14" transform="translate(1080,400)" xml:space="preserve">(&quot;CancelAfter&quot;フィールド)</text></g><g fill="#FFF" fill-opacity="0" stroke="#FFF" stroke-opacity="0" transform="translate(440,810)"><rect width="178.5" height="38.5" x=".5" y=".5" stroke="none" clip-path="url(#clipPath9)" rx="8" ry="8"/></g><g transform="translate(440,810)"><rect width="178.5" height="38.5" x=".5" y=".5" fill="none" clip-path="url(#clipPath9)" rx="8" ry="8"/><text x="5" y="17" stroke="none" clip-path="url(#clipPath9)" font-family="sans-serif" font-size="14" xml:space="preserve">ビジネストランザクション</text><text x="78" y="33.109" stroke="none" clip-path="url(#clipPath9)" font-family="sans-serif" font-size="14" xml:space="preserve">完了</text></g><g fill="#FFF" fill-opacity="0" stroke="#FFF" stroke-opacity="0" transform="translate(440,730)"><rect width="178.5" height="38.5" x=".5" y=".5" stroke="none" clip-path="url(#clipPath9)" rx="8" ry="8"/></g><g transform="translate(440,730)"><rect width="178.5" height="38.5" x=".5" y=".5" fill="none" clip-path="url(#clipPath9)" rx="8" ry="8"/><text x="51" y="25.055" stroke="none" clip-path="url(#clipPath9)" font-family="sans-serif" font-size="14" xml:space="preserve">支払いの確認</text></g><g fill="#FFF" fill-opacity="0" stroke="#FFF" stroke-opacity="0" transform="translate(440,610)"><rect width="178.5" height="38.5" x=".5" y=".5" stroke="none" clip-path="url(#clipPath9)" rx="8" ry="8"/></g><g transform="translate(440,610)"><rect width="178.5" height="38.5" x=".5" y=".5" fill="none" clip-path="url(#clipPath9)" rx="8" ry="8"/><text x="48" y="25.055" stroke="none" clip-path="url(#clipPath9)" font-family="sans-serif" font-size="14" xml:space="preserve">支払いの開始</text></g><g fill="#FFF" fill-opacity="0" stroke="#FFF" stroke-opacity="0" transform="translate(440,510)"><rect width="178.5" height="38.5" x=".5" y=".5" stroke="none" clip-path="url(#clipPath9)" rx="8" ry="8"/></g><g transform="translate(440,510)"><rect width="178.5" height="38.5" x=".5" y=".5" fill="none" clip-path="url(#clipPath9)" rx="8" ry="8"/><text x="13" y="25.055" stroke="none" clip-path="url(#clipPath9)" font-family="sans-serif" font-size="14" xml:space="preserve">支払元が支払い準備完了</text></g><g fill="#FFF" fill-opacity="0" stroke="#FFF" stroke-opacity="0" transform="translate(440,410)"><rect width="178.5" height="38.5" x=".5" y=".5" stroke="none" clip-path="url(#clipPath9)" rx="8" ry="8"/></g><g transform="translate(440,410)"><rect width="178.5" height="38.5" x=".5" y=".5" fill="none" clip-path="url(#clipPath9)" rx="8" ry="8"/><text x="55" y="17" stroke="none" clip-path="url(#clipPath9)" font-family="sans-serif" font-size="14" xml:space="preserve">両当事者が</text><text x="24" y="33.109" stroke="none" clip-path="url(#clipPath9)" font-family="sans-serif" font-size="14" xml:space="preserve">Channelを利用可能</text></g><g transform="translate(490,210)"><circle cx="10.25" cy="10.25" r="8.75" stroke="none" clip-path="url(#clipPath3)"/><circle cx="10.25" cy="10.25" r="8.75" fill="none" clip-path="url(#clipPath3)"/></g><g fill="#FFF" fill-opacity="0" stroke="#FFF" stroke-opacity="0" transform="translate(440,310)"><rect width="178.5" height="38.5" x=".5" y=".5" stroke="none" clip-path="url(#clipPath9)" rx="8" ry="8"/></g><g transform="translate(440,310)"><rect width="178.5" height="38.5" x=".5" y=".5" fill="none" clip-path="url(#clipPath9)" rx="8" ry="8"/><text x="40" y="25.055" stroke="none" clip-path="url(#clipPath9)" font-family="sans-serif" font-size="14" xml:space="preserve">Channelの作成</text></g><g stroke-dasharray="1 2" stroke-linecap="butt" stroke-miterlimit="5"><path fill="none" d="M169.5 20.5 L10.5 20.5" clip-path="url(#clipPath10)" transform="translate(200,350)"/><path fill="none" stroke-dasharray="none" stroke-linecap="square" stroke-miterlimit="10" d="M158.7417 14 L170 20.5 L158.7417 27" clip-path="url(#clipPath10)" transform="translate(200,350)"/></g><g font-family="sans-serif" font-size="14"><text x="5" y="16" stroke="none" clip-path="url(#clipPath10)" transform="translate(200,350)" xml:space="preserve">トランザクションの影響</text><text x="31.292" y="32.109" stroke="none" clip-path="url(#clipPath10)" transform="translate(200,350)" xml:space="preserve">(前のステップの</text><text x="40" y="48.219" stroke="none" clip-path="url(#clipPath10)" transform="translate(200,350)" xml:space="preserve">一部として発生)</text></g><g fill="#27A2DB" stroke="#27A2DB"><path fill="none" d="M169.5 20.5 L10.5 20.5" clip-path="url(#clipPath10)" transform="translate(200,290)"/><path fill="none" d="M158.7417 14 L170 20.5 L158.7417 27" clip-path="url(#clipPath10)" transform="translate(200,290)"/><text x="0" y="16" stroke="none" clip-path="url(#clipPath10)" font-family="sans-serif" font-size="12" transform="translate(200,290)" xml:space="preserve">XRP Ledgerトランザクション</text><text x="30" y="32.109" stroke="none" clip-path="url(#clipPath10)" font-family="sans-serif" font-size="14" transform="translate(200,290)" xml:space="preserve">(コンセンサスに</text><text x="50" y="48.219" stroke="none" clip-path="url(#clipPath10)" font-family="sans-serif" font-size="14" transform="translate(200,290)" xml:space="preserve">3~5秒必要)</text></g><g><path fill="none" d="M169.5 20.5 L10.5 20.5" clip-path="url(#clipPath10)" transform="translate(200,230)"/><path fill="none" d="M158.7417 14 L170 20.5 L158.7417 27" clip-path="url(#clipPath10)" transform="translate(200,230)"/><text x="5" y="16" stroke="none" clip-path="url(#clipPath10)" font-family="sans-serif" font-size="14" transform="translate(200,230)" xml:space="preserve">オフレジャーのステップ</text><text x="30" y="32.109" stroke="none" clip-path="url(#clipPath10)" font-family="sans-serif" font-size="14" transform="translate(200,230)" xml:space="preserve">(計算可能な最も</text><text x="50" y="48.219" stroke="none" clip-path="url(#clipPath10)" font-family="sans-serif" font-size="14" transform="translate(200,230)" xml:space="preserve">迅速な速度)</text></g><g fill="#27A2DB" stroke="#27A2DB"><path fill="none" d="M11.5 10.5 L110.5 10.5" clip-path="url(#clipPath11)" transform="translate(610,410)"/><path fill="none" d="M110.5 10.5 L110.5 30.5" clip-path="url(#clipPath11)" transform="translate(610,410)"/><path fill="none" d="M110.5 30.5 L10.5 30.5" clip-path="url(#clipPath11)" transform="translate(610,410)"/><path fill="none" d="M22.2583 17 L11 10.5 L22.2583 4" clip-path="url(#clipPath11)" transform="translate(610,410)"/><text x="114" y="20" stroke="none" clip-path="url(#clipPath11)" font-family="sans-serif" font-size="14" transform="translate(610,410)" xml:space="preserve">支払元: ChannelにXRPを追加</text><text x="114" y="36.109" stroke="none" clip-path="url(#clipPath11)" font-family="sans-serif" font-size="14" transform="translate(610,410)" xml:space="preserve">(PaymentChannelFundトランザクション)</text></g><g><path fill="none" d="M89.5 10.5 L10.5 10.5" clip-path="url(#clipPath12)" transform="translate(350,430)"/><path fill="none" d="M10.5 10.5 L10.5 390.5" clip-path="url(#clipPath12)" transform="translate(350,430)"/><path fill="none" d="M10.5 390.5 L90.5 390.5" clip-path="url(#clipPath12)" transform="translate(350,430)"/><path fill="none" d="M78.7417 4 L90 10.5 L78.7417 17" clip-path="url(#clipPath12)" transform="translate(350,430)"/><text x="14" y="264.438" stroke="none" clip-path="url(#clipPath12)" font-family="sans-serif" font-size="14" transform="translate(350,430)" xml:space="preserve">7. 必要に応じて繰り返し</text></g><g stroke-dasharray="1 2" stroke-linecap="butt" stroke-miterlimit="5"><path fill="none" d="M190.5 549.5 L190.5 320.5" clip-path="url(#clipPath13)" transform="translate(850,450)"/><path fill="none" d="M190.5 320.5 L10.5 320.5" clip-path="url(#clipPath13)" transform="translate(850,450)"/><path fill="none" d="M10.5 320.5 L10.5 10.5" clip-path="url(#clipPath13)" transform="translate(850,450)"/><path fill="none" stroke-dasharray="none" stroke-linecap="square" stroke-miterlimit="10" d="M197 538.7417 L190.5 550 L184 538.7417" clip-path="url(#clipPath13)" transform="translate(850,450)"/></g><g font-family="sans-serif" font-size="14"><text x="32.62" y="316" stroke="none" clip-path="url(#clipPath13)" transform="translate(850,450)" xml:space="preserve">(変更可能な有効期限は</text><text x="34.895" y="332.109" stroke="none" clip-path="url(#clipPath13)" transform="translate(850,450)" xml:space="preserve">PaymentChannelFund</text><text x="34.285" y="348.219" stroke="none" clip-path="url(#clipPath13)" transform="translate(850,450)" xml:space="preserve">トランザクションにより</text><text x="78.512" y="364.328" stroke="none" clip-path="url(#clipPath13)" transform="translate(850,450)" xml:space="preserve">更新可能)</text></g><g stroke-dasharray="1 2" stroke-linecap="butt" stroke-miterlimit="5"><path fill="none" d="M200.5 209.5 L200.5 130.5" clip-path="url(#clipPath14)" transform="translate(350,980)"/><path fill="none" d="M200.5 130.5 L10.5 130.5" clip-path="url(#clipPath14)" transform="translate(350,980)"/><path fill="none" d="M10.5 130.5 L10.5 10.5" clip-path="url(#clipPath14)" transform="translate(350,980)"/><path fill="none" stroke-dasharray="none" stroke-linecap="square" stroke-miterlimit="10" d="M207 198.7417 L200.5 210 L194 198.7417" clip-path="url(#clipPath14)" transform="translate(350,980)"/></g><g font-family="sans-serif" font-size="14"><text x="79.192" y="126" stroke="none" clip-path="url(#clipPath14)" transform="translate(350,980)" xml:space="preserve">受取人の</text><text x="36.696" y="142.109" stroke="none" clip-path="url(#clipPath14)" transform="translate(350,980)" xml:space="preserve">PaymentChannelClaim</text><text x="45.238" y="158.219" stroke="none" clip-path="url(#clipPath14)" transform="translate(350,980)" xml:space="preserve">トランザクションで</text><text x="58.529" y="174.328" stroke="none" clip-path="url(#clipPath14)" transform="translate(350,980)" xml:space="preserve">tfCloseフラグあり</text></g><g><path fill="none" d="M11.5 10.5 L70.5 10.5" clip-path="url(#clipPath15)" transform="translate(450,1220)"/><path fill="none" d="M22.2583 17 L11 10.5 L22.2583 4" clip-path="url(#clipPath15)" transform="translate(450,1220)"/></g><g stroke-dasharray="1 2" stroke-linecap="butt" stroke-miterlimit="5"><path fill="none" d="M10.5 159.5 L10.5 90.5" clip-path="url(#clipPath16)" transform="translate(690,1030)"/><path fill="none" d="M10.5 90.5 L130.5 90.5" clip-path="url(#clipPath16)" transform="translate(690,1030)"/><path fill="none" d="M130.5 90.5 L130.5 10.5" clip-path="url(#clipPath16)" transform="translate(690,1030)"/><path fill="none" stroke-dasharray="none" stroke-linecap="square" stroke-miterlimit="10" d="M17 148.7417 L10.5 160 L4 148.7417" clip-path="url(#clipPath16)" transform="translate(690,1030)"/></g><g font-family="sans-serif" font-size="14"><text x="34.178" y="86" stroke="none" clip-path="url(#clipPath16)" transform="translate(690,1030)" xml:space="preserve">Channel内の</text><text x="28.078" y="102.109" stroke="none" clip-path="url(#clipPath16)" transform="translate(690,1030)" xml:space="preserve">XRPがなくなる</text></g><g fill="#27A2DB" stroke="#27A2DB"><path fill="none" d="M11.5 20.5 L230.5 20.5" clip-path="url(#clipPath17)" transform="translate(720,1190)"/><path fill="none" d="M22.2583 27 L11 20.5 L22.2583 14" clip-path="url(#clipPath17)" transform="translate(720,1190)"/><text x="29.133" y="16" stroke="none" clip-path="url(#clipPath17)" font-family="sans-serif" font-size="14" transform="translate(720,1190)" xml:space="preserve">10. 任意: Channelの閉鎖</text><text x="25.721" y="32.109" stroke="none" clip-path="url(#clipPath17)" font-family="sans-serif" font-size="14" transform="translate(720,1190)" xml:space="preserve">(PaymentChannelCloseまたは</text><text x="54.285" y="48.219" stroke="none" clip-path="url(#clipPath17)" font-family="sans-serif" font-size="14" transform="translate(720,1190)" xml:space="preserve">PaymentChannelFund</text><text x="78.512" y="64.328" stroke="none" clip-path="url(#clipPath17)" font-family="sans-serif" font-size="14" transform="translate(720,1190)" xml:space="preserve">トランザクション)</text></g><g stroke-dasharray="1 2" stroke-linecap="butt" stroke-miterlimit="5"><path fill="none" d="M189.5 20.5 L10.5 20.5" clip-path="url(#clipPath18)" transform="translate(830,1000)"/><path fill="none" stroke-dasharray="none" stroke-linecap="square" stroke-miterlimit="10" d="M178.7417 14 L190 20.5 L178.7417 27" clip-path="url(#clipPath18)" transform="translate(830,1000)"/></g><g font-family="sans-serif" font-size="14"><text x="57.397" y="16" stroke="none" clip-path="url(#clipPath18)" transform="translate(830,1000)" xml:space="preserve">ChannelにXRPが</text><text x="83.106" y="32.109" stroke="none" clip-path="url(#clipPath18)" transform="translate(830,1000)" xml:space="preserve">残っており</text><text x="63.876" y="48.219" stroke="none" clip-path="url(#clipPath18)" transform="translate(830,1000)" xml:space="preserve">有効期限を設定</text></g><g fill="#27A2DB" stroke="#27A2DB"><path fill="none" d="M10.5 349.5 L10.5 10.5" clip-path="url(#clipPath19)" transform="translate(580,840)"/><path fill="none" d="M17 338.7417 L10.5 350 L4 338.7417" clip-path="url(#clipPath19)" transform="translate(580,840)"/><text x="14" y="155.836" stroke="none" clip-path="url(#clipPath19)" font-family="sans-serif" font-size="14" transform="translate(580,840)" xml:space="preserve">9b. 受取人: Channnel閉鎖</text><text x="14" y="171.945" stroke="none" clip-path="url(#clipPath19)" font-family="sans-serif" font-size="14" transform="translate(580,840)" xml:space="preserve">を要求</text><text x="14" y="188.055" stroke="none" clip-path="url(#clipPath19)" font-family="sans-serif" font-size="14" transform="translate(580,840)" xml:space="preserve">(tfCloseフラグを指定した</text><text x="14" y="204.164" stroke="none" clip-path="url(#clipPath19)" font-family="sans-serif" font-size="14" transform="translate(580,840)" xml:space="preserve">PaymentChannelClaim</text><text x="14" y="220.273" stroke="none" clip-path="url(#clipPath19)" font-family="sans-serif" font-size="14" transform="translate(580,840)" xml:space="preserve">トランザクション)</text></g><g><path fill="none" d="M10.5 89.5 L10.5 10.5" clip-path="url(#clipPath20)" transform="translate(1030,1100)"/><path fill="none" d="M17 78.7417 L10.5 90 L4 78.7417" clip-path="url(#clipPath20)" transform="translate(1030,1100)"/></g><g><path fill="none" d="M11.5 720.5 L50.5 720.5" clip-path="url(#clipPath21)" transform="translate(1110,490)"/><path fill="none" d="M50.5 720.5 L50.5 10.5" clip-path="url(#clipPath21)" transform="translate(1110,490)"/><path fill="none" d="M22.2583 727 L11 720.5 L22.2583 714" clip-path="url(#clipPath21)" transform="translate(1110,490)"/></g><g fill="#27A2DB" stroke="#27A2DB"><path fill="none" d="M210.5 169.5 L210.5 10.5" clip-path="url(#clipPath22)" transform="translate(610,830)"/><path fill="none" d="M210.5 10.5 L10.5 10.5" clip-path="url(#clipPath22)" transform="translate(610,830)"/><path fill="none" d="M217 158.7417 L210.5 170 L204 158.7417" clip-path="url(#clipPath22)" transform="translate(610,830)"/><text x="214" y="65.836" stroke="none" clip-path="url(#clipPath22)" font-family="sans-serif" font-size="14" transform="translate(610,830)" xml:space="preserve">9a. 支払元: Channnel閉鎖</text><text x="214" y="81.945" stroke="none" clip-path="url(#clipPath22)" font-family="sans-serif" font-size="14" transform="translate(610,830)" xml:space="preserve">を要求</text><text x="214" y="98.055" stroke="none" clip-path="url(#clipPath22)" font-family="sans-serif" font-size="14" transform="translate(610,830)" xml:space="preserve">(tfCloseフラグを指定した</text><text x="214" y="114.164" stroke="none" clip-path="url(#clipPath22)" font-family="sans-serif" font-size="14" transform="translate(610,830)" xml:space="preserve">PaymentChannelClaim</text><text x="214" y="130.273" stroke="none" clip-path="url(#clipPath22)" font-family="sans-serif" font-size="14" transform="translate(610,830)" xml:space="preserve">トランザクション)</text></g><g stroke-dasharray="1 2" stroke-linecap="butt" stroke-miterlimit="5"><path fill="none" d="M259.5 10.5 L10.5 10.5" clip-path="url(#clipPath23)" transform="translate(180,410)"/><path fill="none" d="M10.5 10.5 L10.5 560.5" clip-path="url(#clipPath23)" transform="translate(180,410)"/><path fill="none" d="M10.5 560.5 L160.5 560.5" clip-path="url(#clipPath23)" transform="translate(180,410)"/><path fill="none" stroke-dasharray="none" stroke-linecap="square" stroke-miterlimit="10" d="M248.7417 4 L260 10.5 L248.7417 17" clip-path="url(#clipPath23)" transform="translate(180,410)"/></g><g font-family="sans-serif" font-size="14"><text x="14" y="268.891" stroke="none" clip-path="url(#clipPath23)" transform="translate(180,410)" xml:space="preserve">受取人の</text><text x="14" y="285" stroke="none" clip-path="url(#clipPath23)" transform="translate(180,410)" xml:space="preserve">PaymentChannelClaim</text><text x="14" y="301.109" stroke="none" clip-path="url(#clipPath23)" transform="translate(180,410)" xml:space="preserve">トランザクションで</text><text x="14" y="317.219" stroke="none" clip-path="url(#clipPath23)" transform="translate(180,410)" xml:space="preserve">tfCloseフラグなし</text></g><g stroke-dasharray="1 2" stroke-linecap="butt" stroke-miterlimit="5"><path fill="none" d="M550.5 79.5 L550.5 10.5" clip-path="url(#clipPath24)" transform="translate(610,320)"/><path fill="none" d="M550.5 10.5 L10.5 10.5" clip-path="url(#clipPath24)" transform="translate(610,320)"/><path fill="none" stroke-dasharray="none" stroke-linecap="square" stroke-miterlimit="10" d="M557 68.7417 L550.5 80 L544 68.7417" clip-path="url(#clipPath24)" transform="translate(610,320)"/></g><g font-family="sans-serif" font-size="14"><text x="554" y="12.781" stroke="none" clip-path="url(#clipPath24)" transform="translate(610,320)" xml:space="preserve">(PaymentChannelCreate</text><text x="554" y="28.891" stroke="none" clip-path="url(#clipPath24)" transform="translate(610,320)" xml:space="preserve">トランザクションにより</text><text x="554" y="45" stroke="none" clip-path="url(#clipPath24)" transform="translate(610,320)" xml:space="preserve">変更不可な</text><text x="554" y="61.109" stroke="none" clip-path="url(#clipPath24)" transform="translate(610,320)" xml:space="preserve">有効期限を設定)</text></g><g fill="#27A2DB" stroke="#27A2DB"><path fill="none" d="M10.5 119.5 L10.5 10.5" clip-path="url(#clipPath25)" transform="translate(350,830)"/><path fill="none" d="M10.5 10.5 L90.5 10.5" clip-path="url(#clipPath25)" transform="translate(350,830)"/><path fill="none" d="M17 108.7417 L10.5 120 L4 108.7417" clip-path="url(#clipPath25)" transform="translate(350,830)"/><text x="14" y="40.836" stroke="none" clip-path="url(#clipPath25)" font-family="sans-serif" font-size="14" transform="translate(350,830)" xml:space="preserve">8. 受取人: クレームの精算</text><text x="14" y="56.945" stroke="none" clip-path="url(#clipPath25)" font-family="sans-serif" font-size="14" transform="translate(350,830)" xml:space="preserve">(PaymentChannelClaim</text><text x="14" y="73.055" stroke="none" clip-path="url(#clipPath25)" font-family="sans-serif" font-size="14" transform="translate(350,830)" xml:space="preserve">トランザクション)</text><text x="14" y="89.164" stroke="none" clip-path="url(#clipPath25)" font-family="sans-serif" font-size="14" transform="translate(350,830)" xml:space="preserve">Channelが期限切れになっていない</text><text x="14" y="105.273" stroke="none" clip-path="url(#clipPath25)" font-family="sans-serif" font-size="14" transform="translate(350,830)" xml:space="preserve">場合は受取人がXRPを受領</text></g><g><path fill="none" d="M10.5 49.5 L10.5 10.5" clip-path="url(#clipPath26)" transform="translate(520,760)"/><path fill="none" d="M17 38.7417 L10.5 50 L4 38.7417" clip-path="url(#clipPath26)" transform="translate(520,760)"/><text x="14" y="30" stroke="none" clip-path="url(#clipPath26)" font-family="sans-serif" font-size="14" transform="translate(520,760)" xml:space="preserve">6. 受取人: 商品またはサービスを提供</text></g><g><path fill="none" d="M10.5 89.5 L10.5 10.5" clip-path="url(#clipPath27)" transform="translate(520,640)"/><path fill="none" d="M17 78.7417 L10.5 90 L4 78.7417" clip-path="url(#clipPath27)" transform="translate(520,640)"/><text x="14" y="25.836" stroke="none" clip-path="url(#clipPath27)" font-family="sans-serif" font-size="14" transform="translate(520,640)" xml:space="preserve">5. 受取人: クレームの金額と</text><text x="14" y="41.945" stroke="none" clip-path="url(#clipPath27)" font-family="sans-serif" font-size="14" transform="translate(520,640)" xml:space="preserve">署名を検証</text><text x="14" y="58.055" stroke="none" clip-path="url(#clipPath27)" font-family="sans-serif" font-size="14" transform="translate(520,640)" xml:space="preserve">(channel_verifyメソッドと</text><text x="14" y="74.164" stroke="none" clip-path="url(#clipPath27)" font-family="sans-serif" font-size="14" transform="translate(520,640)" xml:space="preserve">account_channelsメソッド)</text></g><g><path fill="none" d="M10.5 69.5 L10.5 10.5" clip-path="url(#clipPath28)" transform="translate(520,540)"/><path fill="none" d="M17 58.7417 L10.5 70 L4 58.7417" clip-path="url(#clipPath28)" transform="translate(520,540)"/><text x="14" y="31.945" stroke="none" clip-path="url(#clipPath28)" font-family="sans-serif" font-size="14" transform="translate(520,540)" xml:space="preserve">4. 支払元: 署名済みクレームを受取人に送信</text><text x="14" y="48.055" stroke="none" clip-path="url(#clipPath28)" font-family="sans-serif" font-size="14" transform="translate(520,540)" xml:space="preserve">(任意の通信方法)</text></g><g><path fill="none" d="M10.5 69.5 L10.5 10.5" clip-path="url(#clipPath29)" transform="translate(520,440)"/><path fill="none" d="M17 58.7417 L10.5 70 L4 58.7417" clip-path="url(#clipPath29)" transform="translate(520,440)"/><text x="14" y="31.945" stroke="none" clip-path="url(#clipPath29)" font-family="sans-serif" font-size="14" transform="translate(520,440)" xml:space="preserve">3. 支払元: クレームに署名</text><text x="14" y="48.055" stroke="none" clip-path="url(#clipPath29)" font-family="sans-serif" font-size="14" transform="translate(520,440)" xml:space="preserve">(channel_authorizeメソッド)</text></g><g><path fill="none" d="M10.5 69.5 L10.5 10.5" clip-path="url(#clipPath30)" transform="translate(490,340)"/><path fill="none" d="M17 58.7417 L10.5 70 L4 58.7417" clip-path="url(#clipPath30)" transform="translate(490,340)"/><text x="14" y="40" stroke="none" clip-path="url(#clipPath30)" font-family="sans-serif" font-size="14" transform="translate(490,340)" xml:space="preserve">2. 受取人: Channelの状態を確認</text><text x="14" y="56.109" stroke="none" clip-path="url(#clipPath30)" font-family="sans-serif" font-size="14" transform="translate(490,340)" xml:space="preserve">(account_channelsコマンド)</text></g><g fill="#27A2DB" stroke="#27A2DB"><path fill="none" d="M10.5 89.5 L10.5 10.5" clip-path="url(#clipPath31)" transform="translate(490,220)"/><path fill="none" d="M17 78.7417 L10.5 90 L4 78.7417" clip-path="url(#clipPath31)" transform="translate(490,220)"/><text x="14" y="50" stroke="none" clip-path="url(#clipPath31)" font-family="sans-serif" font-size="14" transform="translate(490,220)" xml:space="preserve">1. 支払元: Channelの作成</text><text x="14" y="66.109" stroke="none" clip-path="url(#clipPath31)" font-family="sans-serif" font-size="14" transform="translate(490,220)" xml:space="preserve">(PaymentChannelCreateトランザクション)</text></g></g></svg>