<svg xmlns="http://www.w3.org/2000/svg" xmlns:xlink="http://www.w3.org/1999/xlink" width="900" height="320" fill="#000" fill-opacity="1" stroke="#000" stroke-dasharray="none" stroke-dashoffset="0" stroke-linecap="square" stroke-linejoin="miter" stroke-miterlimit="10" stroke-opacity="1" stroke-width="1" color-interpolation="auto" color-rendering="auto" font-family="'Dialog'" font-size="12" font-style="normal" font-weight="normal" image-rendering="auto" shape-rendering="auto" text-rendering="auto" viewBox="40 30 900 320"><g><defs id="defs1"><clipPath id="clipPath1" clipPathUnits="userSpaceOnUse"><path d="M0 0 L2147483647 0 L2147483647 2147483647 L0 2147483647 L0 0 Z"/></clipPath><clipPath id="clipPath2" clipPathUnits="userSpaceOnUse"><path d="M0 0 L0 80 L100 80 L100 0 Z"/></clipPath><clipPath id="clipPath3" clipPathUnits="userSpaceOnUse"><path d="M0 0 L0 60 L120 60 L120 0 Z"/></clipPath><clipPath id="clipPath4" clipPathUnits="userSpaceOnUse"><path d="M0 0 L0 40 L100 40 L100 0 Z"/></clipPath><clipPath id="clipPath5" clipPathUnits="userSpaceOnUse"><path d="M0 0 L0 120 L160 120 L160 0 Z"/></clipPath><clipPath id="clipPath6" clipPathUnits="userSpaceOnUse"><path d="M0 0 L0 210 L190 210 L190 0 Z"/></clipPath><clipPath id="clipPath7" clipPathUnits="userSpaceOnUse"><path d="M0 0 L0 30 L200 30 L200 0 Z"/></clipPath><clipPath id="clipPath8" clipPathUnits="userSpaceOnUse"><path d="M0 0 L0 40 L200 40 L200 0 Z"/></clipPath><clipPath id="clipPath9" clipPathUnits="userSpaceOnUse"><path d="M0 0 L0 70 L70 70 L70 0 Z"/></clipPath><clipPath id="clipPath10" clipPathUnits="userSpaceOnUse"><path d="M0 0 L0 30 L70 30 L70 0 Z"/></clipPath><clipPath id="clipPath11" clipPathUnits="userSpaceOnUse"><path d="M0 0 L0 60 L180 60 L180 0 Z"/></clipPath><clipPath id="clipPath12" clipPathUnits="userSpaceOnUse"><path d="M0 0 L0 80 L70 80 L70 0 Z"/></clipPath><clipPath id="clipPath13" clipPathUnits="userSpaceOnUse"><path d="M0 0 L0 30 L170 30 L170 0 Z"/></clipPath></defs><g fill="#FFF" fill-opacity="0" stroke="#FFF" stroke-opacity="0" transform="translate(660,200)"><rect width="98.5" height="78.5" x=".5" y=".5" stroke="none" clip-path="url(#clipPath2)"/></g><g transform="translate(660,200)"><rect width="98.5" height="78.5" x=".5" y=".5" fill="none" clip-path="url(#clipPath2)"/><text x="13" y="18.109" stroke="none" clip-path="url(#clipPath2)" font-family="sans-serif" font-size="14" xml:space="preserve">Credential</text><path fill="none" d="M1 24.1094 L99 24.1094" clip-path="url(#clipPath2)"/><text x="5" y="39.219" stroke="none" clip-path="url(#clipPath2)" font-family="sans-serif" font-size="14" xml:space="preserve">Type: 1</text><text x="5" y="55.328" stroke="none" clip-path="url(#clipPath2)" font-family="sans-serif" font-size="14" xml:space="preserve">Issuer: E</text><text x="5" y="71.438" stroke="none" clip-path="url(#clipPath2)" font-family="sans-serif" font-size="14" xml:space="preserve">Subject: D</text></g><g fill="#FFF" fill-opacity="0" stroke="#FFF" stroke-opacity="0" transform="translate(660,90)"><rect width="98.5" height="78.5" x=".5" y=".5" stroke="none" clip-path="url(#clipPath2)"/></g><g transform="translate(660,90)"><rect width="98.5" height="78.5" x=".5" y=".5" fill="none" clip-path="url(#clipPath2)"/><text x="13" y="18.109" stroke="none" clip-path="url(#clipPath2)" font-family="sans-serif" font-size="14" xml:space="preserve">Credential</text><path fill="none" d="M1 24.1094 L99 24.1094" clip-path="url(#clipPath2)"/><text x="5" y="39.219" stroke="none" clip-path="url(#clipPath2)" font-family="sans-serif" font-size="14" xml:space="preserve">Type: 1</text><text x="5" y="55.328" stroke="none" clip-path="url(#clipPath2)" font-family="sans-serif" font-size="14" xml:space="preserve">Issuer: A</text><text x="5" y="71.438" stroke="none" clip-path="url(#clipPath2)" font-family="sans-serif" font-size="14" xml:space="preserve">Subject: C</text></g><g fill="#FFF" fill-opacity="0" stroke="#FFF" stroke-opacity="0" transform="translate(800,200)"><ellipse cx="59.75" cy="29.75" stroke="none" clip-path="url(#clipPath3)" rx="59.25" ry="29.25"/></g><g transform="translate(800,200)"><ellipse cx="59.75" cy="29.75" fill="none" clip-path="url(#clipPath3)" rx="59.25" ry="29.25"/><text x="23" y="27" stroke="none" clip-path="url(#clipPath3)" font-family="sans-serif" font-size="14" xml:space="preserve">Account D</text><text x="31" y="43.109" stroke="none" clip-path="url(#clipPath3)" font-family="sans-serif" font-size="14" xml:space="preserve">(Holder)</text></g><g fill="#FFF" fill-opacity="0" stroke="#FFF" stroke-opacity="0" transform="translate(800,120)"><ellipse cx="59.75" cy="29.75" stroke="none" clip-path="url(#clipPath3)" rx="59.25" ry="29.25"/></g><g transform="translate(800,120)"><ellipse cx="59.75" cy="29.75" fill="none" clip-path="url(#clipPath3)" rx="59.25" ry="29.25"/><text x="24" y="27" stroke="none" clip-path="url(#clipPath3)" font-family="sans-serif" font-size="14" xml:space="preserve">Account C</text><text x="31" y="43.109" stroke="none" clip-path="url(#clipPath3)" font-family="sans-serif" font-size="14" xml:space="preserve">(Holder)</text></g><g fill="#FFF" fill-opacity="0" stroke="#FFF" stroke-opacity="0" transform="translate(800,270)"><ellipse cx="59.75" cy="29.75" stroke="none" clip-path="url(#clipPath3)" rx="59.25" ry="29.25"/></g><g transform="translate(800,270)"><ellipse cx="59.75" cy="29.75" fill="none" clip-path="url(#clipPath3)" rx="59.25" ry="29.25"/><text x="24" y="27" stroke="none" clip-path="url(#clipPath3)" font-family="sans-serif" font-size="14" xml:space="preserve">Account E</text><text x="33" y="43.109" stroke="none" clip-path="url(#clipPath3)" font-family="sans-serif" font-size="14" xml:space="preserve">(Issuer)</text></g><g fill="#FFF" fill-opacity="0" stroke="#FFF" stroke-opacity="0" transform="translate(800,50)"><ellipse cx="59.75" cy="29.75" stroke="none" clip-path="url(#clipPath3)" rx="59.25" ry="29.25"/></g><g transform="translate(800,50)"><ellipse cx="59.75" cy="29.75" fill="none" clip-path="url(#clipPath3)" rx="59.25" ry="29.25"/><text x="24" y="27" stroke="none" clip-path="url(#clipPath3)" font-family="sans-serif" font-size="14" xml:space="preserve">Account A</text><text x="33" y="43.109" stroke="none" clip-path="url(#clipPath3)" font-family="sans-serif" font-size="14" xml:space="preserve">(Issuer)</text></g><g fill="#FFF" fill-opacity="0" stroke="#FFF" stroke-opacity="0" transform="translate(390,210)"><rect width="98.5" height="38.5" x=".5" y=".5" stroke="none" clip-path="url(#clipPath4)"/></g><g transform="translate(390,210)"><rect width="98.5" height="38.5" x=".5" y=".5" fill="none" clip-path="url(#clipPath4)"/><text x="19" y="17" stroke="none" clip-path="url(#clipPath4)" font-family="sans-serif" font-size="14" xml:space="preserve">Issuer: B</text><text x="23" y="33.109" stroke="none" clip-path="url(#clipPath4)" font-family="sans-serif" font-size="14" xml:space="preserve">Type: 2</text></g><g fill="#FFF" fill-opacity="0" stroke="#FFF" stroke-opacity="0" transform="translate(390,170)"><rect width="98.5" height="38.5" x=".5" y=".5" stroke="none" clip-path="url(#clipPath4)"/></g><g transform="translate(390,170)"><rect width="98.5" height="38.5" x=".5" y=".5" fill="none" clip-path="url(#clipPath4)"/><text x="19" y="17" stroke="none" clip-path="url(#clipPath4)" font-family="sans-serif" font-size="14" xml:space="preserve">Issuer: B</text><text x="23" y="33.109" stroke="none" clip-path="url(#clipPath4)" font-family="sans-serif" font-size="14" xml:space="preserve">Type: 1</text></g><g fill="#FFF" fill-opacity="0" stroke="#FFF" stroke-opacity="0" transform="translate(390,130)"><rect width="98.5" height="38.5" x=".5" y=".5" stroke="none" clip-path="url(#clipPath4)"/></g><g transform="translate(390,130)"><rect width="98.5" height="38.5" x=".5" y=".5" fill="none" clip-path="url(#clipPath4)"/><text x="19" y="17" stroke="none" clip-path="url(#clipPath4)" font-family="sans-serif" font-size="14" xml:space="preserve">Issuer: A</text><text x="23" y="33.109" stroke="none" clip-path="url(#clipPath4)" font-family="sans-serif" font-size="14" xml:space="preserve">Type: 1</text></g><g fill="#FFF" fill-opacity="0" stroke="#FFF" stroke-opacity="0" transform="translate(60,70)"><rect width="158.5" height="118.5" x=".5" y=".5" stroke="none" clip-path="url(#clipPath5)"/></g><g transform="translate(60,70)"><rect width="158.5" height="118.5" x=".5" y=".5" fill="none" clip-path="url(#clipPath5)"/><text x="16" y="22.281" stroke="none" clip-path="url(#clipPath5)" font-family="sans-serif" font-size="14" xml:space="preserve">Permissioned DEX</text><path fill="none" d="M1 28.2812 L159 28.2812" clip-path="url(#clipPath5)"/><text x="40" y="43.391" stroke="none" clip-path="url(#clipPath5)" font-family="sans-serif" font-size="14" xml:space="preserve">Domain ID</text><text x="32" y="75.609" stroke="none" clip-path="url(#clipPath5)" font-family="sans-serif" font-size="14" xml:space="preserve">(Trade offers)</text></g><g fill="#FFF" fill-opacity="0" stroke="#FFF" stroke-opacity="0" transform="translate(320,70)"><rect width="188.5" height="208.5" x=".5" y=".5" stroke="none" clip-path="url(#clipPath6)"/></g><g transform="translate(320,70)"><rect width="188.5" height="208.5" x=".5" y=".5" fill="none" clip-path="url(#clipPath6)"/><text x="67" y="18.953" stroke="none" clip-path="url(#clipPath6)" font-family="sans-serif" font-size="14" xml:space="preserve">Domain</text><path fill="none" d="M1 24.9531 L189 24.9531" clip-path="url(#clipPath6)"/><text x="17" y="40.063" stroke="none" clip-path="url(#clipPath6)" font-family="sans-serif" font-size="14" xml:space="preserve">Accepted Credentials:</text></g><g fill="#00f" stroke="#00f" stroke-dasharray="8 5" stroke-linecap="butt" stroke-miterlimit="5"><path fill="none" d="M11.5 10.5 L180.5 10.5" clip-path="url(#clipPath7)" transform="translate(210,140)"/><path fill="#fff" stroke="none" d="M22.2583 17 L11 10.5 L22.2583 4 Z" clip-path="url(#clipPath7)" transform="translate(210,140)"/><path fill="none" stroke-dasharray="none" stroke-linecap="square" stroke-miterlimit="10" d="M22.2583 17 L11 10.5 L22.2583 4 Z" clip-path="url(#clipPath7)" transform="translate(210,140)"/></g><g fill="#00f" stroke="#00f" stroke-dasharray="8 5" stroke-linecap="butt" stroke-miterlimit="5"><path fill="none" d="M11.5 20.5 L180.5 20.5" clip-path="url(#clipPath8)" transform="translate(480,130)"/><path fill="#fff" stroke="none" d="M22.2583 27 L11 20.5 L22.2583 14 Z" clip-path="url(#clipPath8)" transform="translate(480,130)"/><path fill="none" stroke-dasharray="none" stroke-linecap="square" stroke-miterlimit="10" d="M22.2583 27 L11 20.5 L22.2583 14 Z" clip-path="url(#clipPath8)" transform="translate(480,130)"/></g><g fill="#00f" stroke="#00f" font-family="sans-serif" font-size="14"><text x="46.501" y="16" stroke="none" clip-path="url(#clipPath8)" transform="translate(480,130)" xml:space="preserve">Grants access</text></g><g><path fill="none" d="M10.5 10.5 L50.5 50.5" clip-path="url(#clipPath9)" transform="translate(750,250)"/></g><g fill="red" stroke="red" stroke-dasharray="1 2" stroke-linecap="butt" stroke-miterlimit="5"><path fill="none" d="M10.5 10.5 L50.5 10.5" clip-path="url(#clipPath10)" transform="translate(750,220)"/></g><g fill="red" stroke="red" stroke-dasharray="1 2" stroke-linecap="butt" stroke-miterlimit="5"><path fill="none" d="M11.5 20.5 L160.5 20.5" clip-path="url(#clipPath11)" transform="translate(500,210)"/><path fill="none" stroke-dasharray="none" stroke-linecap="square" stroke-miterlimit="10" d="M17.136 14.136 L29.864 26.864" clip-path="url(#clipPath11)" transform="translate(500,210)"/><path fill="none" stroke-dasharray="none" stroke-linecap="square" stroke-miterlimit="10" d="M17.136 26.864 L29.864 14.136" clip-path="url(#clipPath11)" transform="translate(500,210)"/></g><g fill="red" stroke="red" font-family="sans-serif" font-size="14"><text x="50.698" y="16" stroke="none" clip-path="url(#clipPath11)" transform="translate(500,210)" xml:space="preserve">No access</text><text x="34.776" y="32.109" stroke="none" clip-path="url(#clipPath11)" transform="translate(500,210)" xml:space="preserve">(Issuer + Type</text><text x="37.58" y="48.219" stroke="none" clip-path="url(#clipPath11)" transform="translate(500,210)" xml:space="preserve">not accepted)</text></g><g fill="#00f" stroke="#00f" stroke-dasharray="8 5" stroke-linecap="butt" stroke-miterlimit="5"><path fill="none" d="M11.5 10.5 L50.5 10.5" clip-path="url(#clipPath10)" transform="translate(750,140)"/><path fill="#fff" stroke="none" d="M22.2583 17 L11 10.5 L22.2583 4 Z" clip-path="url(#clipPath10)" transform="translate(750,140)"/><path fill="none" stroke-dasharray="none" stroke-linecap="square" stroke-miterlimit="10" d="M22.2583 17 L11 10.5 L22.2583 4 Z" clip-path="url(#clipPath10)" transform="translate(750,140)"/></g><g><path fill="none" d="M10.5 60.5 L50.5 10.5" clip-path="url(#clipPath12)" transform="translate(750,70)"/></g><g><path fill="none" d="M149.5 10.5 L10.5 10.5" clip-path="url(#clipPath13)" transform="translate(170,100)"/><path fill="none" d="M138.7417 4 L150 10.5 L138.7417 17" clip-path="url(#clipPath13)" transform="translate(170,100)"/></g></g></svg>