<svg xmlns="http://www.w3.org/2000/svg" xmlns:xlink="http://www.w3.org/1999/xlink" width="920" height="910" fill="#000" fill-opacity="1" stroke="#000" stroke-dasharray="none" stroke-dashoffset="0" stroke-linecap="square" stroke-linejoin="miter" stroke-miterlimit="10" stroke-opacity="1" stroke-width="1" color-interpolation="auto" color-rendering="auto" font-family="'Dialog'" font-size="12" font-style="normal" font-weight="normal" image-rendering="auto" shape-rendering="auto" text-rendering="auto" viewBox="10 0 920 910"><g><defs id="defs1"><clipPath id="clipPath1" clipPathUnits="userSpaceOnUse"><path d="M0 0 L2147483647 0 L2147483647 2147483647 L0 2147483647 L0 0 Z"/></clipPath><clipPath id="clipPath2" clipPathUnits="userSpaceOnUse"><path d="M0 0 L0 30 L240 30 L240 0 Z"/></clipPath><clipPath id="clipPath3" clipPathUnits="userSpaceOnUse"><path d="M0 0 L0 30 L270 30 L270 0 Z"/></clipPath><clipPath id="clipPath4" clipPathUnits="userSpaceOnUse"><path d="M0 0 L0 30 L210 30 L210 0 Z"/></clipPath><clipPath id="clipPath5" clipPathUnits="userSpaceOnUse"><path d="M0 0 L0 50 L510 50 L510 0 Z"/></clipPath><clipPath id="clipPath6" clipPathUnits="userSpaceOnUse"><path d="M0 0 L0 30 L190 30 L190 0 Z"/></clipPath><clipPath id="clipPath7" clipPathUnits="userSpaceOnUse"><path d="M0 0 L0 30 L140 30 L140 0 Z"/></clipPath><clipPath id="clipPath8" clipPathUnits="userSpaceOnUse"><path d="M0 0 L0 30 L260 30 L260 0 Z"/></clipPath><clipPath id="clipPath9" clipPathUnits="userSpaceOnUse"><path d="M0 0 L0 30 L20 30 L20 0 Z"/></clipPath><clipPath id="clipPath10" clipPathUnits="userSpaceOnUse"><path d="M0 0 L0 60 L160 60 L160 0 Z"/></clipPath><clipPath id="clipPath11" clipPathUnits="userSpaceOnUse"><path d="M0 0 L0 50 L670 50 L670 0 Z"/></clipPath><clipPath id="clipPath12" clipPathUnits="userSpaceOnUse"><path d="M0 0 L0 50 L620 50 L620 0 Z"/></clipPath><clipPath id="clipPath13" clipPathUnits="userSpaceOnUse"><path d="M0 0 L0 50 L870 50 L870 0 Z"/></clipPath><clipPath id="clipPath14" clipPathUnits="userSpaceOnUse"><path d="M0 0 L0 30 L310 30 L310 0 Z"/></clipPath><clipPath id="clipPath15" clipPathUnits="userSpaceOnUse"><path d="M0 0 L0 30 L510 30 L510 0 Z"/></clipPath><clipPath id="clipPath16" clipPathUnits="userSpaceOnUse"><path d="M0 0 L0 30 L130 30 L130 0 Z"/></clipPath><clipPath id="clipPath17" clipPathUnits="userSpaceOnUse"><path d="M0 0 L0 30 L150 30 L150 0 Z"/></clipPath><clipPath id="clipPath18" clipPathUnits="userSpaceOnUse"><path d="M0 0 L0 30 L180 30 L180 0 Z"/></clipPath><clipPath id="clipPath19" clipPathUnits="userSpaceOnUse"><path d="M0 0 L0 30 L220 30 L220 0 Z"/></clipPath><clipPath id="clipPath20" clipPathUnits="userSpaceOnUse"><path d="M0 0 L0 40 L300 40 L300 0 Z"/></clipPath><clipPath id="clipPath21" clipPathUnits="userSpaceOnUse"><path d="M0 0 L0 30 L200 30 L200 0 Z"/></clipPath><clipPath id="clipPath22" clipPathUnits="userSpaceOnUse"><path d="M0 0 L0 110 L210 110 L210 0 Z"/></clipPath><clipPath id="clipPath23" clipPathUnits="userSpaceOnUse"><path d="M0 0 L0 110 L120 110 L120 0 Z"/></clipPath><clipPath id="clipPath24" clipPathUnits="userSpaceOnUse"><path d="M0 0 L0 50 L50 50 L50 0 Z"/></clipPath><clipPath id="clipPath25" clipPathUnits="userSpaceOnUse"><path d="M0 0 L0 60 L50 60 L50 0 Z"/></clipPath><clipPath id="clipPath26" clipPathUnits="userSpaceOnUse"><path d="M0 0 L0 80 L50 80 L50 0 Z"/></clipPath><clipPath id="clipPath27" clipPathUnits="userSpaceOnUse"><path d="M0 0 L0 130 L60 130 L60 0 Z"/></clipPath><clipPath id="clipPath28" clipPathUnits="userSpaceOnUse"><path d="M0 0 L0 110 L60 110 L60 0 Z"/></clipPath><clipPath id="clipPath29" clipPathUnits="userSpaceOnUse"><path d="M0 0 L0 70 L50 70 L50 0 Z"/></clipPath><clipPath id="clipPath30" clipPathUnits="userSpaceOnUse"><path d="M0 0 L0 230 L40 230 L40 0 Z"/></clipPath><clipPath id="clipPath31" clipPathUnits="userSpaceOnUse"><path d="M0 0 L0 230 L460 230 L460 0 Z"/></clipPath><clipPath id="clipPath32" clipPathUnits="userSpaceOnUse"><path d="M0 0 L0 50 L40 50 L40 0 Z"/></clipPath><clipPath id="clipPath33" clipPathUnits="userSpaceOnUse"><path d="M0 0 L0 70 L60 70 L60 0 Z"/></clipPath><clipPath id="clipPath34" clipPathUnits="userSpaceOnUse"><path d="M0 0 L0 90 L50 90 L50 0 Z"/></clipPath></defs><g font-family="sans-serif" font-size="14"><text x="5" y="18.109" stroke="none" clip-path="url(#clipPath2)" transform="translate(440,360)" xml:space="preserve">MPT Issuance ID Format</text></g><g fill="#FFF" fill-opacity="0" stroke="#FFF" stroke-opacity="0" transform="translate(630,400)"><rect width="268.5" height="28.5" x=".5" y=".5" stroke="none" clip-path="url(#clipPath3)"/></g><g transform="translate(630,400)"><rect width="268.5" height="28.5" x=".5" y=".5" fill="none" clip-path="url(#clipPath3)"/><text x="34" y="18.109" stroke="none" clip-path="url(#clipPath3)" font-family="sans-serif" font-size="14" xml:space="preserve">issuer&apos;s AccountID (160 bits)</text></g><g fill="#FFF" fill-opacity="0" stroke="#FFF" stroke-opacity="0" transform="translate(410,400)"><rect width="208.5" height="28.5" x=".5" y=".5" stroke="none" clip-path="url(#clipPath4)"/></g><g transform="translate(410,400)"><rect width="208.5" height="28.5" x=".5" y=".5" fill="none" clip-path="url(#clipPath4)"/><text x="9" y="18.109" stroke="none" clip-path="url(#clipPath4)" font-family="sans-serif" font-size="14" xml:space="preserve">Sequence number (32 bits)</text></g><g fill="#FFF" fill-opacity="0" stroke="#FFF" stroke-opacity="0" transform="translate(400,390)"><rect width="508.5" height="48.5" x=".5" y=".5" stroke="none" clip-path="url(#clipPath5)"/></g><g transform="translate(400,390)"><rect width="508.5" height="48.5" x=".5" y=".5" fill="none" clip-path="url(#clipPath5)"/></g><g fill="#FFF" fill-opacity="0" stroke="#FFF" stroke-opacity="0" transform="translate(490,280)"><rect width="208.5" height="28.5" x=".5" y=".5" stroke="none" clip-path="url(#clipPath4)"/></g><g transform="translate(490,280)"><rect width="208.5" height="28.5" x=".5" y=".5" fill="none" clip-path="url(#clipPath4)"/><text x="11" y="18.109" stroke="none" clip-path="url(#clipPath4)" font-family="sans-serif" font-size="14" xml:space="preserve">MPT issuance ID (192 bits)</text></g><g fill="#FFF" fill-opacity="0" stroke="#FFF" stroke-opacity="0" transform="translate(290,280)"><rect width="188.5" height="28.5" x=".5" y=".5" stroke="none" clip-path="url(#clipPath6)"/></g><g transform="translate(290,280)"><rect width="188.5" height="28.5" x=".5" y=".5" fill="none" clip-path="url(#clipPath6)"/><text x="6" y="18.109" stroke="none" clip-path="url(#clipPath6)" font-family="sans-serif" font-size="14" xml:space="preserve">integer quantity (64 bits)</text></g><g fill="#FFF" fill-opacity="0" stroke="#FFF" stroke-opacity="0" transform="translate(140,280)"><rect width="138.5" height="28.5" x=".5" y=".5" stroke="none" clip-path="url(#clipPath7)"/></g><g transform="translate(140,280)"><rect width="138.5" height="28.5" x=".5" y=".5" fill="none" clip-path="url(#clipPath7)"/><text x="11" y="18.109" stroke="none" clip-path="url(#clipPath7)" font-family="sans-serif" font-size="14" xml:space="preserve">reserved (5 bits)</text></g><g font-family="sans-serif" font-size="14"><text x="5" y="18.109" stroke="none" clip-path="url(#clipPath8)" transform="translate(130,100)" xml:space="preserve">MPT indicator bit (1=MPT, 0=XRP)</text></g><g fill="#FFF" fill-opacity="0" stroke="#FFF" stroke-opacity="0" transform="translate(100,60)"><rect width="18.5" height="28.5" x=".5" y=".5" stroke="none" clip-path="url(#clipPath9)"/></g><g transform="translate(100,60)"><rect width="18.5" height="28.5" x=".5" y=".5" fill="none" clip-path="url(#clipPath9)"/><text x="5" y="18.109" stroke="none" clip-path="url(#clipPath9)" font-family="sans-serif" font-size="14" xml:space="preserve">0</text></g><g font-family="sans-serif" font-size="14"><text x="5" y="18.109" stroke="none" clip-path="url(#clipPath8)" transform="translate(140,330)" xml:space="preserve">MPT indicator bit (1=MPT, 0=XRP)</text></g><g fill="#FFF" fill-opacity="0" stroke="#FFF" stroke-opacity="0" transform="translate(110,280)"><rect width="18.5" height="28.5" x=".5" y=".5" stroke="none" clip-path="url(#clipPath9)"/></g><g transform="translate(110,280)"><rect width="18.5" height="28.5" x=".5" y=".5" fill="none" clip-path="url(#clipPath9)"/><text x="5" y="18.109" stroke="none" clip-path="url(#clipPath9)" font-family="sans-serif" font-size="14" xml:space="preserve">1</text></g><g fill="#FFF" fill-opacity="0" stroke="#FFF" stroke-opacity="0" transform="translate(80,280)"><rect width="18.5" height="28.5" x=".5" y=".5" stroke="none" clip-path="url(#clipPath9)"/></g><g transform="translate(80,280)"><rect width="18.5" height="28.5" x=".5" y=".5" fill="none" clip-path="url(#clipPath9)"/><text x="5" y="18.109" stroke="none" clip-path="url(#clipPath9)" font-family="sans-serif" font-size="14" xml:space="preserve">1</text></g><g font-family="sans-serif" font-size="14"><text x="5" y="18.109" stroke="none" clip-path="url(#clipPath8)" transform="translate(110,350)" xml:space="preserve">Sign bit (always 1 for positive)</text></g><g font-family="sans-serif" font-size="14"><text x="5" y="18.109" stroke="none" clip-path="url(#clipPath10)" transform="translate(90,380)" xml:space="preserve">Amount type bit</text><text x="5" y="34.219" stroke="none" clip-path="url(#clipPath10)" transform="translate(90,380)" xml:space="preserve">(0=XRP or MPT,</text><text x="5" y="50.328" stroke="none" clip-path="url(#clipPath10)" transform="translate(90,380)" xml:space="preserve">1=fungible token)</text></g><g fill="#FFF" fill-opacity="0" stroke="#FFF" stroke-opacity="0" transform="translate(50,280)"><rect width="18.5" height="28.5" x=".5" y=".5" stroke="none" clip-path="url(#clipPath9)"/></g><g transform="translate(50,280)"><rect width="18.5" height="28.5" x=".5" y=".5" fill="none" clip-path="url(#clipPath9)"/><text x="5" y="18.109" stroke="none" clip-path="url(#clipPath9)" font-family="sans-serif" font-size="14" xml:space="preserve">0</text></g><g fill="#FFF" fill-opacity="0" stroke="#FFF" stroke-opacity="0" transform="translate(40,270)"><rect width="668.5" height="48.5" x=".5" y=".5" stroke="none" clip-path="url(#clipPath11)"/></g><g transform="translate(40,270)"><rect width="668.5" height="48.5" x=".5" y=".5" fill="none" clip-path="url(#clipPath11)"/></g><g font-family="sans-serif" font-size="14" font-weight="bold"><text x="5" y="18.109" stroke="none" clip-path="url(#clipPath6)" transform="translate(30,240)" xml:space="preserve">MPT Amount Format</text></g><g fill="#FFF" fill-opacity="0" stroke="#FFF" stroke-opacity="0" transform="translate(40,790)"><rect width="618.5" height="48.5" x=".5" y=".5" stroke="none" clip-path="url(#clipPath12)"/></g><g transform="translate(40,790)"><rect width="618.5" height="48.5" x=".5" y=".5" fill="none" clip-path="url(#clipPath12)"/></g><g font-family="sans-serif" font-size="14"><text x="5" y="18.109" stroke="none" clip-path="url(#clipPath2)" transform="translate(100,760)" xml:space="preserve">Standard Currency Code Format</text></g><g fill="#FFF" fill-opacity="0" stroke="#FFF" stroke-opacity="0" transform="translate(40,550)"><rect width="868.5" height="48.5" x=".5" y=".5" stroke="none" clip-path="url(#clipPath13)"/></g><g transform="translate(40,550)"><rect width="868.5" height="48.5" x=".5" y=".5" fill="none" clip-path="url(#clipPath13)"/></g><g font-family="sans-serif" font-size="14" font-weight="bold"><text x="5" y="18.109" stroke="none" clip-path="url(#clipPath14)" transform="translate(40,520)" xml:space="preserve">Fungible Token Amount Format</text></g><g font-family="sans-serif" font-size="14" font-weight="bold"><text x="5" y="18.109" stroke="none" clip-path="url(#clipPath6)" transform="translate(30,20)" xml:space="preserve">XRP Amount Format</text></g><g fill="#FFF" fill-opacity="0" stroke="#FFF" stroke-opacity="0" transform="translate(30,50)"><rect width="618.5" height="48.5" x=".5" y=".5" stroke="none" clip-path="url(#clipPath12)"/></g><g transform="translate(30,50)"><rect width="618.5" height="48.5" x=".5" y=".5" fill="none" clip-path="url(#clipPath12)"/></g><g fill="#FFF" fill-opacity="0" stroke="#FFF" stroke-opacity="0" transform="translate(130,60)"><rect width="508.5" height="28.5" x=".5" y=".5" stroke="none" clip-path="url(#clipPath15)"/></g><g transform="translate(130,60)"><rect width="508.5" height="28.5" x=".5" y=".5" fill="none" clip-path="url(#clipPath15)"/><text x="176" y="18.109" stroke="none" clip-path="url(#clipPath15)" font-family="sans-serif" font-size="14" xml:space="preserve">integer drops (61 bits)</text></g><g font-family="sans-serif" font-size="14"><text x="5" y="18.109" stroke="none" clip-path="url(#clipPath10)" transform="translate(80,140)" xml:space="preserve">Amount type bit</text><text x="5" y="34.219" stroke="none" clip-path="url(#clipPath10)" transform="translate(80,140)" xml:space="preserve">(0=XRP or MPT,</text><text x="5" y="50.328" stroke="none" clip-path="url(#clipPath10)" transform="translate(80,140)" xml:space="preserve">1=fungible token)</text></g><g font-family="sans-serif" font-size="14"><text x="5" y="18.109" stroke="none" clip-path="url(#clipPath8)" transform="translate(100,120)" xml:space="preserve">Sign bit (always 1 for positive)</text></g><g fill="#FFF" fill-opacity="0" stroke="#FFF" stroke-opacity="0" transform="translate(70,60)"><rect width="18.5" height="28.5" x=".5" y=".5" stroke="none" clip-path="url(#clipPath9)"/></g><g transform="translate(70,60)"><rect width="18.5" height="28.5" x=".5" y=".5" fill="none" clip-path="url(#clipPath9)"/><text x="5" y="18.109" stroke="none" clip-path="url(#clipPath9)" font-family="sans-serif" font-size="14" xml:space="preserve">1</text></g><g fill="#FFF" fill-opacity="0" stroke="#FFF" stroke-opacity="0" transform="translate(40,60)"><rect width="18.5" height="28.5" x=".5" y=".5" stroke="none" clip-path="url(#clipPath9)"/></g><g transform="translate(40,60)"><rect width="18.5" height="28.5" x=".5" y=".5" fill="none" clip-path="url(#clipPath9)"/><text x="5" y="18.109" stroke="none" clip-path="url(#clipPath9)" font-family="sans-serif" font-size="14" xml:space="preserve">0</text></g><g font-family="sans-serif" font-size="14"><text x="5" y="18.109" stroke="none" clip-path="url(#clipPath16)" transform="translate(340,840)" xml:space="preserve">3 chars of ASCII</text></g><g fill="#FFF" fill-opacity="0" stroke="#FFF" stroke-opacity="0" transform="translate(310,800)"><rect width="148.5" height="28.5" x=".5" y=".5" stroke="none" clip-path="url(#clipPath17)"/></g><g transform="translate(310,800)"><rect width="148.5" height="28.5" x=".5" y=".5" fill="none" clip-path="url(#clipPath17)"/><text x="12" y="18.109" stroke="none" clip-path="url(#clipPath17)" font-family="sans-serif" font-size="14" xml:space="preserve">ISO code (24 bits)</text></g><g fill="#FFF" fill-opacity="0" stroke="#FFF" stroke-opacity="0" transform="translate(470,800)"><rect width="178.5" height="28.5" x=".5" y=".5" stroke="none" clip-path="url(#clipPath18)"/></g><g transform="translate(470,800)"><rect width="178.5" height="28.5" x=".5" y=".5" fill="none" clip-path="url(#clipPath18)"/><text x="27" y="18.109" stroke="none" clip-path="url(#clipPath18)" font-family="sans-serif" font-size="14" xml:space="preserve">reserved (40 bits)</text></g><g fill="#FFF" fill-opacity="0" stroke="#FFF" stroke-opacity="0" transform="translate(80,800)"><rect width="218.5" height="28.5" x=".5" y=".5" stroke="none" clip-path="url(#clipPath19)"/></g><g transform="translate(80,800)"><rect width="218.5" height="28.5" x=".5" y=".5" fill="none" clip-path="url(#clipPath19)"/><text x="47" y="18.109" stroke="none" clip-path="url(#clipPath19)" font-family="sans-serif" font-size="14" xml:space="preserve">reserved (88 bits)</text></g><g font-family="sans-serif" font-size="14"><text x="5" y="18.109" stroke="none" clip-path="url(#clipPath20)" transform="translate(90,850)" xml:space="preserve">Type code (8 bits)</text><text x="5" y="34.219" stroke="none" clip-path="url(#clipPath20)" transform="translate(90,850)" xml:space="preserve">0x00 for ISO 4217/pseudo-ISO currency</text></g><g fill="#FFF" fill-opacity="0" stroke="#FFF" stroke-opacity="0" transform="translate(50,800)"><rect width="18.5" height="28.5" x=".5" y=".5" stroke="none" clip-path="url(#clipPath9)"/></g><g transform="translate(50,800)"><rect width="18.5" height="28.5" x=".5" y=".5" fill="none" clip-path="url(#clipPath9)"/><text x="1" y="18.109" stroke="none" clip-path="url(#clipPath9)" font-family="sans-serif" font-size="14" xml:space="preserve">00</text></g><g fill="#FFF" fill-opacity="0" stroke="#FFF" stroke-opacity="0" transform="translate(680,560)"><rect width="218.5" height="28.5" x=".5" y=".5" stroke="none" clip-path="url(#clipPath19)"/></g><g transform="translate(680,560)"><rect width="218.5" height="28.5" x=".5" y=".5" fill="none" clip-path="url(#clipPath19)"/><text x="9" y="18.109" stroke="none" clip-path="url(#clipPath19)" font-family="sans-serif" font-size="14" xml:space="preserve">issuer&apos;s AccountID (160 bits)</text></g><g fill="#FFF" fill-opacity="0" stroke="#FFF" stroke-opacity="0" transform="translate(470,560)"><rect width="198.5" height="28.5" x=".5" y=".5" stroke="none" clip-path="url(#clipPath21)"/></g><g transform="translate(470,560)"><rect width="198.5" height="28.5" x=".5" y=".5" fill="none" clip-path="url(#clipPath21)"/><text x="14" y="18.109" stroke="none" clip-path="url(#clipPath21)" font-family="sans-serif" font-size="14" xml:space="preserve">currency code (160 bits)</text></g><g font-family="sans-serif" font-size="14"><text x="5" y="18.109" stroke="none" clip-path="url(#clipPath10)" transform="translate(90,640)" xml:space="preserve">Amount type bit</text><text x="5" y="34.219" stroke="none" clip-path="url(#clipPath10)" transform="translate(90,640)" xml:space="preserve">(0=XRP or MPT,</text><text x="5" y="50.328" stroke="none" clip-path="url(#clipPath10)" transform="translate(90,640)" xml:space="preserve">1=fungible token)</text></g><g font-family="sans-serif" font-size="14"><text x="5" y="18.109" stroke="none" clip-path="url(#clipPath8)" transform="translate(110,610)" xml:space="preserve">Sign bit (0=negative, 1=positive)</text></g><g fill="#FFF" fill-opacity="0" stroke="#FFF" stroke-opacity="0" transform="translate(270,560)"><rect width="188.5" height="28.5" x=".5" y=".5" stroke="none" clip-path="url(#clipPath6)"/></g><g transform="translate(270,560)"><rect width="188.5" height="28.5" x=".5" y=".5" fill="none" clip-path="url(#clipPath6)"/><text x="5" y="18.109" stroke="none" clip-path="url(#clipPath6)" font-family="sans-serif" font-size="14" xml:space="preserve">significant digits (54 bits)</text></g><g fill="#FFF" fill-opacity="0" stroke="#FFF" stroke-opacity="0" transform="translate(110,560)"><rect width="148.5" height="28.5" x=".5" y=".5" stroke="none" clip-path="url(#clipPath17)"/></g><g transform="translate(110,560)"><rect width="148.5" height="28.5" x=".5" y=".5" fill="none" clip-path="url(#clipPath17)"/><text x="14" y="18.109" stroke="none" clip-path="url(#clipPath17)" font-family="sans-serif" font-size="14" xml:space="preserve">exponent (8 bits)</text></g><g fill="#FFF" fill-opacity="0" stroke="#FFF" stroke-opacity="0" transform="translate(80,560)"><rect width="18.5" height="28.5" x=".5" y=".5" stroke="none" clip-path="url(#clipPath9)"/></g><g transform="translate(80,560)"><rect width="18.5" height="28.5" x=".5" y=".5" fill="none" clip-path="url(#clipPath9)"/></g><g fill="#FFF" fill-opacity="0" stroke="#FFF" stroke-opacity="0" transform="translate(50,560)"><rect width="18.5" height="28.5" x=".5" y=".5" stroke="none" clip-path="url(#clipPath9)"/></g><g transform="translate(50,560)"><rect width="18.5" height="28.5" x=".5" y=".5" fill="none" clip-path="url(#clipPath9)"/><text x="5" y="18.109" stroke="none" clip-path="url(#clipPath9)" font-family="sans-serif" font-size="14" xml:space="preserve">1</text></g><g stroke-dasharray="1 2" stroke-linecap="butt" stroke-miterlimit="5"><path fill="none" d="M190.5 90.5 L10.5 10.5" clip-path="url(#clipPath22)" transform="translate(690,300)"/></g><g stroke-dasharray="1 2" stroke-linecap="butt" stroke-miterlimit="5"><path fill="none" d="M10.5 90.5 L100.5 10.5" clip-path="url(#clipPath23)" transform="translate(390,300)"/></g><g><path fill="none" d="M10.5 11.5 L10.5 30.5" clip-path="url(#clipPath24)" transform="translate(100,80)"/><path fill="none" d="M10.5 30.5 L30.5 30.5" clip-path="url(#clipPath24)" transform="translate(100,80)"/><path fill="#fff" stroke="none" d="M4 22.2583 L10.5 11 L17 22.2583 Z" clip-path="url(#clipPath24)" transform="translate(100,80)"/><path fill="none" d="M4 22.2583 L10.5 11 L17 22.2583 Z" clip-path="url(#clipPath24)" transform="translate(100,80)"/></g><g><path fill="none" d="M10.5 11.5 L10.5 40.5" clip-path="url(#clipPath25)" transform="translate(110,300)"/><path fill="none" d="M10.5 40.5 L30.5 40.5" clip-path="url(#clipPath25)" transform="translate(110,300)"/><path fill="#fff" stroke="none" d="M4 22.2583 L10.5 11 L17 22.2583 Z" clip-path="url(#clipPath25)" transform="translate(110,300)"/><path fill="none" d="M4 22.2583 L10.5 11 L17 22.2583 Z" clip-path="url(#clipPath25)" transform="translate(110,300)"/></g><g><path fill="none" d="M10.5 11.5 L10.5 60.5" clip-path="url(#clipPath26)" transform="translate(80,300)"/><path fill="none" d="M10.5 60.5 L30.5 60.5" clip-path="url(#clipPath26)" transform="translate(80,300)"/><path fill="#fff" stroke="none" d="M4 22.2583 L10.5 11 L17 22.2583 Z" clip-path="url(#clipPath26)" transform="translate(80,300)"/><path fill="none" d="M4 22.2583 L10.5 11 L17 22.2583 Z" clip-path="url(#clipPath26)" transform="translate(80,300)"/></g><g><path fill="none" d="M10.5 11.5 L10.5 110.5" clip-path="url(#clipPath27)" transform="translate(50,300)"/><path fill="none" d="M10.5 110.5 L40.5 110.5" clip-path="url(#clipPath27)" transform="translate(50,300)"/><path fill="#fff" stroke="none" d="M4 22.2583 L10.5 11 L17 22.2583 Z" clip-path="url(#clipPath27)" transform="translate(50,300)"/><path fill="none" d="M4 22.2583 L10.5 11 L17 22.2583 Z" clip-path="url(#clipPath27)" transform="translate(50,300)"/></g><g><path fill="none" d="M10.5 11.5 L10.5 90.5" clip-path="url(#clipPath28)" transform="translate(40,80)"/><path fill="none" d="M10.5 90.5 L40.5 90.5" clip-path="url(#clipPath28)" transform="translate(40,80)"/><path fill="#fff" stroke="none" d="M4 22.2583 L10.5 11 L17 22.2583 Z" clip-path="url(#clipPath28)" transform="translate(40,80)"/><path fill="none" d="M4 22.2583 L10.5 11 L17 22.2583 Z" clip-path="url(#clipPath28)" transform="translate(40,80)"/></g><g><path fill="none" d="M10.5 11.5 L10.5 50.5" clip-path="url(#clipPath29)" transform="translate(70,80)"/><path fill="none" d="M10.5 50.5 L30.5 50.5" clip-path="url(#clipPath29)" transform="translate(70,80)"/><path fill="#fff" stroke="none" d="M4 22.2583 L10.5 11 L17 22.2583 Z" clip-path="url(#clipPath29)" transform="translate(70,80)"/><path fill="none" d="M4 22.2583 L10.5 11 L17 22.2583 Z" clip-path="url(#clipPath29)" transform="translate(70,80)"/></g><g stroke-dasharray="1 2" stroke-linecap="butt" stroke-miterlimit="5"><path fill="none" d="M10.5 210.5 L20.5 10.5" clip-path="url(#clipPath30)" transform="translate(650,580)"/></g><g stroke-dasharray="1 2" stroke-linecap="butt" stroke-miterlimit="5"><path fill="none" d="M10.5 210.5 L440.5 10.5" clip-path="url(#clipPath31)" transform="translate(30,580)"/></g><g><path fill="none" d="M10.5 11.5 L10.5 30.5" clip-path="url(#clipPath32)" transform="translate(320,820)"/><path fill="none" d="M10.5 30.5 L20.5 30.5" clip-path="url(#clipPath32)" transform="translate(320,820)"/><path fill="#fff" stroke="none" d="M4 22.2583 L10.5 11 L17 22.2583 Z" clip-path="url(#clipPath32)" transform="translate(320,820)"/><path fill="none" d="M4 22.2583 L10.5 11 L17 22.2583 Z" clip-path="url(#clipPath32)" transform="translate(320,820)"/></g><g><path fill="none" d="M10.5 11.5 L10.5 50.5" clip-path="url(#clipPath33)" transform="translate(50,810)"/><path fill="none" d="M10.5 50.5 L40.5 50.5" clip-path="url(#clipPath33)" transform="translate(50,810)"/><path fill="#fff" stroke="none" d="M4 22.2583 L10.5 11 L17 22.2583 Z" clip-path="url(#clipPath33)" transform="translate(50,810)"/><path fill="none" d="M4 22.2583 L10.5 11 L17 22.2583 Z" clip-path="url(#clipPath33)" transform="translate(50,810)"/></g><g><path fill="none" d="M10.5 11.5 L10.5 70.5" clip-path="url(#clipPath34)" transform="translate(50,580)"/><path fill="none" d="M10.5 70.5 L30.5 70.5" clip-path="url(#clipPath34)" transform="translate(50,580)"/><path fill="#fff" stroke="none" d="M4 22.2583 L10.5 11 L17 22.2583 Z" clip-path="url(#clipPath34)" transform="translate(50,580)"/><path fill="none" d="M4 22.2583 L10.5 11 L17 22.2583 Z" clip-path="url(#clipPath34)" transform="translate(50,580)"/></g><g><path fill="none" d="M10.5 11.5 L10.5 40.5" clip-path="url(#clipPath25)" transform="translate(80,580)"/><path fill="none" d="M10.5 40.5 L30.5 40.5" clip-path="url(#clipPath25)" transform="translate(80,580)"/><path fill="#fff" stroke="none" d="M4 22.2583 L10.5 11 L17 22.2583 Z" clip-path="url(#clipPath25)" transform="translate(80,580)"/><path fill="none" d="M4 22.2583 L10.5 11 L17 22.2583 Z" clip-path="url(#clipPath25)" transform="translate(80,580)"/></g></g></svg>