<svg xmlns="http://www.w3.org/2000/svg" xmlns:xlink="http://www.w3.org/1999/xlink" width="1100" height="340" fill="#000" fill-opacity="1" stroke="#000" stroke-dasharray="none" stroke-dashoffset="0" stroke-linecap="square" stroke-linejoin="miter" stroke-miterlimit="10" stroke-opacity="1" stroke-width="1" color-interpolation="auto" color-rendering="auto" font-family="'Dialog'" font-size="12" font-style="normal" font-weight="normal" image-rendering="auto" shape-rendering="auto" text-rendering="auto" viewBox="30 10 1100 340"><g><defs id="defs1"><clipPath id="clipPath1" clipPathUnits="userSpaceOnUse"><path d="M0 0 L2147483647 0 L2147483647 2147483647 L0 2147483647 L0 0 Z"/></clipPath><clipPath id="clipPath2" clipPathUnits="userSpaceOnUse"><path d="M0 0 L0 80 L260 80 L260 0 Z"/></clipPath><clipPath id="clipPath3" clipPathUnits="userSpaceOnUse"><path d="M0 0 L0 30 L270 30 L270 0 Z"/></clipPath><clipPath id="clipPath4" clipPathUnits="userSpaceOnUse"><path d="M0 0 L0 30 L250 30 L250 0 Z"/></clipPath><clipPath id="clipPath5" clipPathUnits="userSpaceOnUse"><path d="M0 0 L0 30 L210 30 L210 0 Z"/></clipPath><clipPath id="clipPath6" clipPathUnits="userSpaceOnUse"><path d="M0 0 L0 30 L40 30 L40 0 Z"/></clipPath><clipPath id="clipPath7" clipPathUnits="userSpaceOnUse"><path d="M0 0 L0 40 L270 40 L270 0 Z"/></clipPath><clipPath id="clipPath8" clipPathUnits="userSpaceOnUse"><path d="M0 0 L0 50 L620 50 L620 0 Z"/></clipPath><clipPath id="clipPath9" clipPathUnits="userSpaceOnUse"><path d="M0 0 L0 30 L240 30 L240 0 Z"/></clipPath><clipPath id="clipPath10" clipPathUnits="userSpaceOnUse"><path d="M0 0 L0 50 L1050 50 L1050 0 Z"/></clipPath><clipPath id="clipPath11" clipPathUnits="userSpaceOnUse"><path d="M0 0 L0 30 L160 90 L200 0 Z"/></clipPath><clipPath id="clipPath12" clipPathUnits="userSpaceOnUse"><path d="M0 0 L0 30 L280 30 L280 0 Z"/></clipPath><clipPath id="clipPath13" clipPathUnits="userSpaceOnUse"><path d="M0 0 L0 30 L310 30 L310 0 Z"/></clipPath><clipPath id="clipPath14" clipPathUnits="userSpaceOnUse"><path d="M0 0 L0 70 L60 70 L60 0 Z"/></clipPath><clipPath id="clipPath15" clipPathUnits="userSpaceOnUse"><path d="M0 0 L0 70 L250 70 L250 0 Z"/></clipPath><clipPath id="clipPath16" clipPathUnits="userSpaceOnUse"><path d="M0 0 L0 160 L30 160 L30 0 Z"/></clipPath><clipPath id="clipPath17" clipPathUnits="userSpaceOnUse"><path d="M0 0 L0 160 L400 160 L400 0 Z"/></clipPath></defs><g fill="#FF0" fill-opacity=".49" stroke="#FF0" stroke-opacity=".49"><path stroke="none" d="M0.5 0.5 L248.5 0.5 L259 12.5 L259 79 L0.5 79 Z" clip-path="url(#clipPath2)" transform="translate(170,210)"/></g><g><path fill="none" d="M0.5 0.5 L248.5 0.5 L259 12.5 L259 79 L0.5 79 Z" clip-path="url(#clipPath2)" transform="translate(170,210)"/><path fill="none" d="M248.5 0.5 L248.5 12.5 L259 12.5" clip-path="url(#clipPath2)" transform="translate(170,210)"/><text x="5" y="18.109" stroke="none" clip-path="url(#clipPath2)" font-family="sans-serif" font-size="14" font-weight="bold" transform="translate(170,210)" xml:space="preserve">注記:</text><text x="5" y="34.219" stroke="none" clip-path="url(#clipPath2)" font-family="sans-serif" font-size="14" transform="translate(170,210)" xml:space="preserve">ObjectフィールドやArrayフィールド</text><text x="5" y="50.328" stroke="none" clip-path="url(#clipPath2)" font-family="sans-serif" font-size="14" transform="translate(170,210)" xml:space="preserve">とは異なり、ネストされたSTIssue</text><text x="5" y="66.438" stroke="none" clip-path="url(#clipPath2)" font-family="sans-serif" font-size="14" transform="translate(170,210)" xml:space="preserve">タイプはフィールドIDで始まりません。</text></g><g font-family="sans-serif" font-size="14"><text x="5" y="25.109" stroke="none" clip-path="url(#clipPath3)" transform="translate(810,290)" xml:space="preserve">通貨コードが全て0の場合は省略</text></g><g fill="#FFF" fill-opacity="0" stroke="#FFF" stroke-opacity="0" transform="translate(840,70)"><rect width="248.5" height="28.5" x=".5" y=".5" stroke="none" clip-path="url(#clipPath4)"/></g><g transform="translate(840,70)"><rect width="248.5" height="28.5" x=".5" y=".5" fill="none" clip-path="url(#clipPath4)"/><text x="50" y="18.109" stroke="none" clip-path="url(#clipPath4)" font-family="sans-serif" font-size="14" xml:space="preserve">発行チェーンの発行者</text></g><g fill="#FFF" fill-opacity="0" stroke="#FFF" stroke-opacity="0" transform="translate(620,70)"><rect width="208.5" height="28.5" x=".5" y=".5" stroke="none" clip-path="url(#clipPath5)"/></g><g transform="translate(620,70)"><rect width="208.5" height="28.5" x=".5" y=".5" fill="none" clip-path="url(#clipPath5)"/><text x="10" y="18.109" stroke="none" clip-path="url(#clipPath5)" font-family="sans-serif" font-size="14" xml:space="preserve">発行チェーンのドア(160bits)</text></g><g fill="#FFF" fill-opacity="0" stroke="#FFF" stroke-opacity="0" transform="translate(580,70)"><rect width="38.5" height="28.5" x=".5" y=".5" stroke="none" clip-path="url(#clipPath6)"/></g><g transform="translate(580,70)"><rect width="38.5" height="28.5" x=".5" y=".5" fill="none" clip-path="url(#clipPath6)"/><text x="2" y="18.109" stroke="none" clip-path="url(#clipPath6)" font-family="sans-serif" font-size="14" xml:space="preserve">0x14</text></g><g font-family="sans-serif" font-size="14"><text x="5" y="18.109" stroke="none" clip-path="url(#clipPath7)" transform="translate(100,120)" xml:space="preserve">ドアアカウントの長さ接頭辞(8bits)</text><text x="5" y="34.219" stroke="none" clip-path="url(#clipPath7)" transform="translate(100,120)" xml:space="preserve">常に0x14</text></g><g fill="#FFF" fill-opacity="0" stroke="#FFF" stroke-opacity="0" transform="translate(60,70)"><rect width="38.5" height="28.5" x=".5" y=".5" stroke="none" clip-path="url(#clipPath6)"/></g><g transform="translate(60,70)"><rect width="38.5" height="28.5" x=".5" y=".5" fill="none" clip-path="url(#clipPath6)"/><text x="2" y="18.109" stroke="none" clip-path="url(#clipPath6)" font-family="sans-serif" font-size="14" xml:space="preserve">0x14</text></g><g fill="#FFF" fill-opacity="0" stroke="#FFF" stroke-opacity="0" transform="translate(320,70)"><rect width="248.5" height="28.5" x=".5" y=".5" stroke="none" clip-path="url(#clipPath4)"/></g><g transform="translate(320,70)"><rect width="248.5" height="28.5" x=".5" y=".5" fill="none" clip-path="url(#clipPath4)"/><text x="55" y="18.109" stroke="none" clip-path="url(#clipPath4)" font-family="sans-serif" font-size="14" xml:space="preserve">ロックチェーンの発行者</text></g><g fill="#FFF" fill-opacity="0" stroke="#FFF" stroke-opacity="0" transform="translate(100,70)"><rect width="208.5" height="28.5" x=".5" y=".5" stroke="none" clip-path="url(#clipPath5)"/></g><g transform="translate(100,70)"><rect width="208.5" height="28.5" x=".5" y=".5" fill="none" clip-path="url(#clipPath5)"/><text x="4" y="18.109" stroke="none" clip-path="url(#clipPath5)" font-family="sans-serif" font-size="14" xml:space="preserve">ロックチェーンのドア(160bits)</text></g><g fill="#FFF" fill-opacity="0" stroke="#FFF" stroke-opacity="0" transform="translate(470,230)"><rect width="618.5" height="48.5" x=".5" y=".5" stroke="none" clip-path="url(#clipPath8)"/></g><g transform="translate(470,230)"><rect width="618.5" height="48.5" x=".5" y=".5" fill="none" clip-path="url(#clipPath8)"/></g><g font-family="sans-serif" font-size="14"><text x="5" y="18.109" stroke="none" clip-path="url(#clipPath9)" transform="translate(580,200)" xml:space="preserve">STIssueのフォーマット</text></g><g fill="#FFF" fill-opacity="0" stroke="#FFF" stroke-opacity="0" transform="translate(50,60)"><rect width="1048.5" height="48.5" x=".5" y=".5" stroke="none" clip-path="url(#clipPath10)"/></g><g transform="translate(50,60)"><rect width="1048.5" height="48.5" x=".5" y=".5" fill="none" clip-path="url(#clipPath10)"/></g><g font-family="sans-serif" font-size="14"><text x="5" y="18.109" stroke="none" clip-path="url(#clipPath11)" transform="translate(50,30)" xml:space="preserve">XChainBridgeのフォーマット</text></g><g fill="#FFF" fill-opacity="0" stroke="#FFF" stroke-opacity="0" transform="translate(480,240)"><rect width="278.5" height="28.5" x=".5" y=".5" stroke="none" clip-path="url(#clipPath12)"/></g><g transform="translate(480,240)"><rect width="278.5" height="28.5" x=".5" y=".5" fill="none" clip-path="url(#clipPath12)"/><text x="65" y="18.109" stroke="none" clip-path="url(#clipPath12)" font-family="sans-serif" font-size="14" xml:space="preserve">通貨コード(160bits)</text></g><g fill="#FFF" fill-opacity="0" stroke="#FFF" stroke-opacity="0" transform="translate(770,240)"><rect width="308.5" height="28.5" x=".5" y=".5" stroke="none" clip-path="url(#clipPath13)"/></g><g stroke-dasharray="8 5" stroke-linecap="butt" stroke-miterlimit="5" transform="translate(770,240)"><rect width="308.5" height="28.5" x=".5" y=".5" fill="none" clip-path="url(#clipPath13)"/><text x="59" y="18.109" stroke="none" clip-path="url(#clipPath13)" font-family="sans-serif" font-size="14" xml:space="preserve">発行者のAccountID(160bits)</text></g><g><path fill="none" d="M10.5 11.5 L10.5 50.5" clip-path="url(#clipPath14)" transform="translate(770,260)"/><path fill="none" d="M10.5 50.5 L40.5 50.5" clip-path="url(#clipPath14)" transform="translate(770,260)"/><path fill="#fff" stroke="none" d="M4 22.2583 L10.5 11 L17 22.2583 Z" clip-path="url(#clipPath14)" transform="translate(770,260)"/><path fill="none" d="M4 22.2583 L10.5 11 L17 22.2583 Z" clip-path="url(#clipPath14)" transform="translate(770,260)"/></g><g><path fill="none" d="M230.5 11.5 L230.5 50.5" clip-path="url(#clipPath15)" transform="translate(360,90)"/><path fill="none" d="M230.5 50.5 L10.5 50.5" clip-path="url(#clipPath15)" transform="translate(360,90)"/><path fill="#fff" stroke="none" d="M224 22.2583 L230.5 11 L237 22.2583 Z" clip-path="url(#clipPath15)" transform="translate(360,90)"/><path fill="none" d="M224 22.2583 L230.5 11 L237 22.2583 Z" clip-path="url(#clipPath15)" transform="translate(360,90)"/></g><g><path fill="none" d="M10.5 11.5 L10.5 50.5" clip-path="url(#clipPath14)" transform="translate(60,90)"/><path fill="none" d="M10.5 50.5 L40.5 50.5" clip-path="url(#clipPath14)" transform="translate(60,90)"/><path fill="#fff" stroke="none" d="M4 22.2583 L10.5 11 L17 22.2583 Z" clip-path="url(#clipPath14)" transform="translate(60,90)"/><path fill="none" d="M4 22.2583 L10.5 11 L17 22.2583 Z" clip-path="url(#clipPath14)" transform="translate(60,90)"/></g><g stroke-dasharray="1 2" stroke-linecap="butt" stroke-miterlimit="5"><path fill="none" d="M10.5 140.5 L10.5 10.5" clip-path="url(#clipPath16)" transform="translate(1080,90)"/></g><g stroke-dasharray="1 2" stroke-linecap="butt" stroke-miterlimit="5"><path fill="none" d="M10.5 140.5 L380.5 10.5" clip-path="url(#clipPath17)" transform="translate(460,90)"/></g></g></svg>