<svg xmlns="http://www.w3.org/2000/svg" xmlns:xlink="http://www.w3.org/1999/xlink" width="1060" height="380" fill="#000" fill-opacity="1" stroke="#000" stroke-dasharray="none" stroke-dashoffset="0" stroke-linecap="square" stroke-linejoin="miter" stroke-miterlimit="10" stroke-opacity="1" stroke-width="1" color-interpolation="auto" color-rendering="auto" font-family="'Dialog'" font-size="12" font-style="normal" font-weight="normal" image-rendering="auto" shape-rendering="auto" text-rendering="auto" viewBox="60 50 1060 380"><g><defs id="defs1"><clipPath id="clipPath1" clipPathUnits="userSpaceOnUse"><path d="M0 0 L2147483647 0 L2147483647 2147483647 L0 2147483647 L0 0 Z"/></clipPath><clipPath id="clipPath2" clipPathUnits="userSpaceOnUse"><path d="M0 0 L0 40 L440 40 L440 0 Z"/></clipPath><clipPath id="clipPath3" clipPathUnits="userSpaceOnUse"><path d="M0 0 L0 40 L240 40 L240 0 Z"/></clipPath><clipPath id="clipPath4" clipPathUnits="userSpaceOnUse"><path d="M0 0 L0 30 L70 30 L70 0 Z"/></clipPath><clipPath id="clipPath5" clipPathUnits="userSpaceOnUse"><path d="M0 0 L0 110 L130 110 L130 0 Z"/></clipPath><clipPath id="clipPath6" clipPathUnits="userSpaceOnUse"><path d="M0 0 L0 340 L240 340 L240 0 Z"/></clipPath><clipPath id="clipPath7" clipPathUnits="userSpaceOnUse"><path d="M0 0 L0 70 L120 70 L120 0 Z"/></clipPath><clipPath id="clipPath8" clipPathUnits="userSpaceOnUse"><path d="M0 0 L0 330 L440 330 L440 0 Z"/></clipPath><clipPath id="clipPath9" clipPathUnits="userSpaceOnUse"><path d="M0 0 L0 100 L130 100 L130 0 Z"/></clipPath><clipPath id="clipPath10" clipPathUnits="userSpaceOnUse"><path d="M0 0 L0 190 L470 190 L470 0 Z"/></clipPath><clipPath id="clipPath11" clipPathUnits="userSpaceOnUse"><path d="M0 0 L0 170 L330 170 L330 0 Z"/></clipPath><clipPath id="clipPath12" clipPathUnits="userSpaceOnUse"><path d="M0 0 L0 160 L190 160 L190 0 Z"/></clipPath><clipPath id="clipPath13" clipPathUnits="userSpaceOnUse"><path d="M0 0 L0 50 L170 50 L170 0 Z"/></clipPath><clipPath id="clipPath14" clipPathUnits="userSpaceOnUse"><path d="M0 0 L0 30 L190 30 L190 0 Z"/></clipPath></defs><g font-family="sans-serif" font-size="14"><text x="212" y="17.984" stroke="none" clip-path="url(#clipPath2)" transform="translate(660,370)" xml:space="preserve">...</text></g><g font-family="sans-serif" font-size="14"><text x="112" y="17.984" stroke="none" clip-path="url(#clipPath3)" transform="translate(80,370)" xml:space="preserve">...</text></g><g font-family="sans-serif" font-size="14"><text x="5" y="17.984" stroke="none" clip-path="url(#clipPath4)" transform="translate(540,280)" xml:space="preserve">creates</text></g><g fill="#FFF" fill-opacity="0" stroke="#FFF" stroke-opacity="0" transform="translate(130,130)"><rect width="128.5" height="108.5" x=".5" y=".5" stroke="none" clip-path="url(#clipPath5)"/></g><g transform="translate(130,130)"><rect width="128.5" height="108.5" x=".5" y=".5" fill="none" clip-path="url(#clipPath5)"/><text x="37" y="17.984" stroke="none" clip-path="url(#clipPath5)" font-family="sans-serif" font-size="14" xml:space="preserve">Account</text><path fill="none" d="M1 23.9844 L129 23.9844" clip-path="url(#clipPath5)"/><text x="5" y="38.969" stroke="none" clip-path="url(#clipPath5)" font-family="sans-serif" font-size="14" xml:space="preserve">ID: rf1Bi...</text><text x="5" y="54.953" stroke="none" clip-path="url(#clipPath5)" font-family="sans-serif" font-size="14" xml:space="preserve">Sequence: 101</text></g><g fill="#FFF" fill-opacity="0" stroke="#FFF" stroke-opacity="0" transform="translate(80,70)"><rect width="238.5" height="338.5" x=".5" y=".5" stroke="none" clip-path="url(#clipPath6)"/></g><g stroke-dasharray="8 5" stroke-linecap="butt" stroke-miterlimit="5" transform="translate(80,70)"><rect width="238.5" height="338.5" x=".5" y=".5" fill="none" clip-path="url(#clipPath6)"/><text x="24" y="17.984" stroke="none" clip-path="url(#clipPath6)" font-family="sans-serif" font-size="14" xml:space="preserve">Ledger State Data (Before)</text></g><g fill="#FFF" fill-opacity="0" stroke="#FFF" stroke-opacity="0" transform="translate(950,270)"><rect width="118.5" height="68.5" x=".5" y=".5" stroke="none" clip-path="url(#clipPath7)"/></g><g transform="translate(950,270)"><rect width="118.5" height="68.5" x=".5" y=".5" fill="none" clip-path="url(#clipPath7)"/><text x="39" y="17.984" stroke="none" clip-path="url(#clipPath7)" font-family="sans-serif" font-size="14" xml:space="preserve">Ticket</text><path fill="none" d="M1 23.9844 L119 23.9844" clip-path="url(#clipPath7)"/><text x="5" y="38.969" stroke="none" clip-path="url(#clipPath7)" font-family="sans-serif" font-size="14" xml:space="preserve">Account: rf1Bi...</text><text x="5" y="54.953" stroke="none" clip-path="url(#clipPath7)" font-family="sans-serif" font-size="14" xml:space="preserve">Sequence: 104</text></g><g fill="#FFF" fill-opacity="0" stroke="#FFF" stroke-opacity="0" transform="translate(820,270)"><rect width="118.5" height="68.5" x=".5" y=".5" stroke="none" clip-path="url(#clipPath7)"/></g><g transform="translate(820,270)"><rect width="118.5" height="68.5" x=".5" y=".5" fill="none" clip-path="url(#clipPath7)"/><text x="39" y="17.984" stroke="none" clip-path="url(#clipPath7)" font-family="sans-serif" font-size="14" xml:space="preserve">Ticket</text><path fill="none" d="M1 23.9844 L119 23.9844" clip-path="url(#clipPath7)"/><text x="5" y="38.969" stroke="none" clip-path="url(#clipPath7)" font-family="sans-serif" font-size="14" xml:space="preserve">Account: rf1Bi...</text><text x="5" y="54.953" stroke="none" clip-path="url(#clipPath7)" font-family="sans-serif" font-size="14" xml:space="preserve">Sequence: 103</text></g><g fill="#FFF" fill-opacity="0" stroke="#FFF" stroke-opacity="0" transform="translate(690,270)"><rect width="118.5" height="68.5" x=".5" y=".5" stroke="none" clip-path="url(#clipPath7)"/></g><g transform="translate(690,270)"><rect width="118.5" height="68.5" x=".5" y=".5" fill="none" clip-path="url(#clipPath7)"/><text x="39" y="17.984" stroke="none" clip-path="url(#clipPath7)" font-family="sans-serif" font-size="14" xml:space="preserve">Ticket</text><path fill="none" d="M1 23.9844 L119 23.9844" clip-path="url(#clipPath7)"/><text x="5" y="38.969" stroke="none" clip-path="url(#clipPath7)" font-family="sans-serif" font-size="14" xml:space="preserve">Account: rf1Bi...</text><text x="5" y="54.953" stroke="none" clip-path="url(#clipPath7)" font-family="sans-serif" font-size="14" xml:space="preserve">Sequence: 102</text></g><g fill="#FFF" fill-opacity="0" stroke="#FFF" stroke-opacity="0" transform="translate(690,130)"><rect width="128.5" height="108.5" x=".5" y=".5" stroke="none" clip-path="url(#clipPath5)"/></g><g transform="translate(690,130)"><rect width="128.5" height="108.5" x=".5" y=".5" fill="none" clip-path="url(#clipPath5)"/><text x="37" y="17.984" stroke="none" clip-path="url(#clipPath5)" font-family="sans-serif" font-size="14" xml:space="preserve">Account</text><path fill="none" d="M1 23.9844 L129 23.9844" clip-path="url(#clipPath5)"/><text x="5" y="38.969" stroke="none" clip-path="url(#clipPath5)" font-family="sans-serif" font-size="14" xml:space="preserve">ID: rf1Bi...</text><text x="5" y="54.953" stroke="none" clip-path="url(#clipPath5)" font-family="sans-serif" font-size="14" font-weight="bold" xml:space="preserve">Sequence: 105</text></g><g fill="#FFF" fill-opacity="0" stroke="#FFF" stroke-opacity="0" transform="translate(660,80)"><rect width="438.5" height="328.5" x=".5" y=".5" stroke="none" clip-path="url(#clipPath8)"/></g><g stroke-dasharray="8 5" stroke-linecap="butt" stroke-miterlimit="5" transform="translate(660,80)"><rect width="438.5" height="328.5" x=".5" y=".5" fill="none" clip-path="url(#clipPath8)"/><text x="129" y="17.984" stroke="none" clip-path="url(#clipPath8)" font-family="sans-serif" font-size="14" xml:space="preserve">Ledger State Data (After)</text></g><g fill="#FFF" fill-opacity="0" stroke="#FFF" stroke-opacity="0" transform="translate(420,150)"><rect width="128.5" height="98.5" x=".5" y=".5" stroke="none" clip-path="url(#clipPath9)"/></g><g transform="translate(420,150)"><rect width="128.5" height="98.5" x=".5" y=".5" fill="none" clip-path="url(#clipPath9)"/><text x="20" y="17.984" stroke="none" clip-path="url(#clipPath9)" font-family="sans-serif" font-size="14" xml:space="preserve">TicketCreate</text><text x="25" y="33.969" stroke="none" clip-path="url(#clipPath9)" font-family="sans-serif" font-size="14" xml:space="preserve">transaction</text><path fill="none" d="M1 39.9688 L129 39.9688" clip-path="url(#clipPath9)"/><text x="5" y="54.953" stroke="none" clip-path="url(#clipPath9)" font-family="sans-serif" font-size="14" xml:space="preserve">Account: rf1Bi...</text><text x="5" y="70.938" stroke="none" clip-path="url(#clipPath9)" font-family="sans-serif" font-size="14" xml:space="preserve">TicketCount: 3</text><text x="5" y="86.922" stroke="none" clip-path="url(#clipPath9)" font-family="sans-serif" font-size="14" xml:space="preserve">Sequence: 101</text></g><g><path fill="none" d="M449.5088 130.6322 L150.5 170.5" clip-path="url(#clipPath10)" transform="translate(540,210)"/><path fill="none" d="M150.5 170.5 L10.5 10.5" clip-path="url(#clipPath10)" transform="translate(540,210)"/><path stroke="none" d="M437.9857 125.611 L450.0044 130.5661 L439.7039 138.497 Z" clip-path="url(#clipPath10)" transform="translate(540,210)"/><path fill="none" d="M437.9857 125.611 L450.0044 130.5661 L439.7039 138.497 Z" clip-path="url(#clipPath10)" transform="translate(540,210)"/></g><g><path fill="none" d="M309.5068 130.6168 L140.5 150.5" clip-path="url(#clipPath11)" transform="translate(540,210)"/><path fill="none" d="M140.5 150.5 L10.5 10.5" clip-path="url(#clipPath11)" transform="translate(540,210)"/><path stroke="none" d="M298.0627 125.4184 L310.0034 130.5584 L299.5817 138.3293 Z" clip-path="url(#clipPath11)" transform="translate(540,210)"/><path fill="none" d="M298.0627 125.4184 L310.0034 130.5584 L299.5817 138.3293 Z" clip-path="url(#clipPath11)" transform="translate(540,210)"/></g><g><path fill="none" d="M169.5513 130.8162 L140.5 140.5" clip-path="url(#clipPath12)" transform="translate(540,210)"/><path fill="none" d="M140.5 140.5 L10.5 10.5" clip-path="url(#clipPath12)" transform="translate(540,210)"/><path stroke="none" d="M157.2896 128.0519 L170.0257 130.6581 L161.4005 140.3848 Z" clip-path="url(#clipPath12)" transform="translate(540,210)"/><path fill="none" d="M157.2896 128.0519 L170.0257 130.6581 L161.4005 140.3848 Z" clip-path="url(#clipPath12)" transform="translate(540,210)"/></g><g><path fill="none" d="M149.5 20.5 L10.5 20.5" clip-path="url(#clipPath13)" transform="translate(540,160)"/><path stroke="none" d="M138.7417 14 L150 20.5 L138.7417 27 Z" clip-path="url(#clipPath13)" transform="translate(540,160)"/><path fill="none" d="M138.7417 14 L150 20.5 L138.7417 27 Z" clip-path="url(#clipPath13)" transform="translate(540,160)"/><text x="52.59" y="31.984" stroke="none" clip-path="url(#clipPath13)" font-family="sans-serif" font-size="14" transform="translate(540,160)" xml:space="preserve">updates</text></g><g><path fill="none" d="M169.5 10.5 L10.5 10.5" clip-path="url(#clipPath14)" transform="translate(250,170)"/><path stroke="none" d="M158.7417 4 L170 10.5 L158.7417 17 Z" clip-path="url(#clipPath14)" transform="translate(250,170)"/><path fill="none" d="M158.7417 4 L170 10.5 L158.7417 17 Z" clip-path="url(#clipPath14)" transform="translate(250,170)"/></g></g></svg>