<svg xmlns="http://www.w3.org/2000/svg" xmlns:xlink="http://www.w3.org/1999/xlink" width="1190" height="370" fill="#000" fill-opacity="1" stroke="#000" stroke-dasharray="none" stroke-dashoffset="0" stroke-linecap="square" stroke-linejoin="miter" stroke-miterlimit="10" stroke-opacity="1" stroke-width="1" color-interpolation="auto" color-rendering="auto" font-family="'Dialog'" font-size="12" font-style="normal" font-weight="normal" image-rendering="auto" shape-rendering="auto" text-rendering="auto" viewBox="20 60 1190 370"><g><defs id="defs1"><clipPath id="clipPath1" clipPathUnits="userSpaceOnUse"><path d="M0 0 L2147483647 0 L2147483647 2147483647 L0 2147483647 L0 0 Z"/></clipPath><clipPath id="clipPath2" clipPathUnits="userSpaceOnUse"><path d="M0 0 L0 40 L440 40 L440 0 Z"/></clipPath><clipPath id="clipPath3" clipPathUnits="userSpaceOnUse"><path d="M0 0 L0 50 L90 50 L90 0 Z"/></clipPath><clipPath id="clipPath4" clipPathUnits="userSpaceOnUse"><path d="M0 0 L0 70 L120 70 L120 0 Z"/></clipPath><clipPath id="clipPath5" clipPathUnits="userSpaceOnUse"><path d="M0 0 L0 30 L130 30 L130 0 Z"/></clipPath><clipPath id="clipPath6" clipPathUnits="userSpaceOnUse"><path d="M0 0 L0 110 L130 110 L130 0 Z"/></clipPath><clipPath id="clipPath7" clipPathUnits="userSpaceOnUse"><path d="M0 0 L0 330 L440 330 L440 0 Z"/></clipPath><clipPath id="clipPath8" clipPathUnits="userSpaceOnUse"><path d="M0 0 L0 120 L170 120 L170 0 Z"/></clipPath><clipPath id="clipPath9" clipPathUnits="userSpaceOnUse"><path d="M0 0 L0 100 L280 100 L280 0 Z"/></clipPath><clipPath id="clipPath10" clipPathUnits="userSpaceOnUse"><path d="M0 0 L0 80 L270 80 L270 0 Z"/></clipPath></defs><g font-family="sans-serif" font-size="14"><text x="212" y="17.984" stroke="none" clip-path="url(#clipPath2)" transform="translate(750,370)" xml:space="preserve">...</text></g><g font-family="sans-serif" font-size="14"><text x="212" y="17.984" stroke="none" clip-path="url(#clipPath2)" transform="translate(40,370)" xml:space="preserve">...</text></g><g font-family="sans-serif" font-size="14"><text x="5" y="17.984" stroke="none" clip-path="url(#clipPath3)" transform="translate(930,290)" xml:space="preserve">Ticket 103</text><text x="5" y="33.969" stroke="none" clip-path="url(#clipPath3)" transform="translate(930,290)" xml:space="preserve">削除</text></g><g fill="#FFF" fill-opacity="0" stroke="#FFF" stroke-opacity="0" transform="translate(1040,270)"><rect width="118.5" height="68.5" x=".5" y=".5" stroke="none" clip-path="url(#clipPath4)"/></g><g transform="translate(1040,270)"><rect width="118.5" height="68.5" x=".5" y=".5" fill="none" clip-path="url(#clipPath4)"/><text x="39" y="17.984" stroke="none" clip-path="url(#clipPath4)" font-family="sans-serif" font-size="14" xml:space="preserve">Ticket</text><path fill="none" d="M1 23.9844 L119 23.9844" clip-path="url(#clipPath4)"/><text x="5" y="38.969" stroke="none" clip-path="url(#clipPath4)" font-family="sans-serif" font-size="14" xml:space="preserve">Account: rf1Bi...</text><text x="5" y="54.953" stroke="none" clip-path="url(#clipPath4)" font-family="sans-serif" font-size="14" xml:space="preserve">Sequence: 104</text></g><g fill="#FFF" fill-opacity="0" stroke="#FFF" stroke-opacity="0" transform="translate(790,270)"><rect width="118.5" height="68.5" x=".5" y=".5" stroke="none" clip-path="url(#clipPath4)"/></g><g transform="translate(790,270)"><rect width="118.5" height="68.5" x=".5" y=".5" fill="none" clip-path="url(#clipPath4)"/><text x="39" y="17.984" stroke="none" clip-path="url(#clipPath4)" font-family="sans-serif" font-size="14" xml:space="preserve">Ticket</text><path fill="none" d="M1 23.9844 L119 23.9844" clip-path="url(#clipPath4)"/><text x="5" y="38.969" stroke="none" clip-path="url(#clipPath4)" font-family="sans-serif" font-size="14" xml:space="preserve">Account: rf1Bi...</text><text x="5" y="54.953" stroke="none" clip-path="url(#clipPath4)" font-family="sans-serif" font-size="14" xml:space="preserve">Sequence: 102</text></g><g font-family="sans-serif" font-size="14"><text x="5" y="17.984" stroke="none" clip-path="url(#clipPath5)" transform="translate(950,140)" xml:space="preserve">変更なし</text></g><g fill="#FFF" fill-opacity="0" stroke="#FFF" stroke-opacity="0" transform="translate(790,130)"><rect width="128.5" height="108.5" x=".5" y=".5" stroke="none" clip-path="url(#clipPath6)"/></g><g transform="translate(790,130)"><rect width="128.5" height="108.5" x=".5" y=".5" fill="none" clip-path="url(#clipPath6)"/><text x="30" y="17.984" stroke="none" clip-path="url(#clipPath6)" font-family="sans-serif" font-size="14" xml:space="preserve">アカウント</text><path fill="none" d="M1 23.9844 L129 23.9844" clip-path="url(#clipPath6)"/><text x="5" y="38.969" stroke="none" clip-path="url(#clipPath6)" font-family="sans-serif" font-size="14" xml:space="preserve">ID: rf1Bi...</text><text x="5" y="54.953" stroke="none" clip-path="url(#clipPath6)" font-family="sans-serif" font-size="14" xml:space="preserve">Sequence: 105</text></g><g fill="#FFF" fill-opacity="0" stroke="#FFF" stroke-opacity="0" transform="translate(40,80)"><rect width="438.5" height="328.5" x=".5" y=".5" stroke="none" clip-path="url(#clipPath7)"/></g><g stroke-dasharray="8 5" stroke-linecap="butt" stroke-miterlimit="5" transform="translate(40,80)"><rect width="438.5" height="328.5" x=".5" y=".5" fill="none" clip-path="url(#clipPath7)"/><text x="124" y="17.984" stroke="none" clip-path="url(#clipPath7)" font-family="sans-serif" font-size="14" xml:space="preserve">レジャーの状態データ(前)</text></g><g fill="#FFF" fill-opacity="0" stroke="#FFF" stroke-opacity="0" transform="translate(530,120)"><rect width="168.5" height="118.5" x=".5" y=".5" stroke="none" clip-path="url(#clipPath8)"/></g><g transform="translate(530,120)"><rect width="168.5" height="118.5" x=".5" y=".5" fill="none" clip-path="url(#clipPath8)"/><text x="4" y="26" stroke="none" clip-path="url(#clipPath8)" font-family="sans-serif" font-size="14" xml:space="preserve">(任意のトランザクション)</text><path fill="none" d="M1 39.9688 L169 39.9688" clip-path="url(#clipPath8)"/><text x="5" y="54.953" stroke="none" clip-path="url(#clipPath8)" font-family="sans-serif" font-size="14" xml:space="preserve">Account: rf1Bi...</text><text x="5" y="70.938" stroke="none" clip-path="url(#clipPath8)" font-family="sans-serif" font-size="14" xml:space="preserve">Sequence: 0</text><text x="5" y="86.922" stroke="none" clip-path="url(#clipPath8)" font-family="sans-serif" font-size="14" xml:space="preserve">TicketSequence: 103</text><text x="5" y="102.906" stroke="none" clip-path="url(#clipPath8)" font-family="sans-serif" font-size="14" xml:space="preserve">...</text></g><g fill="#FFF" fill-opacity="0" stroke="#FFF" stroke-opacity="0" transform="translate(330,260)"><rect width="118.5" height="68.5" x=".5" y=".5" stroke="none" clip-path="url(#clipPath4)"/></g><g transform="translate(330,260)"><rect width="118.5" height="68.5" x=".5" y=".5" fill="none" clip-path="url(#clipPath4)"/><text x="39" y="17.984" stroke="none" clip-path="url(#clipPath4)" font-family="sans-serif" font-size="14" xml:space="preserve">Ticket</text><path fill="none" d="M1 23.9844 L119 23.9844" clip-path="url(#clipPath4)"/><text x="5" y="38.969" stroke="none" clip-path="url(#clipPath4)" font-family="sans-serif" font-size="14" xml:space="preserve">Account: rf1Bi...</text><text x="5" y="54.953" stroke="none" clip-path="url(#clipPath4)" font-family="sans-serif" font-size="14" xml:space="preserve">Sequence: 104</text></g><g fill="#FFF" fill-opacity="0" stroke="#FFF" stroke-opacity="0" transform="translate(200,260)"><rect width="118.5" height="68.5" x=".5" y=".5" stroke="none" clip-path="url(#clipPath4)"/></g><g transform="translate(200,260)"><rect width="118.5" height="68.5" x=".5" y=".5" fill="none" clip-path="url(#clipPath4)"/><text x="39" y="17.984" stroke="none" clip-path="url(#clipPath4)" font-family="sans-serif" font-size="14" xml:space="preserve">Ticket</text><path fill="none" d="M1 23.9844 L119 23.9844" clip-path="url(#clipPath4)"/><text x="5" y="38.969" stroke="none" clip-path="url(#clipPath4)" font-family="sans-serif" font-size="14" xml:space="preserve">Account: rf1Bi...</text><text x="5" y="54.953" stroke="none" clip-path="url(#clipPath4)" font-family="sans-serif" font-size="14" xml:space="preserve">Sequence: 103</text></g><g fill="#FFF" fill-opacity="0" stroke="#FFF" stroke-opacity="0" transform="translate(70,260)"><rect width="118.5" height="68.5" x=".5" y=".5" stroke="none" clip-path="url(#clipPath4)"/></g><g transform="translate(70,260)"><rect width="118.5" height="68.5" x=".5" y=".5" fill="none" clip-path="url(#clipPath4)"/><text x="39" y="17.984" stroke="none" clip-path="url(#clipPath4)" font-family="sans-serif" font-size="14" xml:space="preserve">Ticket</text><path fill="none" d="M1 23.9844 L119 23.9844" clip-path="url(#clipPath4)"/><text x="5" y="38.969" stroke="none" clip-path="url(#clipPath4)" font-family="sans-serif" font-size="14" xml:space="preserve">Account: rf1Bi...</text><text x="5" y="54.953" stroke="none" clip-path="url(#clipPath4)" font-family="sans-serif" font-size="14" xml:space="preserve">Sequence: 102</text></g><g fill="#FFF" fill-opacity="0" stroke="#FFF" stroke-opacity="0" transform="translate(70,120)"><rect width="128.5" height="108.5" x=".5" y=".5" stroke="none" clip-path="url(#clipPath6)"/></g><g transform="translate(70,120)"><rect width="128.5" height="108.5" x=".5" y=".5" fill="none" clip-path="url(#clipPath6)"/><text x="30" y="17.984" stroke="none" clip-path="url(#clipPath6)" font-family="sans-serif" font-size="14" xml:space="preserve">アカウント</text><path fill="none" d="M1 23.9844 L129 23.9844" clip-path="url(#clipPath6)"/><text x="5" y="38.969" stroke="none" clip-path="url(#clipPath6)" font-family="sans-serif" font-size="14" xml:space="preserve">ID: rf1Bi...</text><text x="5" y="54.953" stroke="none" clip-path="url(#clipPath6)" font-family="sans-serif" font-size="14" xml:space="preserve">Sequence: 105</text></g><g fill="#FFF" fill-opacity="0" stroke="#FFF" stroke-opacity="0" transform="translate(750,80)"><rect width="438.5" height="328.5" x=".5" y=".5" stroke="none" clip-path="url(#clipPath7)"/></g><g stroke-dasharray="8 5" stroke-linecap="butt" stroke-miterlimit="5" transform="translate(750,80)"><rect width="438.5" height="328.5" x=".5" y=".5" fill="none" clip-path="url(#clipPath7)"/><text x="129" y="17.984" stroke="none" clip-path="url(#clipPath7)" font-family="sans-serif" font-size="14" xml:space="preserve">レジャーの状態データ(後)</text></g><g><path fill="none" d="M259.6056 80.0528 L220.5 60.5" clip-path="url(#clipPath9)" transform="translate(690,200)"/><path fill="none" d="M220.5 60.5 L60.5 40.5" clip-path="url(#clipPath9)" transform="translate(690,200)"/><path fill="none" d="M60.5 40.5 L10.5 10.5" clip-path="url(#clipPath9)" transform="translate(690,200)"/><path stroke="none" d="M252.8899 69.4277 L260.0528 80.2764 L247.0761 81.0553 Z" clip-path="url(#clipPath9)" transform="translate(690,200)"/><path fill="none" d="M252.8899 69.4277 L260.0528 80.2764 L247.0761 81.0553 Z" clip-path="url(#clipPath9)" transform="translate(690,200)"/></g><g><path fill="none" d="M11.4487 30.1838 L70.5 10.5" clip-path="url(#clipPath3)" transform="translate(890,150)"/><path fill="none" d="M23.7104 32.9481 L10.9743 30.3419 L19.5995 20.6152" clip-path="url(#clipPath3)" transform="translate(890,150)"/></g><g><path fill="none" d="M249.521 10.704 L10.5 60.5" clip-path="url(#clipPath10)" transform="translate(280,200)"/><path stroke="none" d="M237.6631 6.5348 L250.0105 10.602 L240.3145 19.2615 Z" clip-path="url(#clipPath10)" transform="translate(280,200)"/><path fill="none" d="M237.6631 6.5348 L250.0105 10.602 L240.3145 19.2615 Z" clip-path="url(#clipPath10)" transform="translate(280,200)"/><text x="113.652" y="31" stroke="none" clip-path="url(#clipPath10)" font-family="sans-serif" font-size="14" transform="translate(280,200)" xml:space="preserve">使用</text></g></g></svg>