<svg xmlns="http://www.w3.org/2000/svg" width="68" height="40" fill="none" viewBox="0 0 68 40"><path fill="url(#paint0_linear_2238_120)" d="M35.0293 23.7356V33.543L43.164 23.3982L43.1842 13.6602L35.0293 23.7356Z"/><path fill="url(#paint1_linear_2238_120)" d="M0 4.87891V40H10.9578V20.4812L29.8571 40V29.9859L9.52974 4.87891H0Z"/><path fill="url(#paint2_linear_2238_120)" d="M0 4.87887L7.44761 0H15.9962L9.52974 4.87887H0Z"/><path fill="url(#paint3_linear_2238_120)" d="M15.9958 0L35.0284 23.7352L29.8561 29.9859L9.5293 4.87944L15.9958 0Z"/><path fill="url(#paint4_linear_2238_120)" d="M10.957 40.0002L17.764 27.5123L10.957 20.4824V40.0002Z"/><path fill="url(#paint5_linear_2238_120)" d="M67.3679 30.0273H56.4102V39.9992H67.3679V30.0273Z"/><path fill="url(#paint6_linear_2238_120)" d="M56.4096 40.0004L43.1631 23.3982L43.1832 13.6602L56.4096 30.0286V40.0004Z"/><path fill="url(#paint7_linear_2238_120)" d="M47.8149 7.98047L67.3683 30.0272H56.4105L43.1836 13.6593"/><path fill="url(#paint8_linear_2238_120)" d="M43.184 13.6593L35.0291 23.7348L30.2578 17.7805L38.5925 7.98047H47.8153"/><path fill="url(#paint9_linear_2238_120)" d="M30.258 17.7812L24.9922 23.9705L29.857 29.9874L35.0293 23.7362L30.258 17.7812Z"/><path fill="url(#paint10_linear_2238_120)" d="M47.8149 17.7669V7.98047L43.1836 13.6593L47.1614 18.5799L47.8149 17.7669Z"/><path fill="url(#paint11_linear_2238_120)" d="M43.1833 13.6593L38.5918 7.98047V17.6289L39.2728 18.4836L43.1833 13.6593Z"/><path fill="url(#paint12_linear_2238_120)" d="M35.0291 23.7344V33.5417L29.8574 39.9997V29.9856L35.0291 23.7344Z"/><path fill="url(#paint13_linear_2238_120)" d="M43.1631 23.3982L47.1605 18.5813L43.1832 13.6602L43.1631 23.3982Z"/><path fill="url(#paint14_linear_2238_120)" d="M43.184 13.6602L39.2734 18.4844L43.1638 23.3982"/><defs><linearGradient id="paint0_linear_2238_120" x1="34.876" x2="44.532" y1="23.605" y2="23.605" gradientUnits="userSpaceOnUse"><stop stop-color="#50ECB1"/><stop offset=".14" stop-color="#50E7B5"/><stop offset=".29" stop-color="#51DAC1"/><stop offset=".45" stop-color="#54C3D4"/><stop offset=".62" stop-color="#57A4F0"/><stop offset=".67" stop-color="#5999FB"/><stop offset="1" stop-color="#023D86"/></linearGradient><linearGradient id="paint1_linear_2238_120" x1="-.434" x2="29.61" y1="22.439" y2="22.439" gradientUnits="userSpaceOnUse"><stop stop-color="#FCAB87"/><stop offset="1" stop-color="#FF3CBF"/></linearGradient><linearGradient id="paint2_linear_2238_120" x1="-3.839" x2="373.671" y1="17.273" y2="17.273" gradientUnits="userSpaceOnUse"><stop stop-color="#FCAB87"/><stop offset="1" stop-color="#FF3CBF"/></linearGradient><linearGradient id="paint3_linear_2238_120" x1="30.657" x2="10.446" y1="12.515" y2="18.598" gradientUnits="userSpaceOnUse"><stop stop-color="#FDA9F3"/><stop offset=".96" stop-color="#FF4082"/></linearGradient><linearGradient id="paint4_linear_2238_120" x1="15.589" x2="11.559" y1="20.193" y2="31.893" gradientUnits="userSpaceOnUse"><stop stop-color="#946450"/><stop offset="1" stop-color="#FF4082"/></linearGradient><linearGradient id="paint5_linear_2238_120" x1="56.33" x2="67.328" y1="35.01" y2="35.01" gradientUnits="userSpaceOnUse"><stop stop-color="#50ECB1"/><stop offset="1" stop-color="#5999FB"/></linearGradient><linearGradient id="paint6_linear_2238_120" x1="42.616" x2="56.87" y1="26.83" y2="26.83" gradientUnits="userSpaceOnUse"><stop stop-color="#50ECB1"/><stop offset=".33" stop-color="#5999FB"/><stop offset="1" stop-color="#023D86"/></linearGradient><linearGradient id="paint7_linear_2238_120" x1="2220.51" x2="2031.91" y1="315.093" y2="825.302" gradientUnits="userSpaceOnUse"><stop stop-color="#50ECB1"/><stop offset="1" stop-color="#5999FB"/></linearGradient><linearGradient id="paint8_linear_2238_120" x1="44.258" x2="29.032" y1="6.437" y2="24.045" gradientUnits="userSpaceOnUse"><stop offset=".16" stop-color="#50ECB1"/><stop offset=".56" stop-color="#5999FB"/><stop offset=".91" stop-color="#023D86"/></linearGradient><linearGradient id="paint9_linear_2238_120" x1="40.248" x2="22.704" y1="25.514" y2="22.881" gradientUnits="userSpaceOnUse"><stop stop-color="#AA44A2"/><stop offset=".16" stop-color="#A846A6"/><stop offset=".33" stop-color="#A34FB3"/><stop offset=".5" stop-color="#9A5DC8"/><stop offset=".68" stop-color="#8E71E5"/><stop offset=".8" stop-color="#8482FF"/></linearGradient><linearGradient id="paint10_linear_2238_120" x1="43.157" x2="48.723" y1="13.28" y2="13.28" gradientUnits="userSpaceOnUse"><stop stop-color="#44A378"/><stop offset="1" stop-color="#5999FB"/></linearGradient><linearGradient id="paint11_linear_2238_120" x1="37.998" x2="43.837" y1="13.232" y2="13.232" gradientUnits="userSpaceOnUse"><stop stop-color="#8B5092"/><stop offset="1" stop-color="#5999FB"/></linearGradient><linearGradient id="paint12_linear_2238_120" x1="32.446" x2="32.446" y1="21.268" y2="34.596" gradientUnits="userSpaceOnUse"><stop stop-color="#F9C41A"/><stop offset="1" stop-color="#FA9DC1"/></linearGradient><linearGradient id="paint13_linear_2238_120" x1="42.069" x2="47.368" y1="18.526" y2="18.526" gradientUnits="userSpaceOnUse"><stop stop-color="#48D7A1"/><stop offset="1" stop-color="#8482FF"/></linearGradient><linearGradient id="paint14_linear_2238_120" x1="38.272" x2="45.74" y1="18.526" y2="18.526" gradientUnits="userSpaceOnUse"><stop offset=".16" stop-color="#50ECB1"/><stop offset=".91" stop-color="#023D86"/></linearGradient></defs></svg>