<svg xmlns="http://www.w3.org/2000/svg" width="24" height="24" fill="none" viewBox="0 0 24 24"><g clip-path="url(#clip0_1663_13369)"><path stroke="#fff" stroke-linecap="round" stroke-linejoin="round" stroke-width="1.5" d="M10 3H14C14.5304 3 15.0391 3.21071 15.4142 3.58579C15.7893 3.96086 16 4.46957 16 5V7H8V5C8 4.46957 8.21071 3.96086 8.58579 3.58579C8.96086 3.21071 9.46957 3 10 3Z"/><path stroke="#fff" stroke-linecap="round" stroke-linejoin="round" stroke-width="1.5" d="M19 7H5C3.89543 7 3 7.89543 3 9V19C3 20.1046 3.89543 21 5 21H19C20.1046 21 21 20.1046 21 19V9C21 7.89543 20.1046 7 19 7Z"/><path stroke="#fff" stroke-linecap="round" stroke-linejoin="round" stroke-width="1.5" d="M8 15L10.5 12.5L13 15L16 12"/></g><defs><clipPath id="clip0_1663_13369"><rect width="24" height="24" fill="#fff"/></clipPath></defs></svg>